{"glyphs":{"0":{"ha":824,"x_min":30,"x_max":774,"o":"m 30 458 q 60 666 30 577 q 143 815 90 756 q 262 904 195 874 q 403 933 329 933 q 543 904 476 933 q 663 815 610 874 q 744 666 715 756 q 774 458 774 577 q 744 240 774 331 q 663 93 715 150 q 543 10 610 37 q 403 -17 476 -17 q 262 10 329 -17 q 143 93 195 37 q 60 240 90 150 q 30 458 30 331 m 238 458 q 258 294 238 358 q 315 198 278 229 q 403 166 352 166 q 490 198 453 166 q 546 294 526 229 q 566 458 566 359 q 546 616 566 551 q 490 716 526 681 q 403 751 453 751 q 315 716 352 751 q 258 616 278 681 q 238 458 238 551 z "},"1":{"ha":455,"x_min":17,"x_max":370,"o":"m 163 653 l 17 577 l 17 774 l 272 917 l 370 917 l 370 0 l 163 0 l 163 653 z "},"2":{"ha":791,"x_min":20,"x_max":720,"o":"m 388 757 q 307 735 342 757 q 248 684 272 713 q 212 631 224 655 q 198 603 199 607 l 20 684 q 33 720 22 693 q 71 784 45 748 q 139 854 97 820 q 242 911 181 888 q 388 933 304 933 q 550 906 485 933 q 651 833 614 878 q 704 736 688 788 q 720 636 720 684 q 696 520 720 576 q 634 415 672 465 q 552 324 596 365 q 468 252 508 283 q 401 203 428 221 q 367 181 373 185 l 713 181 l 713 0 l 55 0 l 55 165 q 102 199 65 172 q 191 265 139 225 q 298 352 242 304 q 402 450 354 399 q 481 549 451 501 q 512 639 512 598 q 480 730 512 703 q 388 757 447 757 z "},"3":{"ha":747,"x_min":15,"x_max":697,"o":"m 47 733 q 76 796 54 761 q 137 862 99 831 q 232 913 176 893 q 361 933 288 933 q 516 901 449 933 q 623 811 584 869 q 662 676 662 753 q 645 591 662 630 q 602 527 628 553 q 547 494 576 501 q 615 463 581 490 q 673 390 649 435 q 697 284 697 345 q 653 129 697 197 q 533 22 609 61 q 358 -17 456 -17 q 184 19 256 -17 q 71 108 113 56 q 15 208 29 160 l 206 303 q 234 240 214 273 q 285 185 253 208 q 357 163 316 163 q 429 179 399 163 q 475 225 459 196 q 492 291 492 253 q 473 356 492 330 q 424 394 455 381 q 357 406 394 406 l 339 406 l 339 555 l 363 555 q 420 568 394 555 q 461 605 446 581 q 476 661 476 628 q 446 736 476 705 q 359 767 416 767 q 298 755 324 767 q 255 724 272 742 q 227 686 238 706 q 215 653 217 667 l 47 733 z "},"4":{"ha":731,"x_min":5,"x_max":696,"o":"m 590 917 l 590 374 l 696 374 l 696 193 l 590 193 l 590 0 l 383 0 l 383 193 l 5 193 l 5 358 l 351 917 l 590 917 m 383 374 l 383 651 l 381 651 l 214 374 l 383 374 z "},"5":{"ha":750,"x_min":29,"x_max":692,"o":"m 207 258 q 224 221 213 239 q 252 188 235 203 q 292 165 269 174 q 348 157 316 157 q 448 198 413 157 q 483 306 484 240 q 449 405 483 369 q 357 441 415 441 q 292 428 319 441 q 248 397 265 415 q 224 365 231 380 l 53 428 l 134 917 l 649 917 l 649 736 l 308 736 l 280 563 q 302 578 283 568 q 350 598 320 589 q 419 606 381 606 q 549 576 487 606 q 652 483 612 547 q 692 317 692 419 q 649 141 692 216 q 530 24 606 65 q 356 -17 454 -17 q 226 1 282 -17 q 131 48 170 19 q 66 111 91 77 q 29 179 42 146 l 207 258 z "},"6":{"ha":781,"x_min":38,"x_max":720,"o":"m 431 610 q 569 574 503 610 q 678 468 635 537 q 720 305 720 400 q 674 139 720 211 q 551 25 628 67 q 380 -17 474 -17 q 207 23 285 -17 q 84 136 130 62 q 38 313 38 210 q 75 503 38 426 q 158 638 112 581 l 386 917 l 629 917 l 347 586 q 376 603 355 595 q 431 610 397 610 m 379 153 q 452 172 419 153 q 505 225 485 192 q 525 299 525 259 q 505 373 525 340 q 452 425 485 406 q 379 444 419 444 q 306 425 339 444 q 252 373 272 406 q 233 299 233 340 q 252 225 233 259 q 306 172 272 192 q 379 153 339 153 z "},"7":{"ha":757,"x_min":59,"x_max":731,"o":"m 72 917 l 731 917 l 731 777 l 288 0 l 59 0 l 488 736 l 72 736 l 72 917 z "},"8":{"ha":779,"x_min":45,"x_max":715,"o":"m 381 -17 q 215 18 291 -17 q 92 114 138 53 q 45 255 45 176 q 66 365 45 319 q 125 442 88 410 q 207 494 162 474 q 145 540 173 514 q 100 603 117 566 q 84 693 84 640 q 124 820 84 767 q 232 904 165 874 q 380 933 299 933 q 529 904 463 933 q 634 820 595 874 q 672 693 672 767 q 638 569 672 614 q 553 494 604 524 q 635 442 599 474 q 693 365 672 410 q 715 255 715 319 q 669 114 715 176 q 547 18 623 53 q 381 -17 471 -17 m 380 164 q 440 180 413 164 q 483 223 467 196 q 499 282 499 249 q 483 342 499 315 q 440 384 467 369 q 380 400 413 400 q 320 384 347 400 q 277 341 293 368 q 260 282 260 315 q 277 223 260 249 q 320 180 293 196 q 380 164 347 164 m 381 560 q 434 574 410 560 q 472 613 458 588 q 487 667 487 638 q 472 720 487 696 q 434 758 458 744 q 381 773 410 773 q 327 758 351 773 q 288 720 303 744 q 274 667 274 696 q 288 613 274 638 q 327 574 303 589 q 381 560 351 560 z "},"9":{"ha":781,"x_min":33,"x_max":715,"o":"m 124 0 l 406 331 q 377 314 398 322 q 322 306 356 306 q 184 343 251 306 q 75 448 118 380 q 33 612 33 517 q 79 778 33 706 q 202 892 125 850 q 373 933 279 933 q 546 894 469 933 q 669 781 623 855 q 715 604 715 707 q 678 414 715 491 q 594 279 642 336 l 367 0 l 124 0 m 374 472 q 448 492 415 472 q 500 544 481 511 q 520 618 520 578 q 500 692 520 658 q 447 744 481 725 q 374 764 414 764 q 300 744 333 764 q 248 691 267 724 q 228 618 228 658 q 248 544 228 578 q 301 492 267 511 q 374 472 334 472 z "},"A":{"ha":938,"x_min":-8,"x_max":923,"o":"m 355 917 l 561 917 l 923 0 l 701 0 l 635 184 l 282 184 l 215 0 l -8 0 l 355 917 m 351 366 l 566 366 l 460 667 l 458 667 l 351 366 z "},"Á":{"ha":938,"x_min":-8,"x_max":923,"o":"m 355 917 l 561 917 l 923 0 l 701 0 l 635 184 l 282 184 l 215 0 l -8 0 l 355 917 m 351 366 l 566 366 l 460 667 l 458 667 l 351 366 m 399 956 l 337 1040 l 563 1235 l 663 1109 l 399 956 z "},"Ă":{"ha":938,"x_min":-8,"x_max":923,"o":"m 355 917 l 561 917 l 923 0 l 701 0 l 635 184 l 282 184 l 215 0 l -8 0 l 355 917 m 351 366 l 566 366 l 460 667 l 458 667 l 351 366 m 458 965 q 345 987 394 965 q 267 1050 297 1010 q 231 1142 238 1090 l 353 1173 q 368 1127 356 1151 q 402 1087 380 1103 q 458 1070 424 1070 q 514 1087 492 1070 q 548 1127 536 1103 q 563 1173 560 1151 l 685 1142 q 651 1051 680 1092 q 573 988 622 1011 q 458 965 524 965 z "},"Ắ":{"ha":938,"x_min":-8,"x_max":923,"o":"m 355 917 l 561 917 l 923 0 l 701 0 l 635 184 l 282 184 l 215 0 l -8 0 l 355 917 m 351 366 l 566 366 l 460 667 l 458 667 l 351 366 m 458 985 q 332 1010 388 985 q 243 1080 277 1035 q 202 1185 209 1126 l 342 1219 q 358 1168 345 1195 q 396 1123 371 1142 q 458 1105 421 1105 q 521 1123 496 1105 q 559 1168 546 1142 q 575 1219 573 1195 l 714 1185 q 675 1082 708 1127 q 587 1011 642 1037 q 458 985 532 985 m 397 1232 l 335 1317 l 561 1512 l 661 1385 l 397 1232 z "},"Ặ":{"ha":938,"x_min":-8,"x_max":923,"o":"m 355 917 l 561 917 l 923 0 l 701 0 l 635 184 l 282 184 l 215 0 l -8 0 l 355 917 m 351 366 l 566 366 l 460 667 l 458 667 l 351 366 m 458 -222 q 401 -198 424 -222 q 378 -142 378 -174 q 401 -85 378 -109 q 458 -61 424 -61 q 514 -85 490 -61 q 538 -142 538 -109 q 514 -198 538 -175 q 458 -222 490 -222 m 458 965 q 345 987 394 965 q 267 1050 297 1010 q 231 1142 238 1090 l 353 1173 q 368 1127 356 1151 q 402 1087 380 1103 q 458 1070 424 1070 q 514 1087 492 1070 q 548 1127 536 1103 q 563 1173 560 1151 l 685 1142 q 651 1051 680 1092 q 573 988 622 1011 q 458 965 524 965 z "},"Ằ":{"ha":938,"x_min":-8,"x_max":923,"o":"m 355 917 l 561 917 l 923 0 l 701 0 l 635 184 l 282 184 l 215 0 l -8 0 l 355 917 m 351 366 l 566 366 l 460 667 l 458 667 l 351 366 m 519 1235 l 256 1389 l 356 1515 l 582 1321 l 519 1235 m 458 985 q 330 1011 385 985 q 242 1082 275 1037 q 202 1185 209 1127 l 341 1219 q 357 1168 344 1195 q 395 1123 371 1142 q 458 1105 420 1105 q 520 1123 496 1105 q 558 1168 545 1142 q 574 1219 572 1195 l 714 1185 q 673 1081 707 1126 q 585 1010 640 1035 q 458 985 530 985 z "},"Ẳ":{"ha":938,"x_min":-8,"x_max":923,"o":"m 355 917 l 561 917 l 923 0 l 701 0 l 635 184 l 282 184 l 215 0 l -8 0 l 355 917 m 351 366 l 566 366 l 460 667 l 458 667 l 351 366 m 436 1219 l 385 1298 q 425 1315 401 1302 q 469 1348 450 1328 q 489 1394 489 1368 q 478 1431 489 1419 q 451 1447 468 1443 q 412 1450 433 1450 q 351 1439 382 1450 q 300 1418 321 1428 l 300 1525 q 345 1546 313 1533 q 439 1558 377 1558 q 524 1544 483 1558 q 590 1498 565 1530 q 616 1410 616 1465 q 596 1334 616 1367 q 547 1278 576 1301 q 487 1241 517 1255 q 436 1219 457 1226 m 458 985 q 332 1010 388 985 q 243 1080 277 1035 q 202 1185 209 1126 l 342 1219 q 358 1168 345 1195 q 396 1123 371 1142 q 458 1105 421 1105 q 521 1123 496 1105 q 559 1168 546 1142 q 575 1219 573 1195 l 714 1185 q 675 1082 708 1127 q 587 1011 642 1037 q 458 985 532 985 z "},"Ẵ":{"ha":938,"x_min":-8,"x_max":923,"o":"m 355 917 l 561 917 l 923 0 l 701 0 l 635 184 l 282 184 l 215 0 l -8 0 l 355 917 m 351 366 l 566 366 l 460 667 l 458 667 l 351 366 m 213 1290 q 238 1374 219 1331 q 289 1449 257 1418 q 364 1479 320 1479 q 441 1466 408 1479 q 503 1441 474 1453 q 563 1428 533 1428 q 596 1444 583 1428 q 614 1479 608 1460 l 726 1479 q 701 1397 720 1442 q 650 1321 682 1353 q 574 1290 619 1290 q 498 1302 531 1290 q 435 1328 465 1315 q 375 1341 406 1341 q 343 1324 356 1341 q 325 1290 330 1306 l 213 1290 m 458 985 q 332 1010 388 985 q 243 1080 277 1035 q 202 1185 209 1126 l 342 1219 q 358 1168 345 1195 q 396 1123 371 1142 q 458 1105 421 1105 q 521 1123 496 1105 q 559 1168 546 1142 q 575 1219 573 1195 l 714 1185 q 675 1082 708 1127 q 587 1011 642 1037 q 458 985 532 985 z "},"Â":{"ha":938,"x_min":-8,"x_max":923,"o":"m 355 917 l 561 917 l 923 0 l 701 0 l 635 184 l 282 184 l 215 0 l -8 0 l 355 917 m 351 366 l 566 366 l 460 667 l 458 667 l 351 366 m 288 970 l 213 1071 l 458 1250 l 702 1070 l 627 970 l 458 1094 l 288 970 z "},"Ấ":{"ha":938,"x_min":-8,"x_max":923,"o":"m 355 917 l 561 917 l 923 0 l 701 0 l 635 184 l 282 184 l 215 0 l -8 0 l 355 917 m 351 366 l 566 366 l 460 667 l 458 667 l 351 366 m 628 963 l 459 1086 l 290 963 l 214 1063 l 459 1242 l 704 1063 l 628 963 m 635 1167 l 574 1251 l 799 1447 l 899 1320 l 635 1167 z "},"Ậ":{"ha":938,"x_min":-8,"x_max":923,"o":"m 355 917 l 561 917 l 923 0 l 701 0 l 635 184 l 282 184 l 215 0 l -8 0 l 355 917 m 351 366 l 566 366 l 460 667 l 458 667 l 351 366 m 458 -222 q 401 -198 424 -222 q 378 -142 378 -174 q 401 -85 378 -109 q 458 -61 424 -61 q 514 -85 490 -61 q 538 -142 538 -109 q 514 -198 538 -175 q 458 -222 490 -222 m 288 970 l 213 1071 l 458 1250 l 702 1070 l 627 970 l 458 1094 l 288 970 z "},"Ầ":{"ha":938,"x_min":-8,"x_max":923,"o":"m 355 917 l 561 917 l 923 0 l 701 0 l 635 184 l 282 184 l 215 0 l -8 0 l 355 917 m 351 366 l 566 366 l 460 667 l 458 667 l 351 366 m 629 965 l 460 1089 l 290 965 l 215 1065 l 460 1244 l 705 1065 l 629 965 m 744 1155 l 481 1308 l 581 1435 l 806 1240 l 744 1155 z "},"Ẩ":{"ha":938,"x_min":-8,"x_max":923,"o":"m 355 917 l 561 917 l 923 0 l 701 0 l 635 184 l 282 184 l 215 0 l -8 0 l 355 917 m 351 366 l 566 366 l 460 667 l 458 667 l 351 366 m 598 1183 l 547 1262 q 587 1279 563 1266 q 631 1312 612 1292 q 651 1358 651 1332 q 640 1395 651 1383 q 613 1410 630 1407 q 574 1414 595 1414 q 513 1403 544 1414 q 462 1382 483 1392 l 462 1489 q 507 1510 474 1497 q 601 1522 539 1522 q 686 1508 645 1522 q 752 1461 726 1494 q 778 1374 778 1429 q 758 1298 778 1331 q 709 1242 738 1265 q 649 1205 679 1219 q 598 1183 619 1190 m 630 963 l 460 1086 l 291 963 l 215 1063 l 460 1242 l 706 1063 l 630 963 z "},"Ẫ":{"ha":938,"x_min":-8,"x_max":923,"o":"m 355 917 l 561 917 l 923 0 l 701 0 l 635 184 l 282 184 l 215 0 l -8 0 l 355 917 m 351 366 l 566 366 l 460 667 l 458 667 l 351 366 m 209 1263 q 234 1347 215 1303 q 285 1422 253 1391 q 360 1452 316 1452 q 438 1439 404 1452 q 500 1414 471 1426 q 560 1401 528 1401 q 593 1418 580 1401 q 610 1452 606 1436 l 722 1452 q 697 1367 715 1411 q 647 1293 678 1324 q 571 1263 615 1263 q 494 1275 527 1263 q 431 1301 460 1288 q 371 1313 402 1313 q 339 1296 351 1313 q 321 1263 326 1278 l 209 1263 m 626 963 l 457 1086 l 288 963 l 212 1063 l 457 1242 l 702 1063 l 626 963 z "},"Ȁ":{"ha":938,"x_min":-8,"x_max":923,"o":"m 355 917 l 561 917 l 923 0 l 701 0 l 635 184 l 282 184 l 215 0 l -8 0 l 355 917 m 351 366 l 566 366 l 460 667 l 458 667 l 351 366 m 685 956 l 421 1109 l 521 1235 l 747 1041 l 685 956 m 391 956 l 127 1109 l 227 1235 l 453 1041 l 391 956 z "},"Ä":{"ha":938,"x_min":-8,"x_max":923,"o":"m 355 917 l 561 917 l 923 0 l 701 0 l 635 184 l 282 184 l 215 0 l -8 0 l 355 917 m 351 366 l 566 366 l 460 667 l 458 667 l 351 366 m 598 972 q 526 1002 556 972 q 497 1074 497 1033 q 526 1146 497 1116 q 598 1176 556 1176 q 670 1146 640 1176 q 699 1074 699 1116 q 670 1002 699 1032 q 598 972 640 972 m 319 972 q 247 1002 276 972 q 217 1074 217 1033 q 247 1146 217 1116 q 319 1176 276 1176 q 390 1146 360 1176 q 420 1074 420 1116 q 390 1002 420 1032 q 319 972 360 972 z "},"Ạ":{"ha":938,"x_min":-8,"x_max":923,"o":"m 355 917 l 561 917 l 923 0 l 701 0 l 635 184 l 282 184 l 215 0 l -8 0 l 355 917 m 351 366 l 566 366 l 460 667 l 458 667 l 351 366 m 458 -222 q 401 -198 424 -222 q 378 -142 378 -174 q 401 -85 378 -109 q 458 -61 424 -61 q 514 -85 490 -61 q 538 -142 538 -109 q 514 -198 538 -175 q 458 -222 490 -222 z "},"À":{"ha":938,"x_min":-8,"x_max":923,"o":"m 355 917 l 561 917 l 923 0 l 701 0 l 635 184 l 282 184 l 215 0 l -8 0 l 355 917 m 351 366 l 566 366 l 460 667 l 458 667 l 351 366 m 503 956 l 239 1109 l 340 1235 l 565 1040 l 503 956 z "},"Ả":{"ha":938,"x_min":-8,"x_max":923,"o":"m 355 917 l 561 917 l 923 0 l 701 0 l 635 184 l 282 184 l 215 0 l -8 0 l 355 917 m 351 366 l 566 366 l 460 667 l 458 667 l 351 366 m 436 965 l 385 1033 q 425 1047 401 1036 q 469 1075 450 1058 q 489 1113 489 1092 q 478 1146 489 1135 q 451 1160 468 1157 q 412 1163 433 1163 q 351 1153 382 1163 q 300 1134 321 1143 l 300 1226 q 345 1244 313 1233 q 439 1255 377 1255 q 524 1243 483 1255 q 590 1203 565 1231 q 616 1127 616 1175 q 596 1063 616 1090 q 547 1015 576 1035 q 487 984 517 996 q 436 965 457 972 z "},"Ȃ":{"ha":938,"x_min":-8,"x_max":923,"o":"m 355 917 l 561 917 l 923 0 l 701 0 l 635 184 l 282 184 l 215 0 l -8 0 l 355 917 m 351 366 l 566 366 l 460 667 l 458 667 l 351 366 m 353 965 l 233 994 q 267 1085 238 1045 q 345 1148 296 1125 q 458 1172 394 1172 q 569 1149 521 1172 q 648 1087 618 1126 q 683 994 678 1047 l 562 965 q 547 1010 559 986 q 513 1050 535 1033 q 458 1066 491 1066 q 402 1050 424 1066 q 368 1010 380 1033 q 353 965 356 986 z "},"Ā":{"ha":938,"x_min":-8,"x_max":923,"o":"m 355 917 l 561 917 l 923 0 l 701 0 l 635 184 l 282 184 l 215 0 l -8 0 l 355 917 m 351 366 l 566 366 l 460 667 l 458 667 l 351 366 m 231 1004 l 231 1136 l 684 1136 l 684 1004 l 231 1004 z "},"Ą":{"ha":942,"x_min":-8,"x_max":923,"o":"m 355 917 l 561 917 l 923 0 l 701 0 l 635 184 l 282 184 l 215 0 l -8 0 l 355 917 m 351 366 l 566 366 l 460 667 l 458 667 l 351 366 m 738 -302 q 676 -290 708 -302 q 621 -251 644 -278 q 599 -175 599 -223 q 617 -105 599 -143 q 663 -32 636 -67 q 715 28 690 3 l 777 0 q 747 -42 763 -17 q 721 -97 732 -68 q 710 -153 710 -126 q 723 -189 710 -178 q 756 -199 737 -199 q 789 -188 774 -199 q 811 -167 804 -177 l 890 -226 q 832 -277 874 -251 q 738 -302 791 -302 z "},"Å":{"ha":938,"x_min":-8,"x_max":923,"o":"m 355 917 l 561 917 l 923 0 l 701 0 l 635 184 l 282 184 l 215 0 l -8 0 l 355 917 m 351 366 l 566 366 l 460 667 l 458 667 l 351 366 m 458 944 q 344 983 388 944 q 301 1084 301 1022 q 347 1184 301 1144 q 458 1223 392 1223 q 570 1184 525 1223 q 615 1084 615 1144 q 571 983 615 1022 q 458 944 527 944 m 458 1029 q 494 1044 480 1029 q 509 1084 509 1059 q 494 1122 509 1108 q 458 1136 478 1136 q 422 1122 437 1136 q 406 1084 406 1108 q 421 1044 406 1058 q 458 1029 436 1029 z "},"Ǻ":{"ha":938,"x_min":-8,"x_max":923,"o":"m 355 917 l 561 917 l 923 0 l 701 0 l 635 184 l 282 184 l 215 0 l -8 0 l 355 917 m 351 366 l 566 366 l 460 667 l 458 667 l 351 366 m 458 944 q 344 983 388 944 q 301 1084 301 1022 q 347 1184 301 1144 q 458 1223 392 1223 q 570 1184 525 1223 q 615 1084 615 1144 q 571 983 615 1022 q 458 944 527 944 m 458 1029 q 494 1044 480 1029 q 509 1084 509 1059 q 494 1122 509 1108 q 458 1136 478 1136 q 422 1122 437 1136 q 406 1084 406 1108 q 421 1044 406 1058 q 458 1029 436 1029 m 399 1262 l 337 1347 l 563 1542 l 663 1415 l 399 1262 z "},"Ã":{"ha":938,"x_min":-8,"x_max":923,"o":"m 355 917 l 561 917 l 923 0 l 701 0 l 635 184 l 282 184 l 215 0 l -8 0 l 355 917 m 351 366 l 566 366 l 460 667 l 458 667 l 351 366 m 201 978 q 227 1063 208 1019 q 277 1138 246 1107 q 353 1168 308 1168 q 430 1155 397 1168 q 492 1130 463 1142 q 552 1117 521 1117 q 585 1134 572 1117 q 602 1168 598 1152 l 715 1168 q 689 1084 708 1128 q 639 1009 670 1040 q 563 978 608 978 q 486 991 519 978 q 424 1017 453 1004 q 363 1030 394 1030 q 331 1013 344 1030 q 313 978 318 995 l 201 978 z "},"Æ":{"ha":1194,"x_min":-12,"x_max":1132,"o":"m 482 917 l 699 917 l 658 184 l 310 184 l 213 0 l -12 0 l 482 917 m 388 342 l 559 342 l 559 642 l 556 645 l 388 342 m 547 917 l 1132 917 l 1132 735 l 753 735 l 753 548 l 1128 548 l 1128 372 l 753 372 l 753 182 l 1132 182 l 1132 0 l 547 0 l 547 917 z "},"Ǽ":{"ha":1194,"x_min":-12,"x_max":1132,"o":"m 482 917 l 699 917 l 658 184 l 310 184 l 213 0 l -12 0 l 482 917 m 388 342 l 559 342 l 559 642 l 556 645 l 388 342 m 547 917 l 1132 917 l 1132 735 l 753 735 l 753 548 l 1128 548 l 1128 372 l 753 372 l 753 182 l 1132 182 l 1132 0 l 547 0 l 547 917 m 734 980 l 672 1065 l 898 1260 l 998 1134 l 734 980 z "},"B":{"ha":776,"x_min":63,"x_max":710,"o":"m 63 917 l 378 917 q 523 895 456 917 q 632 825 590 874 q 673 692 673 776 q 652 594 673 638 q 598 524 632 551 q 525 488 565 497 q 593 468 560 483 q 652 425 626 452 q 695 357 679 397 q 710 260 710 316 q 676 125 710 183 q 576 33 642 66 q 415 0 510 0 l 63 0 l 63 917 m 271 166 l 365 166 q 438 180 410 166 q 479 218 466 193 q 492 279 492 244 q 458 361 492 335 q 362 387 424 387 l 271 387 l 271 166 m 271 549 l 355 549 q 416 563 392 549 q 454 600 441 576 q 467 655 467 624 q 435 731 467 711 q 347 751 403 751 l 271 751 l 271 549 z "},"C":{"ha":895,"x_min":36,"x_max":826,"o":"m 543 189 q 659 208 607 189 q 738 244 712 226 l 826 68 q 715 12 794 40 q 528 -17 636 -17 q 338 19 426 -17 q 181 118 249 54 q 75 269 113 183 q 36 457 36 356 q 74 645 36 558 q 180 797 113 733 q 337 898 248 862 q 528 933 426 933 q 715 905 636 933 q 826 849 794 876 l 738 672 q 659 709 712 691 q 543 728 607 728 q 419 706 472 728 q 331 646 367 684 q 278 560 296 608 q 261 459 261 512 q 278 357 261 406 q 331 271 296 309 q 419 211 367 233 q 543 189 472 189 z "},"Ć":{"ha":895,"x_min":36,"x_max":826,"o":"m 543 189 q 659 208 607 189 q 738 244 712 226 l 826 68 q 715 12 794 40 q 528 -17 636 -17 q 338 19 426 -17 q 181 118 249 54 q 75 269 113 183 q 36 457 36 356 q 74 645 36 558 q 180 797 113 733 q 337 898 248 862 q 528 933 426 933 q 715 905 636 933 q 826 849 794 876 l 738 672 q 659 709 712 691 q 543 728 607 728 q 419 706 472 728 q 331 646 367 684 q 278 560 296 608 q 261 459 261 512 q 278 357 261 406 q 331 271 296 309 q 419 211 367 233 q 543 189 472 189 m 437 956 l 374 1040 l 600 1235 l 701 1109 l 437 956 z "},"Č":{"ha":895,"x_min":36,"x_max":826,"o":"m 543 189 q 659 208 607 189 q 738 244 712 226 l 826 68 q 715 12 794 40 q 528 -17 636 -17 q 338 19 426 -17 q 181 118 249 54 q 75 269 113 183 q 36 457 36 356 q 74 645 36 558 q 180 797 113 733 q 337 898 248 862 q 528 933 426 933 q 715 905 636 933 q 826 849 794 876 l 738 672 q 659 709 712 691 q 543 728 607 728 q 419 706 472 728 q 331 646 367 684 q 278 560 296 608 q 261 459 261 512 q 278 357 261 406 q 331 271 296 309 q 419 211 367 233 q 543 189 472 189 m 496 978 l 282 1135 l 348 1223 l 496 1115 l 644 1223 l 709 1135 l 496 978 z "},"Ç":{"ha":895,"x_min":36,"x_max":826,"o":"m 543 189 q 659 208 607 189 q 738 244 712 226 l 826 68 q 715 12 794 40 q 528 -17 636 -17 q 338 19 426 -17 q 181 118 249 54 q 75 269 113 183 q 36 457 36 356 q 74 645 36 558 q 180 797 113 733 q 337 898 248 862 q 528 933 426 933 q 715 905 636 933 q 826 849 794 876 l 738 672 q 659 709 712 691 q 543 728 607 728 q 419 706 472 728 q 331 646 367 684 q 278 560 296 608 q 261 459 261 512 q 278 357 261 406 q 331 271 296 309 q 419 211 367 233 q 543 189 472 189 m 536 -301 q 425 -281 470 -301 q 362 -242 379 -260 l 431 -163 q 468 -192 444 -177 q 519 -206 492 -206 q 559 -194 544 -206 q 574 -163 574 -183 q 555 -128 574 -140 q 510 -117 536 -117 q 474 -120 489 -117 q 454 -127 459 -124 l 444 -119 l 497 29 l 571 4 l 546 -58 q 619 -67 585 -56 q 676 -103 654 -79 q 698 -164 698 -128 q 676 -237 698 -207 q 616 -284 653 -268 q 536 -301 579 -301 z "},"Ĉ":{"ha":895,"x_min":36,"x_max":826,"o":"m 543 189 q 659 208 607 189 q 738 244 712 226 l 826 68 q 715 12 794 40 q 528 -17 636 -17 q 338 19 426 -17 q 181 118 249 54 q 75 269 113 183 q 36 457 36 356 q 74 645 36 558 q 180 797 113 733 q 337 898 248 862 q 528 933 426 933 q 715 905 636 933 q 826 849 794 876 l 738 672 q 659 709 712 691 q 543 728 607 728 q 419 706 472 728 q 331 646 367 684 q 278 560 296 608 q 261 459 261 512 q 278 357 261 406 q 331 271 296 309 q 419 211 367 233 q 543 189 472 189 m 326 970 l 250 1071 l 495 1250 l 740 1070 l 665 970 l 495 1094 l 326 970 z "},"Ċ":{"ha":895,"x_min":36,"x_max":826,"o":"m 543 189 q 659 208 607 189 q 738 244 712 226 l 826 68 q 715 12 794 40 q 528 -17 636 -17 q 338 19 426 -17 q 181 118 249 54 q 75 269 113 183 q 36 457 36 356 q 74 645 36 558 q 180 797 113 733 q 337 898 248 862 q 528 933 426 933 q 715 905 636 933 q 826 849 794 876 l 738 672 q 659 709 712 691 q 543 728 607 728 q 419 706 472 728 q 331 646 367 684 q 278 560 296 608 q 261 459 261 512 q 278 357 261 406 q 331 271 296 309 q 419 211 367 233 q 543 189 472 189 m 495 991 q 423 1021 453 991 q 394 1093 394 1051 q 423 1165 394 1135 q 495 1195 453 1195 q 567 1165 537 1195 q 597 1093 597 1135 q 567 1021 597 1051 q 495 991 537 991 z "},"D":{"ha":834,"x_min":60,"x_max":770,"o":"m 60 917 l 335 917 q 578 858 482 917 q 722 696 674 799 q 770 459 770 592 q 722 222 770 325 q 578 59 674 118 q 335 0 482 0 l 60 0 l 60 917 m 267 733 l 267 184 l 317 184 q 447 220 395 184 q 524 318 498 256 q 550 458 550 380 q 525 598 550 536 q 447 697 499 660 q 317 733 395 733 l 267 733 z "},"Ǆ":{"ha":1709,"x_min":60,"x_max":1658,"o":"m 60 917 l 335 917 q 578 858 482 917 q 722 696 674 799 q 770 459 770 592 q 722 222 770 325 q 578 59 674 118 q 335 0 482 0 l 60 0 l 60 917 m 267 733 l 267 184 l 317 184 q 447 220 395 184 q 524 318 498 256 q 550 458 550 380 q 525 598 550 536 q 447 697 499 660 q 317 733 395 733 l 267 733 m 906 917 l 1658 917 l 1203 182 l 1628 182 l 1628 0 l 841 0 l 1295 735 l 906 735 l 906 917 m 1262 999 l 1017 1178 l 1092 1279 l 1262 1155 l 1431 1279 l 1507 1178 l 1262 999 z "},"Ð":{"ha":834,"x_min":-12,"x_max":770,"o":"m 60 0 l 60 917 l 335 917 q 578 858 482 917 q 722 696 674 799 q 770 459 770 592 q 722 222 770 325 q 578 59 674 118 q 335 0 482 0 l 60 0 m -12 367 l -12 546 l 397 546 l 397 367 l -12 367 m 267 184 l 317 184 q 447 220 395 184 q 524 318 498 256 q 550 458 550 380 q 525 598 550 536 q 447 697 499 660 q 317 733 395 733 l 267 733 l 267 184 z "},"Ď":{"ha":834,"x_min":60,"x_max":770,"o":"m 60 917 l 335 917 q 578 858 482 917 q 722 696 674 799 q 770 459 770 592 q 722 222 770 325 q 578 59 674 118 q 335 0 482 0 l 60 0 l 60 917 m 267 733 l 267 184 l 317 184 q 447 220 395 184 q 524 318 498 256 q 550 458 550 380 q 525 598 550 536 q 447 697 499 660 q 317 733 395 733 l 267 733 m 393 978 l 179 1135 l 245 1223 l 393 1115 l 541 1223 l 606 1135 l 393 978 z "},"Đ":{"ha":834,"x_min":-12,"x_max":770,"o":"m 60 0 l 60 917 l 335 917 q 578 858 482 917 q 722 696 674 799 q 770 459 770 592 q 722 222 770 325 q 578 59 674 118 q 335 0 482 0 l 60 0 m -12 367 l -12 546 l 397 546 l 397 367 l -12 367 m 267 184 l 317 184 q 447 220 395 184 q 524 318 498 256 q 550 458 550 380 q 525 598 550 536 q 447 697 499 660 q 317 733 395 733 l 267 733 l 267 184 z "},"ǅ":{"ha":1458,"x_min":60,"x_max":1442,"o":"m 60 917 l 335 917 q 578 858 482 917 q 722 696 674 799 q 770 459 770 592 q 722 222 770 325 q 578 59 674 118 q 335 0 482 0 l 60 0 l 60 917 m 267 733 l 267 184 l 317 184 q 447 220 395 184 q 524 318 498 256 q 550 458 550 380 q 525 598 550 536 q 447 697 499 660 q 317 733 395 733 l 267 733 m 877 570 l 1442 570 l 1157 147 l 1419 147 l 1419 0 l 831 0 l 1115 424 l 877 424 l 877 570 m 1149 653 l 903 832 l 979 933 l 1149 808 l 1318 933 l 1394 832 l 1149 653 z "},"E":{"ha":742,"x_min":58,"x_max":643,"o":"m 58 917 l 643 917 l 643 735 l 265 735 l 265 548 l 640 548 l 640 372 l 265 372 l 265 182 l 643 182 l 643 0 l 58 0 l 58 917 z "},"É":{"ha":742,"x_min":58,"x_max":643,"o":"m 58 917 l 643 917 l 643 735 l 265 735 l 265 548 l 640 548 l 640 372 l 265 372 l 265 182 l 643 182 l 643 0 l 58 0 l 58 917 m 276 956 l 213 1040 l 439 1235 l 540 1109 l 276 956 z "},"Ĕ":{"ha":742,"x_min":58,"x_max":643,"o":"m 58 917 l 643 917 l 643 735 l 265 735 l 265 548 l 640 548 l 640 372 l 265 372 l 265 182 l 643 182 l 643 0 l 58 0 l 58 917 m 335 965 q 222 987 271 965 q 143 1050 173 1010 q 108 1142 114 1090 l 230 1173 q 244 1127 233 1151 q 278 1087 256 1103 q 335 1070 301 1070 q 390 1087 368 1070 q 425 1127 413 1103 q 439 1173 437 1151 l 561 1142 q 527 1051 556 1092 q 449 988 498 1011 q 335 965 400 965 z "},"Ě":{"ha":742,"x_min":58,"x_max":643,"o":"m 58 917 l 643 917 l 643 735 l 265 735 l 265 548 l 640 548 l 640 372 l 265 372 l 265 182 l 643 182 l 643 0 l 58 0 l 58 917 m 335 978 l 121 1135 l 187 1223 l 335 1115 l 483 1223 l 548 1135 l 335 978 z "},"Ê":{"ha":742,"x_min":58,"x_max":643,"o":"m 58 917 l 643 917 l 643 735 l 265 735 l 265 548 l 640 548 l 640 372 l 265 372 l 265 182 l 643 182 l 643 0 l 58 0 l 58 917 m 165 970 l 89 1071 l 334 1250 l 578 1070 l 503 970 l 334 1094 l 165 970 z "},"Ế":{"ha":742,"x_min":58,"x_max":776,"o":"m 58 917 l 643 917 l 643 735 l 265 735 l 265 548 l 640 548 l 640 372 l 265 372 l 265 182 l 643 182 l 643 0 l 58 0 l 58 917 m 505 963 l 335 1086 l 166 963 l 90 1063 l 335 1242 l 581 1063 l 505 963 m 512 1167 l 450 1251 l 676 1447 l 776 1320 l 512 1167 z "},"Ệ":{"ha":742,"x_min":58,"x_max":643,"o":"m 58 917 l 643 917 l 643 735 l 265 735 l 265 548 l 640 548 l 640 372 l 265 372 l 265 182 l 643 182 l 643 0 l 58 0 l 58 917 m 333 -222 q 276 -198 299 -222 q 253 -142 253 -174 q 276 -85 253 -109 q 333 -61 299 -61 q 389 -85 365 -61 q 413 -142 413 -109 q 389 -198 413 -175 q 333 -222 365 -222 m 165 970 l 89 1071 l 334 1250 l 578 1070 l 503 970 l 334 1094 l 165 970 z "},"Ề":{"ha":742,"x_min":58,"x_max":683,"o":"m 58 917 l 643 917 l 643 735 l 265 735 l 265 548 l 640 548 l 640 372 l 265 372 l 265 182 l 643 182 l 643 0 l 58 0 l 58 917 m 506 965 l 336 1089 l 167 965 l 91 1065 l 336 1244 l 581 1065 l 506 965 m 621 1155 l 357 1308 l 457 1435 l 683 1240 l 621 1155 z "},"Ể":{"ha":742,"x_min":58,"x_max":654,"o":"m 58 917 l 643 917 l 643 735 l 265 735 l 265 548 l 640 548 l 640 372 l 265 372 l 265 182 l 643 182 l 643 0 l 58 0 l 58 917 m 474 1183 l 424 1262 q 464 1279 439 1266 q 508 1312 488 1292 q 527 1358 527 1332 q 517 1395 527 1383 q 489 1410 506 1407 q 450 1414 472 1414 q 390 1403 420 1414 q 338 1382 359 1392 l 338 1489 q 383 1510 351 1497 q 477 1522 415 1522 q 562 1508 522 1522 q 628 1461 603 1494 q 654 1374 654 1429 q 634 1298 654 1331 q 585 1242 615 1265 q 525 1205 556 1219 q 474 1183 495 1190 m 506 963 l 337 1086 l 167 963 l 92 1063 l 337 1242 l 582 1063 l 506 963 z "},"Ễ":{"ha":742,"x_min":58,"x_max":643,"o":"m 58 917 l 643 917 l 643 735 l 265 735 l 265 548 l 640 548 l 640 372 l 265 372 l 265 182 l 643 182 l 643 0 l 58 0 l 58 917 m 85 1263 q 111 1347 92 1303 q 161 1422 130 1391 q 237 1452 192 1452 q 314 1439 281 1452 q 376 1414 347 1426 q 436 1401 405 1401 q 469 1418 456 1401 q 486 1452 482 1436 l 599 1452 q 573 1367 592 1411 q 523 1293 554 1324 q 447 1263 492 1263 q 370 1275 403 1263 q 308 1301 337 1288 q 247 1313 278 1313 q 215 1296 228 1313 q 197 1263 202 1278 l 85 1263 m 503 963 l 333 1086 l 164 963 l 88 1063 l 333 1242 l 578 1063 l 503 963 z "},"Ȅ":{"ha":742,"x_min":3,"x_max":643,"o":"m 58 917 l 643 917 l 643 735 l 265 735 l 265 548 l 640 548 l 640 372 l 265 372 l 265 182 l 643 182 l 643 0 l 58 0 l 58 917 m 561 956 l 297 1109 l 397 1235 l 624 1041 l 561 956 m 267 956 l 3 1109 l 103 1235 l 330 1041 l 267 956 z "},"Ë":{"ha":742,"x_min":58,"x_max":643,"o":"m 58 917 l 643 917 l 643 735 l 265 735 l 265 548 l 640 548 l 640 372 l 265 372 l 265 182 l 643 182 l 643 0 l 58 0 l 58 917 m 474 972 q 402 1002 432 972 q 373 1074 373 1033 q 402 1146 373 1116 q 474 1176 432 1176 q 546 1146 517 1176 q 576 1074 576 1116 q 546 1002 576 1032 q 474 972 517 972 m 195 972 q 123 1002 153 972 q 94 1074 94 1033 q 123 1146 94 1116 q 195 1176 153 1176 q 267 1146 237 1176 q 297 1074 297 1116 q 267 1002 297 1032 q 195 972 237 972 z "},"Ė":{"ha":742,"x_min":58,"x_max":643,"o":"m 58 917 l 643 917 l 643 735 l 265 735 l 265 548 l 640 548 l 640 372 l 265 372 l 265 182 l 643 182 l 643 0 l 58 0 l 58 917 m 334 991 q 262 1021 292 991 q 233 1093 233 1051 q 262 1165 233 1135 q 334 1195 292 1195 q 406 1165 376 1195 q 435 1093 435 1135 q 406 1021 435 1051 q 334 991 376 991 z "},"Ẹ":{"ha":742,"x_min":58,"x_max":643,"o":"m 58 917 l 643 917 l 643 735 l 265 735 l 265 548 l 640 548 l 640 372 l 265 372 l 265 182 l 643 182 l 643 0 l 58 0 l 58 917 m 333 -222 q 276 -198 299 -222 q 253 -142 253 -174 q 276 -85 253 -109 q 333 -61 299 -61 q 389 -85 365 -61 q 413 -142 413 -109 q 389 -198 413 -175 q 333 -222 365 -222 z "},"È":{"ha":742,"x_min":58,"x_max":643,"o":"m 58 917 l 643 917 l 643 735 l 265 735 l 265 548 l 640 548 l 640 372 l 265 372 l 265 182 l 643 182 l 643 0 l 58 0 l 58 917 m 379 956 l 115 1109 l 216 1235 l 442 1040 l 379 956 z "},"Ẻ":{"ha":742,"x_min":58,"x_max":643,"o":"m 58 917 l 643 917 l 643 735 l 265 735 l 265 548 l 640 548 l 640 372 l 265 372 l 265 182 l 643 182 l 643 0 l 58 0 l 58 917 m 312 965 l 261 1033 q 301 1047 276 1036 q 345 1075 326 1058 q 365 1113 365 1092 q 354 1146 365 1135 q 326 1160 344 1157 q 288 1163 309 1163 q 227 1153 258 1163 q 176 1134 197 1143 l 176 1226 q 220 1244 188 1233 q 315 1255 253 1255 q 400 1243 359 1255 q 466 1203 440 1231 q 492 1127 492 1175 q 472 1063 492 1090 q 423 1015 452 1035 q 363 984 393 996 q 312 965 333 972 z "},"Ȇ":{"ha":742,"x_min":58,"x_max":643,"o":"m 58 917 l 643 917 l 643 735 l 265 735 l 265 548 l 640 548 l 640 372 l 265 372 l 265 182 l 643 182 l 643 0 l 58 0 l 58 917 m 230 965 l 109 994 q 143 1085 115 1045 q 221 1148 172 1125 q 334 1172 270 1172 q 446 1149 397 1172 q 524 1087 494 1126 q 560 994 554 1047 l 438 965 q 424 1010 435 986 q 390 1050 412 1033 q 334 1066 367 1066 q 278 1050 301 1066 q 244 1010 256 1033 q 230 965 233 986 z "},"Ē":{"ha":742,"x_min":58,"x_max":643,"o":"m 58 917 l 643 917 l 643 735 l 265 735 l 265 548 l 640 548 l 640 372 l 265 372 l 265 182 l 643 182 l 643 0 l 58 0 l 58 917 m 108 1004 l 108 1136 l 560 1136 l 560 1004 l 108 1004 z "},"Ę":{"ha":742,"x_min":58,"x_max":643,"o":"m 58 917 l 643 917 l 643 735 l 265 735 l 265 548 l 640 548 l 640 372 l 265 372 l 265 182 l 643 182 l 643 0 l 58 0 l 58 917 m 447 -301 q 385 -290 417 -301 q 330 -250 353 -278 q 308 -174 308 -222 q 326 -105 308 -142 q 372 -31 345 -67 q 424 29 399 4 l 486 1 q 456 -42 472 -16 q 430 -98 441 -68 q 419 -156 419 -127 q 433 -187 419 -176 q 463 -199 448 -199 q 498 -187 482 -199 q 520 -166 513 -176 l 599 -225 q 541 -276 583 -251 q 447 -301 500 -301 z "},"Ẽ":{"ha":742,"x_min":58,"x_max":643,"o":"m 58 917 l 643 917 l 643 735 l 265 735 l 265 548 l 640 548 l 640 372 l 265 372 l 265 182 l 643 182 l 643 0 l 58 0 l 58 917 m 78 978 q 103 1063 84 1019 q 153 1138 122 1107 q 229 1168 185 1168 q 306 1155 273 1168 q 368 1130 340 1142 q 428 1117 397 1117 q 461 1134 449 1117 q 478 1168 474 1152 l 591 1168 q 565 1084 584 1128 q 515 1009 547 1040 q 440 978 484 978 q 363 991 396 978 q 300 1017 329 1004 q 240 1030 271 1030 q 207 1013 220 1030 q 190 978 194 995 l 78 978 z "},"F":{"ha":667,"x_min":63,"x_max":593,"o":"m 63 917 l 593 917 l 593 735 l 271 735 l 271 550 l 569 550 l 569 369 l 271 369 l 271 0 l 63 0 l 63 917 z "},"G":{"ha":1021,"x_min":28,"x_max":960,"o":"m 492 513 l 960 513 l 960 454 q 927 270 960 356 q 833 120 894 185 q 687 19 772 56 q 499 -17 602 -17 q 307 20 393 -17 q 158 122 220 56 q 62 273 95 187 q 28 459 28 360 q 62 644 28 558 q 158 795 95 731 q 307 897 220 860 q 499 933 393 933 q 652 915 586 933 q 767 865 719 896 q 848 796 815 833 q 903 724 881 759 l 706 631 q 629 707 678 674 q 499 740 580 740 q 396 717 443 740 q 315 657 349 695 q 263 567 281 618 q 244 459 244 516 q 263 351 244 401 q 315 261 281 300 q 396 200 349 222 q 499 178 443 178 q 589 191 549 178 q 659 227 629 203 q 705 283 688 251 q 726 354 722 315 l 492 354 l 492 513 z "},"Ğ":{"ha":1021,"x_min":28,"x_max":960,"o":"m 492 513 l 960 513 l 960 454 q 927 270 960 356 q 833 120 894 185 q 687 19 772 56 q 499 -17 602 -17 q 307 20 393 -17 q 158 122 220 56 q 62 273 95 187 q 28 459 28 360 q 62 644 28 558 q 158 795 95 731 q 307 897 220 860 q 499 933 393 933 q 652 915 586 933 q 767 865 719 896 q 848 796 815 833 q 903 724 881 759 l 706 631 q 629 707 678 674 q 499 740 580 740 q 396 717 443 740 q 315 657 349 695 q 263 567 281 618 q 244 459 244 516 q 263 351 244 401 q 315 261 281 300 q 396 200 349 222 q 499 178 443 178 q 589 191 549 178 q 659 227 629 203 q 705 283 688 251 q 726 354 722 315 l 492 354 l 492 513 m 500 965 q 387 987 436 965 q 309 1050 338 1010 q 273 1142 279 1090 l 395 1173 q 410 1127 398 1151 q 444 1087 422 1103 q 500 1070 466 1070 q 556 1087 533 1070 q 590 1127 578 1103 q 604 1173 602 1151 l 726 1142 q 692 1051 722 1092 q 614 988 663 1011 q 500 965 565 965 z "},"Ǧ":{"ha":1021,"x_min":28,"x_max":960,"o":"m 492 513 l 960 513 l 960 454 q 927 270 960 356 q 833 120 894 185 q 687 19 772 56 q 499 -17 602 -17 q 307 20 393 -17 q 158 122 220 56 q 62 273 95 187 q 28 459 28 360 q 62 644 28 558 q 158 795 95 731 q 307 897 220 860 q 499 933 393 933 q 652 915 586 933 q 767 865 719 896 q 848 796 815 833 q 903 724 881 759 l 706 631 q 629 707 678 674 q 499 740 580 740 q 396 717 443 740 q 315 657 349 695 q 263 567 281 618 q 244 459 244 516 q 263 351 244 401 q 315 261 281 300 q 396 200 349 222 q 499 178 443 178 q 589 191 549 178 q 659 227 629 203 q 705 283 688 251 q 726 354 722 315 l 492 354 l 492 513 m 501 978 l 287 1135 l 353 1223 l 501 1115 l 649 1223 l 714 1135 l 501 978 z "},"Ĝ":{"ha":1021,"x_min":28,"x_max":960,"o":"m 492 513 l 960 513 l 960 454 q 927 270 960 356 q 833 120 894 185 q 687 19 772 56 q 499 -17 602 -17 q 307 20 393 -17 q 158 122 220 56 q 62 273 95 187 q 28 459 28 360 q 62 644 28 558 q 158 795 95 731 q 307 897 220 860 q 499 933 393 933 q 652 915 586 933 q 767 865 719 896 q 848 796 815 833 q 903 724 881 759 l 706 631 q 629 707 678 674 q 499 740 580 740 q 396 717 443 740 q 315 657 349 695 q 263 567 281 618 q 244 459 244 516 q 263 351 244 401 q 315 261 281 300 q 396 200 349 222 q 499 178 443 178 q 589 191 549 178 q 659 227 629 203 q 705 283 688 251 q 726 354 722 315 l 492 354 l 492 513 m 331 970 l 255 1071 l 500 1250 l 744 1070 l 669 970 l 500 1094 l 331 970 z "},"Ģ":{"ha":1021,"x_min":28,"x_max":960,"o":"m 492 513 l 960 513 l 960 454 q 927 270 960 356 q 833 120 894 185 q 687 19 772 56 q 499 -17 602 -17 q 307 20 393 -17 q 158 122 220 56 q 62 273 95 187 q 28 459 28 360 q 62 644 28 558 q 158 795 95 731 q 307 897 220 860 q 499 933 393 933 q 652 915 586 933 q 767 865 719 896 q 848 796 815 833 q 903 724 881 759 l 706 631 q 629 707 678 674 q 499 740 580 740 q 396 717 443 740 q 315 657 349 695 q 263 567 281 618 q 244 459 244 516 q 263 351 244 401 q 315 261 281 300 q 396 200 349 222 q 499 178 443 178 q 589 191 549 178 q 659 227 629 203 q 705 283 688 251 q 726 354 722 315 l 492 354 l 492 513 m 472 -406 l 427 -356 q 490 -310 456 -341 q 535 -242 525 -279 q 505 -248 524 -248 q 445 -222 472 -248 q 418 -151 418 -196 q 448 -79 418 -108 q 519 -50 478 -50 q 592 -79 562 -50 q 622 -165 622 -108 q 601 -261 622 -214 q 546 -347 580 -309 q 472 -406 512 -385 z "},"Ġ":{"ha":1021,"x_min":28,"x_max":960,"o":"m 492 513 l 960 513 l 960 454 q 927 270 960 356 q 833 120 894 185 q 687 19 772 56 q 499 -17 602 -17 q 307 20 393 -17 q 158 122 220 56 q 62 273 95 187 q 28 459 28 360 q 62 644 28 558 q 158 795 95 731 q 307 897 220 860 q 499 933 393 933 q 652 915 586 933 q 767 865 719 896 q 848 796 815 833 q 903 724 881 759 l 706 631 q 629 707 678 674 q 499 740 580 740 q 396 717 443 740 q 315 657 349 695 q 263 567 281 618 q 244 459 244 516 q 263 351 244 401 q 315 261 281 300 q 396 200 349 222 q 499 178 443 178 q 589 191 549 178 q 659 227 629 203 q 705 283 688 251 q 726 354 722 315 l 492 354 l 492 513 m 500 991 q 428 1021 458 991 q 399 1093 399 1051 q 428 1165 399 1135 q 500 1195 458 1195 q 572 1165 542 1195 q 601 1093 601 1135 q 572 1021 601 1051 q 500 991 542 991 z "},"H":{"ha":887,"x_min":58,"x_max":788,"o":"m 581 369 l 265 369 l 265 0 l 58 0 l 58 917 l 265 917 l 265 550 l 581 550 l 581 917 l 788 917 l 788 0 l 581 0 l 581 369 z "},"Ħ":{"ha":887,"x_min":-2,"x_max":843,"o":"m -2 806 l 843 806 l 843 672 l -2 672 l -2 806 m 581 369 l 265 369 l 265 0 l 58 0 l 58 917 l 265 917 l 265 550 l 581 550 l 581 917 l 788 917 l 788 0 l 581 0 l 581 369 z "},"Ĥ":{"ha":887,"x_min":58,"x_max":788,"o":"m 581 369 l 265 369 l 265 0 l 58 0 l 58 917 l 265 917 l 265 550 l 581 550 l 581 917 l 788 917 l 788 0 l 581 0 l 581 369 m 253 970 l 178 1071 l 423 1250 l 667 1070 l 592 970 l 423 1094 l 253 970 z "},"I":{"ha":376,"x_min":65,"x_max":273,"o":"m 65 917 l 273 917 l 273 0 l 65 0 l 65 917 z "},"Í":{"ha":376,"x_min":47,"x_max":374,"o":"m 65 917 l 273 917 l 273 0 l 65 0 l 65 917 m 110 956 l 48 1040 l 274 1235 l 374 1109 l 110 956 z "},"Ĭ":{"ha":376,"x_min":-58,"x_max":396,"o":"m 65 917 l 273 917 l 273 0 l 65 0 l 65 917 m 169 965 q 56 987 105 965 q -23 1050 7 1010 q -58 1142 -52 1090 l 64 1173 q 78 1127 67 1151 q 113 1087 90 1103 q 169 1070 135 1070 q 224 1087 202 1070 q 259 1127 247 1103 q 273 1173 271 1151 l 395 1142 q 361 1051 390 1092 q 283 988 332 1011 q 169 965 234 965 z "},"Î":{"ha":376,"x_min":-76,"x_max":413,"o":"m 65 917 l 273 917 l 273 0 l 65 0 l 65 917 m -1 970 l -76 1071 l 169 1250 l 413 1070 l 338 970 l 169 1094 l -1 970 z "},"Ȉ":{"ha":376,"x_min":-162,"x_max":458,"o":"m 65 917 l 273 917 l 273 0 l 65 0 l 65 917 m 396 956 l 132 1109 l 232 1235 l 458 1041 l 396 956 m 102 956 l -162 1109 l -62 1235 l 165 1041 l 102 956 z "},"Ï":{"ha":376,"x_min":-72,"x_max":410,"o":"m 65 917 l 273 917 l 273 0 l 65 0 l 65 917 m 308 972 q 236 1002 266 972 q 207 1074 207 1033 q 236 1146 207 1116 q 308 1176 266 1176 q 380 1146 351 1176 q 410 1074 410 1116 q 380 1002 410 1032 q 308 972 351 972 m 29 972 q -43 1002 -13 972 q -72 1074 -72 1033 q -43 1146 -72 1116 q 29 1176 -13 1176 q 101 1146 71 1176 q 131 1074 131 1116 q 101 1002 131 1032 q 29 972 71 972 z "},"İ":{"ha":376,"x_min":65,"x_max":273,"o":"m 65 917 l 273 917 l 273 0 l 65 0 l 65 917 m 169 991 q 97 1021 126 991 q 67 1093 67 1051 q 97 1165 67 1135 q 169 1195 126 1195 q 240 1165 210 1195 q 270 1093 270 1135 q 240 1021 270 1051 q 169 991 210 991 z "},"Ị":{"ha":376,"x_min":65,"x_max":273,"o":"m 65 917 l 273 917 l 273 0 l 65 0 l 65 917 m 168 -222 q 111 -198 135 -222 q 88 -142 88 -174 q 111 -85 88 -109 q 168 -61 135 -61 q 224 -85 201 -61 q 248 -142 248 -109 q 224 -198 248 -175 q 168 -222 201 -222 z "},"Ì":{"ha":376,"x_min":-50,"x_max":276,"o":"m 65 917 l 273 917 l 273 0 l 65 0 l 65 917 m 213 956 l -51 1109 l 50 1235 l 276 1040 l 213 956 z "},"Ỉ":{"ha":376,"x_min":10,"x_max":326,"o":"m 65 917 l 273 917 l 273 0 l 65 0 l 65 917 m 147 965 l 96 1033 q 136 1047 111 1036 q 180 1075 160 1058 q 199 1113 199 1092 q 189 1146 199 1135 q 161 1160 178 1157 q 122 1163 144 1163 q 62 1153 92 1163 q 10 1134 31 1143 l 10 1226 q 55 1244 23 1233 q 149 1255 88 1255 q 234 1243 194 1255 q 301 1203 275 1231 q 326 1127 326 1175 q 307 1063 326 1090 q 257 1015 287 1035 q 198 984 228 996 q 147 965 167 972 z "},"Ȋ":{"ha":376,"x_min":-57,"x_max":394,"o":"m 65 917 l 273 917 l 273 0 l 65 0 l 65 917 m 64 965 l -57 994 q -23 1085 -51 1045 q 55 1148 6 1125 q 168 1172 104 1172 q 280 1149 231 1172 q 358 1087 328 1126 q 394 994 388 1047 l 272 965 q 258 1010 269 986 q 224 1050 246 1033 q 168 1066 201 1066 q 113 1050 135 1066 q 78 1010 90 1033 q 64 965 67 986 z "},"Ī":{"ha":376,"x_min":-58,"x_max":395,"o":"m 65 917 l 273 917 l 273 0 l 65 0 l 65 917 m -58 1004 l -58 1136 l 395 1136 l 395 1004 l -58 1004 z "},"Į":{"ha":376,"x_min":26,"x_max":317,"o":"m 65 917 l 273 917 l 273 0 l 65 0 l 65 917 m 165 -302 q 103 -290 135 -302 q 48 -251 71 -278 q 26 -175 26 -223 q 44 -105 26 -143 q 90 -32 63 -67 q 142 28 117 3 l 204 0 q 174 -42 190 -17 q 148 -97 159 -68 q 137 -153 137 -126 q 150 -189 137 -178 q 183 -199 164 -199 q 216 -188 201 -199 q 238 -167 231 -177 l 317 -226 q 259 -277 301 -251 q 165 -302 218 -302 z "},"Ĩ":{"ha":376,"x_min":-88,"x_max":425,"o":"m 65 917 l 273 917 l 273 0 l 65 0 l 65 917 m -88 978 q -63 1063 -82 1019 q -12 1138 -44 1107 q 63 1168 19 1168 q 140 1155 107 1168 q 202 1130 174 1142 q 263 1117 231 1117 q 295 1134 283 1117 q 313 1168 308 1152 l 425 1168 q 399 1084 418 1128 q 349 1009 381 1040 q 274 978 318 978 q 197 991 230 978 q 134 1017 163 1004 q 74 1030 105 1030 q 41 1013 54 1030 q 24 978 28 995 l -88 978 z "},"J":{"ha":570,"x_min":-24,"x_max":485,"o":"m 485 282 q 450 121 485 188 q 350 19 415 54 q 197 -17 285 -17 q 85 0 133 -17 q 10 35 38 16 q -24 64 -17 54 l 54 244 q 78 218 63 232 q 115 194 93 204 q 165 184 138 184 q 222 197 197 184 q 262 241 247 210 q 277 322 277 272 l 277 917 l 485 917 l 485 282 z "},"Ĵ":{"ha":570,"x_min":-24,"x_max":630,"o":"m 485 282 q 450 121 485 188 q 350 19 415 54 q 197 -17 285 -17 q 85 0 133 -17 q 10 35 38 16 q -24 64 -17 54 l 54 244 q 78 218 63 232 q 115 194 93 204 q 165 184 138 184 q 222 197 197 184 q 262 241 247 210 q 277 322 277 272 l 277 917 l 485 917 l 485 282 m 215 970 l 140 1071 l 385 1250 l 629 1070 l 554 970 l 385 1094 l 215 970 z "},"K":{"ha":804,"x_min":43,"x_max":781,"o":"m 432 474 l 781 0 l 533 0 l 251 401 l 251 0 l 43 0 l 43 917 l 251 917 l 251 542 l 510 917 l 744 917 l 432 474 z "},"Ķ":{"ha":804,"x_min":43,"x_max":781,"o":"m 432 474 l 781 0 l 533 0 l 251 401 l 251 0 l 43 0 l 43 917 l 251 917 l 251 542 l 510 917 l 744 917 l 432 474 m 351 -406 l 306 -356 q 369 -310 334 -341 q 414 -242 403 -279 q 383 -248 403 -248 q 323 -222 350 -248 q 297 -151 297 -196 q 327 -79 297 -108 q 398 -50 357 -50 q 470 -79 440 -50 q 500 -165 500 -108 q 479 -261 500 -214 q 424 -347 458 -309 q 351 -406 390 -385 z "},"L":{"ha":681,"x_min":63,"x_max":603,"o":"m 63 917 l 271 917 l 271 182 l 603 182 l 603 0 l 63 0 l 63 917 z "},"Ǉ":{"ha":1251,"x_min":63,"x_max":1166,"o":"m 63 917 l 271 917 l 271 182 l 603 182 l 603 0 l 63 0 l 63 917 m 1165 282 q 1130 121 1165 188 q 1030 19 1095 54 q 877 -17 965 -17 q 766 0 813 -17 q 691 35 719 16 q 657 64 663 54 l 735 244 q 758 218 743 232 q 796 194 774 204 q 846 184 818 184 q 903 197 878 184 q 943 241 928 210 q 958 322 958 272 l 958 917 l 1165 917 l 1165 282 z "},"Ĺ":{"ha":681,"x_min":63,"x_max":603,"o":"m 63 917 l 271 917 l 271 182 l 603 182 l 603 0 l 63 0 l 63 917 m 252 956 l 190 1040 l 415 1235 l 516 1109 l 252 956 z "},"Ľ":{"ha":681,"x_min":63,"x_max":699,"o":"m 579 626 l 543 667 q 593 704 566 679 q 630 758 620 728 q 605 754 621 754 q 557 775 578 754 q 535 832 535 795 q 559 890 535 866 q 617 913 583 913 q 675 890 651 913 q 699 821 699 867 q 682 743 699 781 q 638 674 665 705 q 579 626 611 644 m 63 917 l 271 917 l 271 182 l 603 182 l 603 0 l 63 0 l 63 917 z "},"Ļ":{"ha":681,"x_min":63,"x_max":603,"o":"m 63 917 l 271 917 l 271 182 l 603 182 l 603 0 l 63 0 l 63 917 m 285 -406 l 240 -356 q 303 -310 269 -341 q 349 -242 338 -279 q 318 -248 338 -248 q 258 -222 285 -248 q 231 -151 231 -196 q 261 -79 231 -108 q 333 -50 292 -50 q 405 -79 375 -50 q 435 -165 435 -108 q 414 -261 435 -214 q 359 -347 393 -309 q 285 -406 325 -385 z "},"Ŀ":{"ha":681,"x_min":63,"x_max":610,"o":"m 63 917 l 271 917 l 271 182 l 603 182 l 603 0 l 63 0 l 63 917 m 483 358 q 394 395 431 358 q 357 484 357 433 q 394 574 357 537 q 483 611 431 611 q 572 574 535 611 q 609 484 609 537 q 572 395 609 433 q 483 358 535 358 z "},"ǈ":{"ha":1054,"x_min":63,"x_max":983,"o":"m 63 917 l 271 917 l 271 182 l 603 182 l 603 0 l 63 0 l 63 917 m 745 -306 q 642 -293 683 -306 q 581 -269 601 -281 l 646 -112 q 669 -125 657 -121 q 698 -128 682 -128 q 730 -118 717 -128 q 749 -87 742 -108 q 756 -37 756 -67 l 756 570 l 967 570 l 967 -70 q 944 -190 967 -136 q 872 -274 921 -243 q 745 -306 824 -306 m 863 688 q 779 723 814 688 q 744 806 744 758 q 760 866 744 839 q 803 910 776 893 q 863 926 830 926 q 923 910 896 926 q 966 867 950 894 q 983 806 983 840 q 948 723 983 758 q 863 688 913 688 z "},"Ł":{"ha":709,"x_min":21,"x_max":628,"o":"m 106 0 l 106 344 l 21 279 l 21 448 l 106 514 l 106 917 l 313 917 l 313 676 l 428 769 l 428 599 l 313 508 l 313 182 l 628 182 l 628 0 l 106 0 z "},"M":{"ha":1142,"x_min":56,"x_max":1034,"o":"m 1034 917 l 1034 0 l 827 0 l 827 540 l 836 693 l 801 517 l 647 74 l 443 74 l 290 517 l 255 693 l 264 540 l 264 0 l 56 0 l 56 917 l 348 917 l 533 305 l 545 232 l 558 305 l 742 917 l 1034 917 z "},"N":{"ha":1004,"x_min":58,"x_max":905,"o":"m 250 726 l 265 724 l 265 0 l 58 0 l 58 917 l 341 917 l 713 194 l 697 192 l 697 917 l 905 917 l 905 0 l 620 0 l 250 726 z "},"Ǌ":{"ha":1574,"x_min":58,"x_max":1489,"o":"m 250 726 l 265 724 l 265 0 l 58 0 l 58 917 l 341 917 l 713 194 l 697 192 l 697 917 l 905 917 l 905 0 l 620 0 l 250 726 m 1489 282 q 1454 121 1489 188 q 1354 19 1419 54 q 1201 -17 1289 -17 q 1090 0 1137 -17 q 1015 35 1042 16 q 981 64 987 54 l 1058 244 q 1082 218 1067 232 q 1119 194 1097 204 q 1169 184 1142 184 q 1226 197 1201 184 q 1266 241 1251 210 q 1281 322 1281 272 l 1281 917 l 1489 917 l 1489 282 z "},"Ń":{"ha":1004,"x_min":58,"x_max":905,"o":"m 250 726 l 265 724 l 265 0 l 58 0 l 58 917 l 341 917 l 713 194 l 697 192 l 697 917 l 905 917 l 905 0 l 620 0 l 250 726 m 430 956 l 367 1040 l 593 1235 l 694 1109 l 430 956 z "},"Ň":{"ha":1004,"x_min":58,"x_max":905,"o":"m 250 726 l 265 724 l 265 0 l 58 0 l 58 917 l 341 917 l 713 194 l 697 192 l 697 917 l 905 917 l 905 0 l 620 0 l 250 726 m 489 978 l 275 1135 l 341 1223 l 489 1115 l 637 1223 l 702 1135 l 489 978 z "},"Ņ":{"ha":1004,"x_min":58,"x_max":905,"o":"m 250 726 l 265 724 l 265 0 l 58 0 l 58 917 l 341 917 l 713 194 l 697 192 l 697 917 l 905 917 l 905 0 l 620 0 l 250 726 m 441 -406 l 396 -356 q 459 -310 424 -341 q 504 -242 494 -279 q 474 -248 493 -248 q 414 -222 440 -248 q 387 -151 387 -196 q 417 -79 387 -108 q 488 -50 447 -50 q 560 -79 531 -50 q 590 -165 590 -108 q 569 -261 590 -214 q 515 -347 549 -309 q 441 -406 481 -385 z "},"ǋ":{"ha":1377,"x_min":58,"x_max":1306,"o":"m 250 726 l 265 724 l 265 0 l 58 0 l 58 917 l 341 917 l 713 194 l 697 192 l 697 917 l 905 917 l 905 0 l 620 0 l 250 726 m 1069 -306 q 966 -293 1006 -306 q 905 -269 925 -281 l 969 -112 q 993 -125 981 -121 q 1022 -128 1006 -128 q 1053 -118 1040 -128 q 1073 -87 1066 -108 q 1079 -37 1079 -67 l 1079 570 l 1290 570 l 1290 -70 q 1267 -190 1290 -136 q 1196 -274 1244 -243 q 1069 -306 1147 -306 m 1186 688 q 1102 723 1138 688 q 1067 806 1067 758 q 1083 866 1067 839 q 1126 910 1099 893 q 1186 926 1153 926 q 1247 910 1219 926 q 1290 867 1274 894 q 1306 806 1306 840 q 1271 723 1306 758 q 1186 688 1236 688 z "},"Ñ":{"ha":1004,"x_min":58,"x_max":905,"o":"m 250 726 l 265 724 l 265 0 l 58 0 l 58 917 l 341 917 l 713 194 l 697 192 l 697 917 l 905 917 l 905 0 l 620 0 l 250 726 m 243 1027 q 269 1112 250 1068 q 319 1186 288 1156 q 394 1217 351 1217 q 472 1204 438 1217 q 534 1178 505 1191 q 594 1165 563 1165 q 627 1183 614 1165 q 644 1217 640 1201 l 756 1217 q 731 1132 750 1176 q 681 1058 712 1088 q 605 1027 649 1027 q 528 1040 562 1027 q 466 1065 495 1053 q 406 1078 436 1078 q 373 1060 386 1078 q 356 1027 360 1043 l 243 1027 z "},"Ŋ":{"ha":1005,"x_min":58,"x_max":905,"o":"m 905 0 l 690 0 l 690 -28 q 673 -94 690 -71 q 627 -117 656 -117 q 597 -112 613 -117 q 572 -103 581 -108 l 503 -265 q 568 -289 525 -275 q 681 -303 611 -303 q 810 -262 761 -303 q 882 -157 859 -222 q 905 -21 905 -93 l 905 0 m 250 726 l 265 724 l 265 0 l 58 0 l 58 917 l 341 917 l 713 194 l 697 192 l 697 917 l 905 917 l 905 0 l 620 0 l 250 726 z "},"O":{"ha":1031,"x_min":28,"x_max":969,"o":"m 244 459 q 277 317 244 381 q 366 216 309 253 q 499 178 424 178 q 632 216 575 178 q 722 317 690 253 q 754 459 754 381 q 722 601 754 538 q 632 702 690 664 q 499 740 575 740 q 366 702 424 740 q 277 601 309 664 q 244 459 244 538 m 28 459 q 64 645 28 559 q 163 797 99 732 q 313 897 227 861 q 499 933 399 933 q 686 897 601 933 q 836 797 772 861 q 934 645 899 732 q 969 459 969 559 q 935 272 969 358 q 838 120 901 185 q 689 19 775 56 q 499 -17 603 -17 q 307 19 394 -17 q 158 120 221 56 q 62 272 96 185 q 28 459 28 358 z "},"Ó":{"ha":1031,"x_min":28,"x_max":969,"o":"m 244 459 q 277 317 244 381 q 366 216 309 253 q 499 178 424 178 q 632 216 575 178 q 722 317 690 253 q 754 459 754 381 q 722 601 754 538 q 632 702 690 664 q 499 740 575 740 q 366 702 424 740 q 277 601 309 664 q 244 459 244 538 m 28 459 q 64 645 28 559 q 163 797 99 732 q 313 897 227 861 q 499 933 399 933 q 686 897 601 933 q 836 797 772 861 q 934 645 899 732 q 969 459 969 559 q 935 272 969 358 q 838 120 901 185 q 689 19 775 56 q 499 -17 603 -17 q 307 19 394 -17 q 158 120 221 56 q 62 272 96 185 q 28 459 28 358 m 440 956 l 378 1040 l 603 1235 l 704 1109 l 440 956 z "},"Ŏ":{"ha":1031,"x_min":28,"x_max":969,"o":"m 244 459 q 277 317 244 381 q 366 216 309 253 q 499 178 424 178 q 632 216 575 178 q 722 317 690 253 q 754 459 754 381 q 722 601 754 538 q 632 702 690 664 q 499 740 575 740 q 366 702 424 740 q 277 601 309 664 q 244 459 244 538 m 28 459 q 64 645 28 559 q 163 797 99 732 q 313 897 227 861 q 499 933 399 933 q 686 897 601 933 q 836 797 772 861 q 934 645 899 732 q 969 459 969 559 q 935 272 969 358 q 838 120 901 185 q 689 19 775 56 q 499 -17 603 -17 q 307 19 394 -17 q 158 120 221 56 q 62 272 96 185 q 28 459 28 358 m 499 965 q 386 987 435 965 q 308 1050 338 1010 q 272 1142 278 1090 l 394 1173 q 409 1127 397 1151 q 443 1087 421 1103 q 499 1070 465 1070 q 555 1087 533 1070 q 589 1127 577 1103 q 603 1173 601 1151 l 726 1142 q 692 1051 721 1092 q 614 988 663 1011 q 499 965 565 965 z "},"Ô":{"ha":1031,"x_min":28,"x_max":969,"o":"m 244 459 q 277 317 244 381 q 366 216 309 253 q 499 178 424 178 q 632 216 575 178 q 722 317 690 253 q 754 459 754 381 q 722 601 754 538 q 632 702 690 664 q 499 740 575 740 q 366 702 424 740 q 277 601 309 664 q 244 459 244 538 m 28 459 q 64 645 28 559 q 163 797 99 732 q 313 897 227 861 q 499 933 399 933 q 686 897 601 933 q 836 797 772 861 q 934 645 899 732 q 969 459 969 559 q 935 272 969 358 q 838 120 901 185 q 689 19 775 56 q 499 -17 603 -17 q 307 19 394 -17 q 158 120 221 56 q 62 272 96 185 q 28 459 28 358 m 329 970 l 253 1071 l 499 1250 l 743 1070 l 668 970 l 499 1094 l 329 970 z "},"Ố":{"ha":1031,"x_min":28,"x_max":969,"o":"m 244 459 q 277 317 244 381 q 366 216 309 253 q 499 178 424 178 q 632 216 575 178 q 722 317 690 253 q 754 459 754 381 q 722 601 754 538 q 632 702 690 664 q 499 740 575 740 q 366 702 424 740 q 277 601 309 664 q 244 459 244 538 m 28 459 q 64 645 28 559 q 163 797 99 732 q 313 897 227 861 q 499 933 399 933 q 686 897 601 933 q 836 797 772 861 q 934 645 899 732 q 969 459 969 559 q 935 272 969 358 q 838 120 901 185 q 689 19 775 56 q 499 -17 603 -17 q 307 19 394 -17 q 158 120 221 56 q 62 272 96 185 q 28 459 28 358 m 669 963 l 500 1086 l 331 963 l 255 1063 l 500 1242 l 745 1063 l 669 963 m 676 1167 l 615 1251 l 840 1447 l 940 1320 l 676 1167 z "},"Ộ":{"ha":1031,"x_min":28,"x_max":969,"o":"m 244 459 q 277 317 244 381 q 366 216 309 253 q 499 178 424 178 q 632 216 575 178 q 722 317 690 253 q 754 459 754 381 q 722 601 754 538 q 632 702 690 664 q 499 740 575 740 q 366 702 424 740 q 277 601 309 664 q 244 459 244 538 m 28 459 q 64 645 28 559 q 163 797 99 732 q 313 897 227 861 q 499 933 399 933 q 686 897 601 933 q 836 797 772 861 q 934 645 899 732 q 969 459 969 559 q 935 272 969 358 q 838 120 901 185 q 689 19 775 56 q 499 -17 603 -17 q 307 19 394 -17 q 158 120 221 56 q 62 272 96 185 q 28 459 28 358 m 499 -268 q 442 -244 465 -268 q 419 -188 419 -221 q 442 -132 419 -156 q 499 -108 465 -108 q 555 -132 531 -108 q 578 -188 578 -156 q 555 -245 578 -222 q 499 -268 531 -268 m 329 970 l 253 1071 l 499 1250 l 743 1070 l 668 970 l 499 1094 l 329 970 z "},"Ồ":{"ha":1031,"x_min":28,"x_max":969,"o":"m 244 459 q 277 317 244 381 q 366 216 309 253 q 499 178 424 178 q 632 216 575 178 q 722 317 690 253 q 754 459 754 381 q 722 601 754 538 q 632 702 690 664 q 499 740 575 740 q 366 702 424 740 q 277 601 309 664 q 244 459 244 538 m 28 459 q 64 645 28 559 q 163 797 99 732 q 313 897 227 861 q 499 933 399 933 q 686 897 601 933 q 836 797 772 861 q 934 645 899 732 q 969 459 969 559 q 935 272 969 358 q 838 120 901 185 q 689 19 775 56 q 499 -17 603 -17 q 307 19 394 -17 q 158 120 221 56 q 62 272 96 185 q 28 459 28 358 m 670 965 l 501 1089 l 331 965 l 256 1065 l 501 1244 l 746 1065 l 670 965 m 785 1155 l 522 1308 l 622 1435 l 847 1240 l 785 1155 z "},"Ổ":{"ha":1031,"x_min":28,"x_max":969,"o":"m 244 459 q 277 317 244 381 q 366 216 309 253 q 499 178 424 178 q 632 216 575 178 q 722 317 690 253 q 754 459 754 381 q 722 601 754 538 q 632 702 690 664 q 499 740 575 740 q 366 702 424 740 q 277 601 309 664 q 244 459 244 538 m 28 459 q 64 645 28 559 q 163 797 99 732 q 313 897 227 861 q 499 933 399 933 q 686 897 601 933 q 836 797 772 861 q 934 645 899 732 q 969 459 969 559 q 935 272 969 358 q 838 120 901 185 q 689 19 775 56 q 499 -17 603 -17 q 307 19 394 -17 q 158 120 221 56 q 62 272 96 185 q 28 459 28 358 m 639 1183 l 588 1262 q 628 1279 603 1266 q 672 1312 653 1292 q 692 1358 692 1332 q 681 1395 692 1383 q 653 1410 671 1407 q 615 1414 636 1414 q 554 1403 585 1414 q 503 1382 524 1392 l 503 1489 q 548 1510 515 1497 q 642 1522 580 1522 q 727 1508 686 1522 q 793 1461 767 1494 q 819 1374 819 1429 q 799 1298 819 1331 q 750 1242 779 1265 q 690 1205 720 1219 q 639 1183 660 1190 m 671 963 l 501 1086 l 332 963 l 256 1063 l 501 1242 l 747 1063 l 671 963 z "},"Ỗ":{"ha":1031,"x_min":28,"x_max":969,"o":"m 244 459 q 277 317 244 381 q 366 216 309 253 q 499 178 424 178 q 632 216 575 178 q 722 317 690 253 q 754 459 754 381 q 722 601 754 538 q 632 702 690 664 q 499 740 575 740 q 366 702 424 740 q 277 601 309 664 q 244 459 244 538 m 28 459 q 64 645 28 559 q 163 797 99 732 q 313 897 227 861 q 499 933 399 933 q 686 897 601 933 q 836 797 772 861 q 934 645 899 732 q 969 459 969 559 q 935 272 969 358 q 838 120 901 185 q 689 19 775 56 q 499 -17 603 -17 q 307 19 394 -17 q 158 120 221 56 q 62 272 96 185 q 28 459 28 358 m 250 1263 q 275 1347 256 1303 q 326 1422 294 1391 q 401 1452 357 1452 q 478 1439 445 1452 q 541 1414 512 1426 q 601 1401 569 1401 q 634 1418 621 1401 q 651 1452 647 1436 l 763 1452 q 738 1367 756 1411 q 688 1293 719 1324 q 612 1263 656 1263 q 535 1275 568 1263 q 472 1301 501 1288 q 412 1313 443 1313 q 380 1296 392 1313 q 362 1263 367 1278 l 250 1263 m 667 963 l 498 1086 l 328 963 l 253 1063 l 498 1242 l 743 1063 l 667 963 z "},"Ȍ":{"ha":1031,"x_min":28,"x_max":969,"o":"m 244 459 q 277 317 244 381 q 366 216 309 253 q 499 178 424 178 q 632 216 575 178 q 722 317 690 253 q 754 459 754 381 q 722 601 754 538 q 632 702 690 664 q 499 740 575 740 q 366 702 424 740 q 277 601 309 664 q 244 459 244 538 m 28 459 q 64 645 28 559 q 163 797 99 732 q 313 897 227 861 q 499 933 399 933 q 686 897 601 933 q 836 797 772 861 q 934 645 899 732 q 969 459 969 559 q 935 272 969 358 q 838 120 901 185 q 689 19 775 56 q 499 -17 603 -17 q 307 19 394 -17 q 158 120 221 56 q 62 272 96 185 q 28 459 28 358 m 726 956 l 462 1109 l 562 1235 l 788 1041 l 726 956 m 432 956 l 168 1109 l 268 1235 l 494 1041 l 432 956 z "},"Ö":{"ha":1031,"x_min":28,"x_max":969,"o":"m 244 459 q 277 317 244 381 q 366 216 309 253 q 499 178 424 178 q 632 216 575 178 q 722 317 690 253 q 754 459 754 381 q 722 601 754 538 q 632 702 690 664 q 499 740 575 740 q 366 702 424 740 q 277 601 309 664 q 244 459 244 538 m 28 459 q 64 645 28 559 q 163 797 99 732 q 313 897 227 861 q 499 933 399 933 q 686 897 601 933 q 836 797 772 861 q 934 645 899 732 q 969 459 969 559 q 935 272 969 358 q 838 120 901 185 q 689 19 775 56 q 499 -17 603 -17 q 307 19 394 -17 q 158 120 221 56 q 62 272 96 185 q 28 459 28 358 m 639 972 q 567 1002 597 972 q 538 1074 538 1033 q 567 1146 538 1116 q 639 1176 597 1176 q 711 1146 681 1176 q 740 1074 740 1116 q 711 1002 740 1032 q 639 972 681 972 m 360 972 q 288 1002 317 972 q 258 1074 258 1033 q 288 1146 258 1116 q 360 1176 317 1176 q 431 1146 401 1176 q 461 1074 461 1116 q 431 1002 461 1032 q 360 972 401 972 z "},"Ȫ":{"ha":1031,"x_min":28,"x_max":969,"o":"m 244 459 q 277 317 244 381 q 366 216 309 253 q 499 178 424 178 q 632 216 575 178 q 722 317 690 253 q 754 459 754 381 q 722 601 754 538 q 632 702 690 664 q 499 740 575 740 q 366 702 424 740 q 277 601 309 664 q 244 459 244 538 m 28 459 q 64 645 28 559 q 163 797 99 732 q 313 897 227 861 q 499 933 399 933 q 686 897 601 933 q 836 797 772 861 q 934 645 899 732 q 969 459 969 559 q 935 272 969 358 q 838 120 901 185 q 689 19 775 56 q 499 -17 603 -17 q 307 19 394 -17 q 158 120 221 56 q 62 272 96 185 q 28 459 28 358 m 639 972 q 567 1002 597 972 q 538 1074 538 1033 q 567 1146 538 1116 q 639 1176 597 1176 q 711 1146 681 1176 q 740 1074 740 1116 q 711 1002 740 1032 q 639 972 681 972 m 360 972 q 288 1002 317 972 q 258 1074 258 1033 q 288 1146 258 1116 q 360 1176 317 1176 q 431 1146 401 1176 q 461 1074 461 1116 q 431 1002 461 1032 q 360 972 401 972 m 272 1264 l 272 1396 l 725 1396 l 725 1264 l 272 1264 z "},"Ȱ":{"ha":1031,"x_min":28,"x_max":969,"o":"m 244 459 q 277 317 244 381 q 366 216 309 253 q 499 178 424 178 q 632 216 575 178 q 722 317 690 253 q 754 459 754 381 q 722 601 754 538 q 632 702 690 664 q 499 740 575 740 q 366 702 424 740 q 277 601 309 664 q 244 459 244 538 m 28 459 q 64 645 28 559 q 163 797 99 732 q 313 897 227 861 q 499 933 399 933 q 686 897 601 933 q 836 797 772 861 q 934 645 899 732 q 969 459 969 559 q 935 272 969 358 q 838 120 901 185 q 689 19 775 56 q 499 -17 603 -17 q 307 19 394 -17 q 158 120 221 56 q 62 272 96 185 q 28 459 28 358 m 499 991 q 427 1021 456 991 q 397 1093 397 1051 q 427 1165 397 1135 q 499 1195 456 1195 q 570 1165 540 1195 q 600 1093 600 1135 q 570 1021 600 1051 q 499 991 540 991 m 272 1251 l 272 1383 l 725 1383 l 725 1251 l 272 1251 z "},"Ọ":{"ha":1031,"x_min":28,"x_max":969,"o":"m 244 459 q 277 317 244 381 q 366 216 309 253 q 499 178 424 178 q 632 216 575 178 q 722 317 690 253 q 754 459 754 381 q 722 601 754 538 q 632 702 690 664 q 499 740 575 740 q 366 702 424 740 q 277 601 309 664 q 244 459 244 538 m 28 459 q 64 645 28 559 q 163 797 99 732 q 313 897 227 861 q 499 933 399 933 q 686 897 601 933 q 836 797 772 861 q 934 645 899 732 q 969 459 969 559 q 935 272 969 358 q 838 120 901 185 q 689 19 775 56 q 499 -17 603 -17 q 307 19 394 -17 q 158 120 221 56 q 62 272 96 185 q 28 459 28 358 m 499 -268 q 442 -244 465 -268 q 419 -188 419 -221 q 442 -132 419 -156 q 499 -108 465 -108 q 555 -132 531 -108 q 578 -188 578 -156 q 555 -245 578 -222 q 499 -268 531 -268 z "},"Ò":{"ha":1031,"x_min":28,"x_max":969,"o":"m 244 459 q 277 317 244 381 q 366 216 309 253 q 499 178 424 178 q 632 216 575 178 q 722 317 690 253 q 754 459 754 381 q 722 601 754 538 q 632 702 690 664 q 499 740 575 740 q 366 702 424 740 q 277 601 309 664 q 244 459 244 538 m 28 459 q 64 645 28 559 q 163 797 99 732 q 313 897 227 861 q 499 933 399 933 q 686 897 601 933 q 836 797 772 861 q 934 645 899 732 q 969 459 969 559 q 935 272 969 358 q 838 120 901 185 q 689 19 775 56 q 499 -17 603 -17 q 307 19 394 -17 q 158 120 221 56 q 62 272 96 185 q 28 459 28 358 m 544 956 l 280 1109 l 381 1235 l 606 1040 l 544 956 z "},"Ỏ":{"ha":1031,"x_min":28,"x_max":969,"o":"m 244 459 q 277 317 244 381 q 366 216 309 253 q 499 178 424 178 q 632 216 575 178 q 722 317 690 253 q 754 459 754 381 q 722 601 754 538 q 632 702 690 664 q 499 740 575 740 q 366 702 424 740 q 277 601 309 664 q 244 459 244 538 m 28 459 q 64 645 28 559 q 163 797 99 732 q 313 897 227 861 q 499 933 399 933 q 686 897 601 933 q 836 797 772 861 q 934 645 899 732 q 969 459 969 559 q 935 272 969 358 q 838 120 901 185 q 689 19 775 56 q 499 -17 603 -17 q 307 19 394 -17 q 158 120 221 56 q 62 272 96 185 q 28 459 28 358 m 477 965 l 426 1033 q 466 1047 442 1036 q 510 1075 491 1058 q 530 1113 530 1092 q 519 1146 530 1135 q 492 1160 509 1157 q 453 1163 474 1163 q 392 1153 423 1163 q 341 1134 362 1143 l 341 1226 q 386 1244 353 1233 q 480 1255 418 1255 q 565 1243 524 1255 q 631 1203 606 1231 q 657 1127 657 1175 q 637 1063 657 1090 q 588 1015 617 1035 q 528 984 558 996 q 477 965 498 972 z "},"Ơ":{"ha":1031,"x_min":28,"x_max":1050,"o":"m 244 459 q 277 317 244 381 q 366 216 309 253 q 499 178 424 178 q 632 216 575 178 q 722 317 690 253 q 754 459 754 381 q 722 601 754 538 q 632 702 690 664 q 499 740 575 740 q 366 702 424 740 q 277 601 309 664 q 244 459 244 538 m 28 459 q 64 645 28 559 q 163 797 99 732 q 313 897 227 861 q 499 933 399 933 q 686 897 601 933 q 836 797 772 861 q 934 645 899 732 q 969 459 969 559 q 935 272 969 358 q 838 120 901 185 q 689 19 775 56 q 499 -17 603 -17 q 307 19 394 -17 q 158 120 221 56 q 62 272 96 185 q 28 459 28 358 m 853 710 q 812 716 829 710 q 778 731 794 722 l 778 833 q 803 818 789 824 q 838 813 817 813 q 892 839 873 813 q 910 899 910 866 q 906 948 910 929 q 894 986 902 967 l 1027 986 q 1041 952 1033 976 q 1050 885 1050 927 q 1022 794 1050 834 q 950 733 994 755 q 853 710 905 710 z "},"Ớ":{"ha":1031,"x_min":28,"x_max":1050,"o":"m 244 459 q 277 317 244 381 q 366 216 309 253 q 499 178 424 178 q 632 216 575 178 q 722 317 690 253 q 754 459 754 381 q 722 601 754 538 q 632 702 690 664 q 499 740 575 740 q 366 702 424 740 q 277 601 309 664 q 244 459 244 538 m 28 459 q 64 645 28 559 q 163 797 99 732 q 313 897 227 861 q 499 933 399 933 q 686 897 601 933 q 836 797 772 861 q 934 645 899 732 q 969 459 969 559 q 935 272 969 358 q 838 120 901 185 q 689 19 775 56 q 499 -17 603 -17 q 307 19 394 -17 q 158 120 221 56 q 62 272 96 185 q 28 459 28 358 m 853 710 q 812 716 829 710 q 778 731 794 722 l 778 833 q 803 818 789 824 q 838 813 817 813 q 892 839 873 813 q 910 899 910 866 q 906 948 910 929 q 894 986 902 967 l 1027 986 q 1041 952 1033 976 q 1050 885 1050 927 q 1022 794 1050 834 q 950 733 994 755 q 853 710 905 710 m 410 980 l 348 1065 l 574 1260 l 674 1134 l 410 980 z "},"Ợ":{"ha":1031,"x_min":28,"x_max":1050,"o":"m 244 459 q 277 317 244 381 q 366 216 309 253 q 499 178 424 178 q 632 216 575 178 q 722 317 690 253 q 754 459 754 381 q 722 601 754 538 q 632 702 690 664 q 499 740 575 740 q 366 702 424 740 q 277 601 309 664 q 244 459 244 538 m 28 459 q 64 645 28 559 q 163 797 99 732 q 313 897 227 861 q 499 933 399 933 q 686 897 601 933 q 836 797 772 861 q 934 645 899 732 q 969 459 969 559 q 935 272 969 358 q 838 120 901 185 q 689 19 775 56 q 499 -17 603 -17 q 307 19 394 -17 q 158 120 221 56 q 62 272 96 185 q 28 459 28 358 m 853 710 q 812 716 829 710 q 778 731 794 722 l 778 833 q 803 818 789 824 q 838 813 817 813 q 892 839 873 813 q 910 899 910 866 q 906 948 910 929 q 894 986 902 967 l 1027 986 q 1041 952 1033 976 q 1050 885 1050 927 q 1022 794 1050 834 q 950 733 994 755 q 853 710 905 710 m 499 -259 q 442 -235 465 -259 q 419 -179 419 -212 q 442 -123 419 -147 q 499 -99 465 -99 q 555 -123 532 -99 q 578 -179 578 -147 q 555 -235 578 -212 q 499 -259 532 -259 z "},"Ờ":{"ha":1031,"x_min":28,"x_max":1050,"o":"m 244 459 q 277 317 244 381 q 366 216 309 253 q 499 178 424 178 q 632 216 575 178 q 722 317 690 253 q 754 459 754 381 q 722 601 754 538 q 632 702 690 664 q 499 740 575 740 q 366 702 424 740 q 277 601 309 664 q 244 459 244 538 m 28 459 q 64 645 28 559 q 163 797 99 732 q 313 897 227 861 q 499 933 399 933 q 686 897 601 933 q 836 797 772 861 q 934 645 899 732 q 969 459 969 559 q 935 272 969 358 q 838 120 901 185 q 689 19 775 56 q 499 -17 603 -17 q 307 19 394 -17 q 158 120 221 56 q 62 272 96 185 q 28 459 28 358 m 853 710 q 812 716 829 710 q 778 731 794 722 l 778 833 q 803 818 789 824 q 838 813 817 813 q 892 839 873 813 q 910 899 910 866 q 906 948 910 929 q 894 986 902 967 l 1027 986 q 1041 952 1033 976 q 1050 885 1050 927 q 1022 794 1050 834 q 950 733 994 755 q 853 710 905 710 m 612 999 l 348 1153 l 448 1279 l 674 1085 l 612 999 z "},"Ở":{"ha":1031,"x_min":28,"x_max":1050,"o":"m 244 459 q 277 317 244 381 q 366 216 309 253 q 499 178 424 178 q 632 216 575 178 q 722 317 690 253 q 754 459 754 381 q 722 601 754 538 q 632 702 690 664 q 499 740 575 740 q 366 702 424 740 q 277 601 309 664 q 244 459 244 538 m 28 459 q 64 645 28 559 q 163 797 99 732 q 313 897 227 861 q 499 933 399 933 q 686 897 601 933 q 836 797 772 861 q 934 645 899 732 q 969 459 969 559 q 935 272 969 358 q 838 120 901 185 q 689 19 775 56 q 499 -17 603 -17 q 307 19 394 -17 q 158 120 221 56 q 62 272 96 185 q 28 459 28 358 m 853 710 q 812 716 829 710 q 778 731 794 722 l 778 833 q 803 818 789 824 q 838 813 817 813 q 892 839 873 813 q 910 899 910 866 q 906 948 910 929 q 894 986 902 967 l 1027 986 q 1041 952 1033 976 q 1050 885 1050 927 q 1022 794 1050 834 q 950 733 994 755 q 853 710 905 710 m 477 947 l 426 1025 q 466 1043 442 1030 q 510 1076 491 1056 q 530 1122 530 1096 q 519 1159 530 1147 q 492 1174 509 1170 q 453 1177 474 1177 q 392 1167 423 1177 q 341 1145 362 1156 l 341 1253 q 386 1274 353 1261 q 480 1286 418 1286 q 565 1272 524 1286 q 631 1225 606 1258 q 657 1138 657 1193 q 637 1061 657 1094 q 588 1005 617 1028 q 528 968 558 982 q 477 947 498 954 z "},"Ỡ":{"ha":1031,"x_min":28,"x_max":1050,"o":"m 244 459 q 277 317 244 381 q 366 216 309 253 q 499 178 424 178 q 632 216 575 178 q 722 317 690 253 q 754 459 754 381 q 722 601 754 538 q 632 702 690 664 q 499 740 575 740 q 366 702 424 740 q 277 601 309 664 q 244 459 244 538 m 28 459 q 64 645 28 559 q 163 797 99 732 q 313 897 227 861 q 499 933 399 933 q 686 897 601 933 q 836 797 772 861 q 934 645 899 732 q 969 459 969 559 q 935 272 969 358 q 838 120 901 185 q 689 19 775 56 q 499 -17 603 -17 q 307 19 394 -17 q 158 120 221 56 q 62 272 96 185 q 28 459 28 358 m 853 710 q 812 716 829 710 q 778 731 794 722 l 778 833 q 803 818 789 824 q 838 813 817 813 q 892 839 873 813 q 910 899 910 866 q 906 948 910 929 q 894 986 902 967 l 1027 986 q 1041 952 1033 976 q 1050 885 1050 927 q 1022 794 1050 834 q 950 733 994 755 q 853 710 905 710 m 253 1027 q 279 1112 260 1068 q 330 1186 298 1156 q 405 1217 361 1217 q 482 1204 449 1217 q 544 1178 515 1191 q 604 1165 574 1165 q 637 1183 624 1165 q 655 1217 650 1201 l 767 1217 q 741 1132 760 1176 q 691 1058 722 1088 q 615 1027 660 1027 q 539 1040 572 1027 q 476 1065 506 1053 q 416 1078 447 1078 q 384 1060 397 1078 q 366 1027 371 1043 l 253 1027 z "},"Ő":{"ha":1014,"x_min":28,"x_max":969,"o":"m 244 459 q 277 317 244 381 q 366 216 309 253 q 499 178 424 178 q 632 216 575 178 q 722 317 690 253 q 754 459 754 381 q 722 601 754 538 q 632 702 690 664 q 499 740 575 740 q 366 702 424 740 q 277 601 309 664 q 244 459 244 538 m 28 459 q 64 645 28 559 q 163 797 99 732 q 313 897 227 861 q 499 933 399 933 q 686 897 601 933 q 836 797 772 861 q 934 645 899 732 q 969 459 969 559 q 935 272 969 358 q 838 120 901 185 q 689 19 775 56 q 499 -17 603 -17 q 307 19 394 -17 q 158 120 221 56 q 62 272 96 185 q 28 459 28 358 m 594 999 l 532 1085 l 724 1301 l 815 1187 l 594 999 m 360 999 l 297 1085 l 490 1301 l 581 1187 l 360 999 z "},"Ȏ":{"ha":1031,"x_min":28,"x_max":969,"o":"m 244 459 q 277 317 244 381 q 366 216 309 253 q 499 178 424 178 q 632 216 575 178 q 722 317 690 253 q 754 459 754 381 q 722 601 754 538 q 632 702 690 664 q 499 740 575 740 q 366 702 424 740 q 277 601 309 664 q 244 459 244 538 m 28 459 q 64 645 28 559 q 163 797 99 732 q 313 897 227 861 q 499 933 399 933 q 686 897 601 933 q 836 797 772 861 q 934 645 899 732 q 969 459 969 559 q 935 272 969 358 q 838 120 901 185 q 689 19 775 56 q 499 -17 603 -17 q 307 19 394 -17 q 158 120 221 56 q 62 272 96 185 q 28 459 28 358 m 382 976 l 243 1010 q 283 1114 250 1068 q 370 1185 315 1159 q 499 1211 426 1211 q 625 1186 570 1211 q 714 1115 680 1160 q 755 1010 748 1070 l 615 976 q 599 1027 613 1001 q 561 1072 586 1054 q 499 1090 537 1090 q 436 1072 461 1090 q 398 1027 411 1054 q 382 976 385 1001 z "},"Ō":{"ha":1031,"x_min":28,"x_max":969,"o":"m 244 459 q 277 317 244 381 q 366 216 309 253 q 499 178 424 178 q 632 216 575 178 q 722 317 690 253 q 754 459 754 381 q 722 601 754 538 q 632 702 690 664 q 499 740 575 740 q 366 702 424 740 q 277 601 309 664 q 244 459 244 538 m 28 459 q 64 645 28 559 q 163 797 99 732 q 313 897 227 861 q 499 933 399 933 q 686 897 601 933 q 836 797 772 861 q 934 645 899 732 q 969 459 969 559 q 935 272 969 358 q 838 120 901 185 q 689 19 775 56 q 499 -17 603 -17 q 307 19 394 -17 q 158 120 221 56 q 62 272 96 185 q 28 459 28 358 m 285 1051 l 285 1183 l 738 1183 l 738 1051 l 285 1051 z "},"Ǫ":{"ha":1031,"x_min":28,"x_max":969,"o":"m 244 459 q 277 317 244 381 q 366 216 309 253 q 499 178 424 178 q 632 216 575 178 q 722 317 690 253 q 754 459 754 381 q 722 601 754 538 q 632 702 690 664 q 499 740 575 740 q 366 702 424 740 q 277 601 309 664 q 244 459 244 538 m 28 459 q 64 645 28 559 q 163 797 99 732 q 313 897 227 861 q 499 933 399 933 q 686 897 601 933 q 836 797 772 861 q 934 645 899 732 q 969 459 969 559 q 935 272 969 358 q 838 120 901 185 q 689 19 775 56 q 499 -17 603 -17 q 307 19 394 -17 q 158 120 221 56 q 62 272 96 185 q 28 459 28 358 m 568 -302 q 507 -290 539 -302 q 452 -251 474 -278 q 429 -175 429 -223 q 448 -105 429 -143 q 494 -32 467 -67 q 546 28 521 3 l 608 0 q 578 -43 593 -17 q 551 -98 563 -69 q 540 -156 540 -128 q 555 -188 540 -177 q 584 -199 569 -199 q 619 -188 603 -199 q 642 -167 635 -177 l 720 -226 q 663 -277 704 -251 q 568 -302 622 -302 z "},"Ø":{"ha":1014,"x_min":-1,"x_max":975,"o":"m 902 953 l 975 888 l 73 -47 l -1 19 l 902 953 m 244 459 q 277 317 244 381 q 366 216 309 253 q 499 178 424 178 q 632 216 575 178 q 722 317 690 253 q 754 459 754 381 q 722 601 754 538 q 632 702 690 664 q 499 740 575 740 q 366 702 424 740 q 277 601 309 664 q 244 459 244 538 m 28 459 q 64 645 28 559 q 163 797 99 732 q 313 897 227 861 q 499 933 399 933 q 686 897 601 933 q 836 797 772 861 q 934 645 899 732 q 969 459 969 559 q 935 272 969 358 q 838 120 901 185 q 689 19 775 56 q 499 -17 603 -17 q 307 19 394 -17 q 158 120 221 56 q 62 272 96 185 q 28 459 28 358 z "},"Ǿ":{"ha":1014,"x_min":-1,"x_max":975,"o":"m 902 953 l 975 888 l 73 -47 l -1 19 l 902 953 m 244 459 q 277 317 244 381 q 366 216 309 253 q 499 178 424 178 q 632 216 575 178 q 722 317 690 253 q 754 459 754 381 q 722 601 754 538 q 632 702 690 664 q 499 740 575 740 q 366 702 424 740 q 277 601 309 664 q 244 459 244 538 m 28 459 q 64 645 28 559 q 163 797 99 732 q 313 897 227 861 q 499 933 399 933 q 686 897 601 933 q 836 797 772 861 q 934 645 899 732 q 969 459 969 559 q 935 272 969 358 q 838 120 901 185 q 689 19 775 56 q 499 -17 603 -17 q 307 19 394 -17 q 158 120 221 56 q 62 272 96 185 q 28 459 28 358 m 410 980 l 348 1065 l 574 1260 l 674 1134 l 410 980 z "},"Õ":{"ha":1031,"x_min":28,"x_max":969,"o":"m 244 459 q 277 317 244 381 q 366 216 309 253 q 499 178 424 178 q 632 216 575 178 q 722 317 690 253 q 754 459 754 381 q 722 601 754 538 q 632 702 690 664 q 499 740 575 740 q 366 702 424 740 q 277 601 309 664 q 244 459 244 538 m 28 459 q 64 645 28 559 q 163 797 99 732 q 313 897 227 861 q 499 933 399 933 q 686 897 601 933 q 836 797 772 861 q 934 645 899 732 q 969 459 969 559 q 935 272 969 358 q 838 120 901 185 q 689 19 775 56 q 499 -17 603 -17 q 307 19 394 -17 q 158 120 221 56 q 62 272 96 185 q 28 459 28 358 m 253 1027 q 279 1112 260 1068 q 330 1186 298 1156 q 405 1217 361 1217 q 482 1204 449 1217 q 544 1178 515 1191 q 604 1165 574 1165 q 637 1183 624 1165 q 655 1217 650 1201 l 767 1217 q 741 1132 760 1176 q 691 1058 722 1088 q 615 1027 660 1027 q 539 1040 572 1027 q 476 1065 506 1053 q 416 1078 447 1078 q 384 1060 397 1078 q 366 1027 371 1043 l 253 1027 z "},"Ȭ":{"ha":1031,"x_min":28,"x_max":969,"o":"m 244 459 q 277 317 244 381 q 366 216 309 253 q 499 178 424 178 q 632 216 575 178 q 722 317 690 253 q 754 459 754 381 q 722 601 754 538 q 632 702 690 664 q 499 740 575 740 q 366 702 424 740 q 277 601 309 664 q 244 459 244 538 m 28 459 q 64 645 28 559 q 163 797 99 732 q 313 897 227 861 q 499 933 399 933 q 686 897 601 933 q 836 797 772 861 q 934 645 899 732 q 969 459 969 559 q 935 272 969 358 q 838 120 901 185 q 689 19 775 56 q 499 -17 603 -17 q 307 19 394 -17 q 158 120 221 56 q 62 272 96 185 q 28 459 28 358 m 253 1027 q 279 1112 260 1068 q 330 1186 298 1156 q 405 1217 361 1217 q 482 1204 449 1217 q 544 1178 515 1191 q 604 1165 574 1165 q 637 1183 624 1165 q 655 1217 650 1201 l 767 1217 q 741 1132 760 1176 q 691 1058 722 1088 q 615 1027 660 1027 q 539 1040 572 1027 q 476 1065 506 1053 q 416 1078 447 1078 q 384 1060 397 1078 q 366 1027 371 1043 l 253 1027 m 285 1287 l 285 1419 l 738 1419 l 738 1287 l 285 1287 z "},"Œ":{"ha":1153,"x_min":20,"x_max":1062,"o":"m 482 0 q 304 34 388 0 q 156 128 220 67 q 56 274 92 190 q 20 458 20 358 q 56 642 20 558 q 156 788 92 726 q 304 883 220 849 q 482 917 388 917 l 1062 917 l 1062 735 l 745 735 l 745 550 l 1049 550 l 1049 369 l 745 369 l 745 182 l 1062 182 l 1062 0 l 482 0 m 505 185 l 538 185 l 538 732 l 505 732 q 368 695 427 732 q 276 597 309 658 q 244 459 244 535 q 277 320 244 382 q 368 222 310 258 q 505 185 427 185 z "},"P":{"ha":768,"x_min":59,"x_max":706,"o":"m 59 917 l 392 917 q 551 886 481 917 q 664 792 622 855 q 706 635 706 729 q 664 475 706 541 q 551 375 622 410 q 392 341 481 341 l 267 341 l 267 0 l 59 0 l 59 917 m 267 505 l 335 505 q 411 517 377 505 q 465 557 444 530 q 485 630 485 585 q 465 702 485 676 q 411 741 444 729 q 335 753 377 753 l 267 753 l 267 505 z "},"Þ":{"ha":765,"x_min":58,"x_max":708,"o":"m 58 917 l 265 917 l 265 747 l 400 747 q 556 716 486 747 q 667 622 626 685 q 708 465 708 560 q 667 305 708 370 q 556 205 626 239 q 400 170 486 170 l 265 170 l 265 0 l 58 0 l 58 917 m 265 334 l 358 334 q 447 367 413 334 q 481 462 481 400 q 447 553 481 524 q 358 583 413 583 l 265 583 l 265 334 z "},"Q":{"ha":1014,"x_min":28,"x_max":969,"o":"m 744 -28 q 816 -19 784 -28 q 867 1 847 -10 q 889 15 886 11 l 959 -122 q 884 -187 938 -156 q 746 -219 829 -219 q 659 -207 694 -219 q 592 -180 623 -195 q 526 -152 562 -164 q 438 -140 490 -140 q 363 -153 396 -140 q 312 -179 331 -166 q 292 -195 294 -192 l 208 -95 q 321 -14 250 -46 q 482 17 392 17 q 582 6 540 17 q 662 -17 624 -6 q 744 -28 700 -28 m 244 459 q 277 317 244 381 q 366 216 309 253 q 499 178 424 178 q 632 216 575 178 q 722 317 690 253 q 754 459 754 381 q 722 601 754 538 q 632 702 690 664 q 499 740 575 740 q 366 702 424 740 q 277 601 309 664 q 244 459 244 538 m 28 459 q 64 645 28 559 q 163 797 99 732 q 313 897 227 861 q 499 933 399 933 q 686 897 601 933 q 836 797 772 861 q 934 645 899 732 q 969 459 969 559 q 935 272 969 358 q 838 120 901 185 q 689 19 775 56 q 499 -17 603 -17 q 307 19 394 -17 q 158 120 221 56 q 62 272 96 185 q 28 459 28 358 z "},"R":{"ha":822,"x_min":53,"x_max":743,"o":"m 53 917 l 427 917 q 569 883 507 917 q 668 787 632 850 q 705 638 705 724 q 674 495 705 551 q 600 413 643 440 q 520 380 557 385 l 743 0 l 510 0 l 311 364 l 261 364 l 261 0 l 53 0 l 53 917 m 261 508 l 353 508 q 450 535 408 508 q 492 631 492 562 q 451 726 492 699 q 354 753 410 753 l 261 753 l 261 508 z "},"Ŕ":{"ha":822,"x_min":53,"x_max":743,"o":"m 53 917 l 427 917 q 569 883 507 917 q 668 787 632 850 q 705 638 705 724 q 674 495 705 551 q 600 413 643 440 q 520 380 557 385 l 743 0 l 510 0 l 311 364 l 261 364 l 261 0 l 53 0 l 53 917 m 261 508 l 353 508 q 450 535 408 508 q 492 631 492 562 q 451 726 492 699 q 354 753 410 753 l 261 753 l 261 508 m 326 956 l 263 1040 l 489 1235 l 590 1109 l 326 956 z "},"Ř":{"ha":822,"x_min":53,"x_max":743,"o":"m 53 917 l 427 917 q 569 883 507 917 q 668 787 632 850 q 705 638 705 724 q 674 495 705 551 q 600 413 643 440 q 520 380 557 385 l 743 0 l 510 0 l 311 364 l 261 364 l 261 0 l 53 0 l 53 917 m 261 508 l 353 508 q 450 535 408 508 q 492 631 492 562 q 451 726 492 699 q 354 753 410 753 l 261 753 l 261 508 m 385 978 l 171 1135 l 237 1223 l 385 1115 l 533 1223 l 598 1135 l 385 978 z "},"Ŗ":{"ha":822,"x_min":53,"x_max":743,"o":"m 53 917 l 427 917 q 569 883 507 917 q 668 787 632 850 q 705 638 705 724 q 674 495 705 551 q 600 413 643 440 q 520 380 557 385 l 743 0 l 510 0 l 311 364 l 261 364 l 261 0 l 53 0 l 53 917 m 261 508 l 353 508 q 450 535 408 508 q 492 631 492 562 q 451 726 492 699 q 354 753 410 753 l 261 753 l 261 508 m 336 -406 l 291 -356 q 354 -310 319 -341 q 399 -242 389 -279 q 369 -248 388 -248 q 309 -222 335 -248 q 282 -151 282 -196 q 312 -79 282 -108 q 383 -50 342 -50 q 456 -79 426 -50 q 485 -165 485 -108 q 465 -261 485 -214 q 410 -347 444 -309 q 336 -406 376 -385 z "},"Ȑ":{"ha":822,"x_min":53,"x_max":743,"o":"m 53 917 l 427 917 q 569 883 507 917 q 668 787 632 850 q 705 638 705 724 q 674 495 705 551 q 600 413 643 440 q 520 380 557 385 l 743 0 l 510 0 l 311 364 l 261 364 l 261 0 l 53 0 l 53 917 m 261 508 l 353 508 q 450 535 408 508 q 492 631 492 562 q 451 726 492 699 q 354 753 410 753 l 261 753 l 261 508 m 611 956 l 347 1109 l 447 1235 l 674 1041 l 611 956 m 317 956 l 53 1109 l 153 1235 l 380 1041 l 317 956 z "},"Ȓ":{"ha":822,"x_min":53,"x_max":743,"o":"m 53 917 l 427 917 q 569 883 507 917 q 668 787 632 850 q 705 638 705 724 q 674 495 705 551 q 600 413 643 440 q 520 380 557 385 l 743 0 l 510 0 l 311 364 l 261 364 l 261 0 l 53 0 l 53 917 m 261 508 l 353 508 q 450 535 408 508 q 492 631 492 562 q 451 726 492 699 q 354 753 410 753 l 261 753 l 261 508 m 280 965 l 159 994 q 193 1085 165 1045 q 271 1148 222 1125 q 384 1172 320 1172 q 496 1149 447 1172 q 574 1087 544 1126 q 610 994 604 1047 l 488 965 q 474 1010 485 986 q 440 1050 462 1033 q 384 1066 417 1066 q 328 1050 351 1066 q 294 1010 306 1033 q 280 965 283 986 z "},"S":{"ha":777,"x_min":19,"x_max":710,"o":"m 392 933 q 541 915 477 933 q 644 875 605 896 q 691 847 683 854 l 591 680 q 553 704 580 688 q 490 733 526 720 q 414 745 453 745 q 327 726 360 745 q 294 669 294 707 q 312 623 294 644 q 366 584 330 603 q 459 544 403 566 q 556 500 510 526 q 635 439 601 474 q 690 358 669 404 q 710 254 710 313 q 681 134 710 185 q 604 49 653 83 q 493 0 555 16 q 364 -17 431 -17 q 195 5 269 -17 q 74 51 120 26 q 19 85 28 76 l 123 259 q 155 239 131 253 q 214 210 179 225 q 288 185 249 195 q 365 174 327 174 q 461 199 429 174 q 493 264 493 224 q 473 317 493 294 q 413 362 453 341 q 312 407 372 383 q 199 466 251 431 q 114 553 147 501 q 81 682 81 605 q 125 816 81 759 q 239 903 168 872 q 392 933 310 933 z "},"Ś":{"ha":777,"x_min":19,"x_max":710,"o":"m 392 933 q 541 915 477 933 q 644 875 605 896 q 691 847 683 854 l 591 680 q 553 704 580 688 q 490 733 526 720 q 414 745 453 745 q 327 726 360 745 q 294 669 294 707 q 312 623 294 644 q 366 584 330 603 q 459 544 403 566 q 556 500 510 526 q 635 439 601 474 q 690 358 669 404 q 710 254 710 313 q 681 134 710 185 q 604 49 653 83 q 493 0 555 16 q 364 -17 431 -17 q 195 5 269 -17 q 74 51 120 26 q 19 85 28 76 l 123 259 q 155 239 131 253 q 214 210 179 225 q 288 185 249 195 q 365 174 327 174 q 461 199 429 174 q 493 264 493 224 q 473 317 493 294 q 413 362 453 341 q 312 407 372 383 q 199 466 251 431 q 114 553 147 501 q 81 682 81 605 q 125 816 81 759 q 239 903 168 872 q 392 933 310 933 m 308 956 l 246 1040 l 472 1235 l 572 1109 l 308 956 z "},"Š":{"ha":777,"x_min":19,"x_max":710,"o":"m 392 933 q 541 915 477 933 q 644 875 605 896 q 691 847 683 854 l 591 680 q 553 704 580 688 q 490 733 526 720 q 414 745 453 745 q 327 726 360 745 q 294 669 294 707 q 312 623 294 644 q 366 584 330 603 q 459 544 403 566 q 556 500 510 526 q 635 439 601 474 q 690 358 669 404 q 710 254 710 313 q 681 134 710 185 q 604 49 653 83 q 493 0 555 16 q 364 -17 431 -17 q 195 5 269 -17 q 74 51 120 26 q 19 85 28 76 l 123 259 q 155 239 131 253 q 214 210 179 225 q 288 185 249 195 q 365 174 327 174 q 461 199 429 174 q 493 264 493 224 q 473 317 493 294 q 413 362 453 341 q 312 407 372 383 q 199 466 251 431 q 114 553 147 501 q 81 682 81 605 q 125 816 81 759 q 239 903 168 872 q 392 933 310 933 m 367 978 l 153 1135 l 219 1223 l 367 1115 l 515 1223 l 581 1135 l 367 978 z "},"Ş":{"ha":777,"x_min":19,"x_max":710,"o":"m 392 933 q 541 915 477 933 q 644 875 605 896 q 691 847 683 854 l 591 680 q 553 704 580 688 q 490 733 526 720 q 414 745 453 745 q 327 726 360 745 q 294 669 294 707 q 312 623 294 644 q 366 584 330 603 q 459 544 403 566 q 556 500 510 526 q 635 439 601 474 q 690 358 669 404 q 710 254 710 313 q 681 134 710 185 q 604 49 653 83 q 493 0 555 16 q 364 -17 431 -17 q 195 5 269 -17 q 74 51 120 26 q 19 85 28 76 l 123 259 q 155 239 131 253 q 214 210 179 225 q 288 185 249 195 q 365 174 327 174 q 461 199 429 174 q 493 264 493 224 q 473 317 493 294 q 413 362 453 341 q 312 407 372 383 q 199 466 251 431 q 114 553 147 501 q 81 682 81 605 q 125 816 81 759 q 239 903 168 872 q 392 933 310 933 m 373 -301 q 261 -281 307 -301 q 199 -242 216 -260 l 268 -163 q 305 -192 281 -177 q 356 -206 328 -206 q 395 -194 381 -206 q 410 -163 410 -183 q 392 -128 410 -140 q 347 -117 373 -117 q 311 -120 326 -117 q 291 -127 296 -124 l 281 -119 l 334 29 l 408 4 l 383 -58 q 456 -67 422 -56 q 513 -103 491 -79 q 535 -164 535 -128 q 513 -237 535 -207 q 453 -284 490 -268 q 373 -301 416 -301 z "},"Ŝ":{"ha":777,"x_min":19,"x_max":710,"o":"m 392 933 q 541 915 477 933 q 644 875 605 896 q 691 847 683 854 l 591 680 q 553 704 580 688 q 490 733 526 720 q 414 745 453 745 q 327 726 360 745 q 294 669 294 707 q 312 623 294 644 q 366 584 330 603 q 459 544 403 566 q 556 500 510 526 q 635 439 601 474 q 690 358 669 404 q 710 254 710 313 q 681 134 710 185 q 604 49 653 83 q 493 0 555 16 q 364 -17 431 -17 q 195 5 269 -17 q 74 51 120 26 q 19 85 28 76 l 123 259 q 155 239 131 253 q 214 210 179 225 q 288 185 249 195 q 365 174 327 174 q 461 199 429 174 q 493 264 493 224 q 473 317 493 294 q 413 362 453 341 q 312 407 372 383 q 199 466 251 431 q 114 553 147 501 q 81 682 81 605 q 125 816 81 759 q 239 903 168 872 q 392 933 310 933 m 197 970 l 122 1071 l 367 1250 l 611 1070 l 536 970 l 367 1094 l 197 970 z "},"Ș":{"ha":777,"x_min":19,"x_max":710,"o":"m 392 933 q 541 915 477 933 q 644 875 605 896 q 691 847 683 854 l 591 680 q 553 704 580 688 q 490 733 526 720 q 414 745 453 745 q 327 726 360 745 q 294 669 294 707 q 312 623 294 644 q 366 584 330 603 q 459 544 403 566 q 556 500 510 526 q 635 439 601 474 q 690 358 669 404 q 710 254 710 313 q 681 134 710 185 q 604 49 653 83 q 493 0 555 16 q 364 -17 431 -17 q 195 5 269 -17 q 74 51 120 26 q 19 85 28 76 l 123 259 q 155 239 131 253 q 214 210 179 225 q 288 185 249 195 q 365 174 327 174 q 461 199 429 174 q 493 264 493 224 q 473 317 493 294 q 413 362 453 341 q 312 407 372 383 q 199 466 251 431 q 114 553 147 501 q 81 682 81 605 q 125 816 81 759 q 239 903 168 872 q 392 933 310 933 m 319 -406 l 274 -356 q 337 -310 302 -341 q 382 -242 372 -279 q 351 -248 371 -248 q 291 -222 318 -248 q 265 -151 265 -196 q 295 -79 265 -108 q 366 -50 325 -50 q 438 -79 408 -50 q 468 -165 468 -108 q 447 -261 468 -214 q 392 -347 426 -309 q 319 -406 358 -385 z "},"ẞ":{"ha":892,"x_min":63,"x_max":827,"o":"m 345 174 q 411 158 378 163 q 478 153 444 153 q 578 185 539 153 q 617 273 617 218 q 555 368 617 335 q 372 387 492 401 l 372 567 l 530 758 q 477 765 506 763 q 431 767 448 767 q 330 740 365 767 q 281 665 294 713 q 267 551 267 616 l 267 0 l 63 0 l 63 641 q 110 810 63 744 q 245 907 158 876 q 450 938 332 938 q 540 933 490 938 q 640 918 589 927 q 734 896 690 908 l 733 731 l 558 523 q 652 513 605 523 q 740 474 700 502 q 803 394 779 446 q 827 261 827 343 q 782 104 827 166 q 664 11 738 42 q 503 -19 590 -19 q 345 0 422 -19 l 345 174 z "},"Ə":{"ha":961,"x_min":28,"x_max":900,"o":"m 456 -15 q 278 20 358 -15 q 143 120 199 56 q 58 272 88 184 q 28 463 28 359 q 28 480 28 467 q 29 508 28 494 q 31 524 30 522 l 690 524 q 661 640 690 590 q 580 718 633 690 q 456 747 527 747 q 367 734 406 747 q 301 704 329 722 q 254 667 273 686 q 224 633 235 647 l 68 769 q 142 835 89 797 q 274 904 194 874 q 455 933 353 933 q 680 880 579 933 q 840 722 781 826 q 900 464 900 617 q 845 209 900 317 q 691 43 790 101 q 456 -15 592 -15 m 458 157 q 559 176 516 157 q 630 228 601 196 q 672 301 658 261 q 685 383 685 341 l 238 383 q 251 303 238 343 q 291 230 264 263 q 360 177 319 197 q 458 157 402 157 z "},"T":{"ha":708,"x_min":10,"x_max":654,"o":"m 228 735 l 10 735 l 10 917 l 654 917 l 654 735 l 436 735 l 436 0 l 228 0 l 228 735 z "},"Ŧ":{"ha":708,"x_min":10,"x_max":654,"o":"m 13 548 l 648 548 l 648 397 l 13 397 l 13 548 m 228 735 l 10 735 l 10 917 l 654 917 l 654 735 l 436 735 l 436 0 l 228 0 l 228 735 z "},"Ť":{"ha":708,"x_min":10,"x_max":654,"o":"m 228 735 l 10 735 l 10 917 l 654 917 l 654 735 l 436 735 l 436 0 l 228 0 l 228 735 m 333 978 l 119 1135 l 185 1223 l 333 1115 l 481 1223 l 546 1135 l 333 978 z "},"Ţ":{"ha":708,"x_min":10,"x_max":654,"o":"m 228 735 l 10 735 l 10 917 l 654 917 l 654 735 l 436 735 l 436 0 l 228 0 l 228 735 m 358 -301 q 246 -281 292 -301 q 183 -242 201 -260 l 253 -163 q 289 -192 265 -177 q 340 -206 313 -206 q 380 -194 365 -206 q 395 -163 395 -183 q 376 -128 395 -140 q 332 -117 358 -117 q 295 -120 310 -117 q 276 -127 281 -124 l 265 -119 l 319 29 l 392 4 l 367 -58 q 441 -67 406 -56 q 498 -103 476 -79 q 519 -164 519 -128 q 497 -237 519 -207 q 438 -284 475 -268 q 358 -301 401 -301 z "},"Ț":{"ha":708,"x_min":10,"x_max":654,"o":"m 228 735 l 10 735 l 10 917 l 654 917 l 654 735 l 436 735 l 436 0 l 228 0 l 228 735 m 284 -406 l 239 -356 q 302 -310 267 -341 q 347 -242 337 -279 q 317 -248 336 -248 q 257 -222 283 -248 q 230 -151 230 -196 q 260 -79 230 -108 q 331 -50 290 -50 q 403 -79 374 -50 q 433 -165 433 -108 q 413 -261 433 -214 q 358 -347 392 -309 q 284 -406 324 -385 z "},"U":{"ha":884,"x_min":56,"x_max":795,"o":"m 588 917 l 795 917 l 795 353 q 751 157 795 240 q 624 29 706 74 q 426 -17 541 -17 q 228 29 311 -17 q 100 157 144 74 q 56 353 56 240 l 56 917 l 263 917 l 263 365 q 283 259 263 302 q 340 194 303 216 q 426 172 376 172 q 512 194 476 172 q 568 259 548 216 q 588 365 588 302 l 588 917 z "},"Ú":{"ha":884,"x_min":56,"x_max":795,"o":"m 588 917 l 795 917 l 795 353 q 751 157 795 240 q 624 29 706 74 q 426 -17 541 -17 q 228 29 311 -17 q 100 157 144 74 q 56 353 56 240 l 56 917 l 263 917 l 263 365 q 283 259 263 302 q 340 194 303 216 q 426 172 376 172 q 512 194 476 172 q 568 259 548 216 q 588 365 588 302 l 588 917 m 367 956 l 305 1040 l 531 1235 l 631 1109 l 367 956 z "},"Ŭ":{"ha":884,"x_min":56,"x_max":795,"o":"m 588 917 l 795 917 l 795 353 q 751 157 795 240 q 624 29 706 74 q 426 -17 541 -17 q 228 29 311 -17 q 100 157 144 74 q 56 353 56 240 l 56 917 l 263 917 l 263 365 q 283 259 263 302 q 340 194 303 216 q 426 172 376 172 q 512 194 476 172 q 568 259 548 216 q 588 365 588 302 l 588 917 m 426 965 q 314 987 363 965 q 235 1050 265 1010 q 199 1142 206 1090 l 322 1173 q 336 1127 324 1151 q 370 1087 348 1103 q 426 1070 392 1070 q 482 1087 460 1070 q 516 1127 504 1103 q 531 1173 528 1151 l 653 1142 q 619 1051 648 1092 q 541 988 590 1011 q 426 965 492 965 z "},"Û":{"ha":884,"x_min":56,"x_max":795,"o":"m 588 917 l 795 917 l 795 353 q 751 157 795 240 q 624 29 706 74 q 426 -17 541 -17 q 228 29 311 -17 q 100 157 144 74 q 56 353 56 240 l 56 917 l 263 917 l 263 365 q 283 259 263 302 q 340 194 303 216 q 426 172 376 172 q 512 194 476 172 q 568 259 548 216 q 588 365 588 302 l 588 917 m 256 970 l 181 1071 l 426 1250 l 670 1070 l 595 970 l 426 1094 l 256 970 z "},"Ȕ":{"ha":884,"x_min":56,"x_max":795,"o":"m 588 917 l 795 917 l 795 353 q 751 157 795 240 q 624 29 706 74 q 426 -17 541 -17 q 228 29 311 -17 q 100 157 144 74 q 56 353 56 240 l 56 917 l 263 917 l 263 365 q 283 259 263 302 q 340 194 303 216 q 426 172 376 172 q 512 194 476 172 q 568 259 548 216 q 588 365 588 302 l 588 917 m 653 956 l 389 1109 l 489 1235 l 715 1041 l 653 956 m 359 956 l 95 1109 l 195 1235 l 422 1041 l 359 956 z "},"Ü":{"ha":884,"x_min":56,"x_max":795,"o":"m 588 917 l 795 917 l 795 353 q 751 157 795 240 q 624 29 706 74 q 426 -17 541 -17 q 228 29 311 -17 q 100 157 144 74 q 56 353 56 240 l 56 917 l 263 917 l 263 365 q 283 259 263 302 q 340 194 303 216 q 426 172 376 172 q 512 194 476 172 q 568 259 548 216 q 588 365 588 302 l 588 917 m 566 972 q 494 1002 524 972 q 465 1074 465 1033 q 494 1146 465 1116 q 566 1176 524 1176 q 638 1146 608 1176 q 667 1074 667 1116 q 638 1002 667 1032 q 566 972 608 972 m 287 972 q 215 1002 244 972 q 185 1074 185 1033 q 215 1146 185 1116 q 287 1176 244 1176 q 358 1146 328 1176 q 388 1074 388 1116 q 358 1002 388 1032 q 287 972 328 972 z "},"Ụ":{"ha":884,"x_min":56,"x_max":795,"o":"m 588 917 l 795 917 l 795 353 q 751 157 795 240 q 624 29 706 74 q 426 -17 541 -17 q 228 29 311 -17 q 100 157 144 74 q 56 353 56 240 l 56 917 l 263 917 l 263 365 q 283 259 263 302 q 340 194 303 216 q 426 172 376 172 q 512 194 476 172 q 568 259 548 216 q 588 365 588 302 l 588 917 m 426 -222 q 369 -198 392 -222 q 346 -142 346 -174 q 369 -85 346 -109 q 426 -61 392 -61 q 482 -85 458 -61 q 506 -142 506 -109 q 482 -198 506 -175 q 426 -222 458 -222 z "},"Ù":{"ha":884,"x_min":56,"x_max":795,"o":"m 588 917 l 795 917 l 795 353 q 751 157 795 240 q 624 29 706 74 q 426 -17 541 -17 q 228 29 311 -17 q 100 157 144 74 q 56 353 56 240 l 56 917 l 263 917 l 263 365 q 283 259 263 302 q 340 194 303 216 q 426 172 376 172 q 512 194 476 172 q 568 259 548 216 q 588 365 588 302 l 588 917 m 471 956 l 207 1109 l 308 1235 l 533 1040 l 471 956 z "},"Ủ":{"ha":884,"x_min":56,"x_max":795,"o":"m 588 917 l 795 917 l 795 353 q 751 157 795 240 q 624 29 706 74 q 426 -17 541 -17 q 228 29 311 -17 q 100 157 144 74 q 56 353 56 240 l 56 917 l 263 917 l 263 365 q 283 259 263 302 q 340 194 303 216 q 426 172 376 172 q 512 194 476 172 q 568 259 548 216 q 588 365 588 302 l 588 917 m 404 965 l 353 1033 q 393 1047 369 1036 q 438 1075 418 1058 q 457 1113 457 1092 q 447 1146 457 1135 q 419 1160 436 1157 q 380 1163 401 1163 q 319 1153 350 1163 q 268 1134 289 1143 l 268 1226 q 313 1244 281 1233 q 407 1255 345 1255 q 492 1243 451 1255 q 558 1203 533 1231 q 584 1127 584 1175 q 564 1063 584 1090 q 515 1015 544 1035 q 455 984 485 996 q 404 965 425 972 z "},"Ư":{"ha":1065,"x_min":56,"x_max":1066,"o":"m 588 917 l 795 917 l 795 353 q 751 157 795 240 q 624 29 706 74 q 426 -17 541 -17 q 228 29 311 -17 q 100 157 144 74 q 56 353 56 240 l 56 917 l 263 917 l 263 365 q 283 259 263 302 q 340 194 303 216 q 426 172 376 172 q 512 194 476 172 q 568 259 548 216 q 588 365 588 302 l 588 917 m 869 795 q 828 800 846 795 q 795 815 811 806 l 795 917 q 820 902 806 908 q 855 897 834 897 q 908 923 890 897 q 927 983 927 950 q 923 1032 927 1013 q 910 1070 919 1051 l 1044 1070 q 1058 1036 1049 1061 q 1067 969 1067 1011 q 1039 879 1067 918 q 966 817 1011 840 q 869 795 922 795 z "},"Ứ":{"ha":1065,"x_min":56,"x_max":1066,"o":"m 588 917 l 795 917 l 795 353 q 751 157 795 240 q 624 29 706 74 q 426 -17 541 -17 q 228 29 311 -17 q 100 157 144 74 q 56 353 56 240 l 56 917 l 263 917 l 263 365 q 283 259 263 302 q 340 194 303 216 q 426 172 376 172 q 512 194 476 172 q 568 259 548 216 q 588 365 588 302 l 588 917 m 869 795 q 828 800 846 795 q 795 815 811 806 l 795 917 q 820 902 806 908 q 855 897 834 897 q 908 923 890 897 q 927 983 927 950 q 923 1032 927 1013 q 910 1070 919 1051 l 1044 1070 q 1058 1036 1049 1061 q 1067 969 1067 1011 q 1039 879 1067 918 q 966 817 1011 840 q 869 795 922 795 m 336 980 l 274 1065 l 500 1260 l 600 1134 l 336 980 z "},"Ự":{"ha":1065,"x_min":56,"x_max":1066,"o":"m 588 917 l 795 917 l 795 353 q 751 157 795 240 q 624 29 706 74 q 426 -17 541 -17 q 228 29 311 -17 q 100 157 144 74 q 56 353 56 240 l 56 917 l 263 917 l 263 365 q 283 259 263 302 q 340 194 303 216 q 426 172 376 172 q 512 194 476 172 q 568 259 548 216 q 588 365 588 302 l 588 917 m 869 795 q 828 800 846 795 q 795 815 811 806 l 795 917 q 820 902 806 908 q 855 897 834 897 q 908 923 890 897 q 927 983 927 950 q 923 1032 927 1013 q 910 1070 919 1051 l 1044 1070 q 1058 1036 1049 1061 q 1067 969 1067 1011 q 1039 879 1067 918 q 966 817 1011 840 q 869 795 922 795 m 426 -212 q 369 -189 392 -212 q 346 -133 346 -165 q 369 -76 346 -100 q 426 -52 392 -52 q 482 -76 459 -52 q 506 -133 506 -100 q 482 -189 506 -165 q 426 -212 459 -212 z "},"Ừ":{"ha":1065,"x_min":56,"x_max":1066,"o":"m 588 917 l 795 917 l 795 353 q 751 157 795 240 q 624 29 706 74 q 426 -17 541 -17 q 228 29 311 -17 q 100 157 144 74 q 56 353 56 240 l 56 917 l 263 917 l 263 365 q 283 259 263 302 q 340 194 303 216 q 426 172 376 172 q 512 194 476 172 q 568 259 548 216 q 588 365 588 302 l 588 917 m 869 795 q 828 800 846 795 q 795 815 811 806 l 795 917 q 820 902 806 908 q 855 897 834 897 q 908 923 890 897 q 927 983 927 950 q 923 1032 927 1013 q 910 1070 919 1051 l 1044 1070 q 1058 1036 1049 1061 q 1067 969 1067 1011 q 1039 879 1067 918 q 966 817 1011 840 q 869 795 922 795 m 538 999 l 274 1153 l 374 1279 l 601 1085 l 538 999 z "},"Ử":{"ha":1065,"x_min":56,"x_max":1066,"o":"m 588 917 l 795 917 l 795 353 q 751 157 795 240 q 624 29 706 74 q 426 -17 541 -17 q 228 29 311 -17 q 100 157 144 74 q 56 353 56 240 l 56 917 l 263 917 l 263 365 q 283 259 263 302 q 340 194 303 216 q 426 172 376 172 q 512 194 476 172 q 568 259 548 216 q 588 365 588 302 l 588 917 m 869 795 q 828 800 846 795 q 795 815 811 806 l 795 917 q 820 902 806 908 q 855 897 834 897 q 908 923 890 897 q 927 983 927 950 q 923 1032 927 1013 q 910 1070 919 1051 l 1044 1070 q 1058 1036 1049 1061 q 1067 969 1067 1011 q 1039 879 1067 918 q 966 817 1011 840 q 869 795 922 795 m 404 947 l 353 1025 q 393 1043 369 1030 q 438 1076 418 1056 q 457 1122 457 1096 q 447 1159 457 1147 q 419 1174 436 1170 q 380 1177 401 1177 q 319 1167 350 1177 q 268 1145 289 1156 l 268 1253 q 313 1274 281 1261 q 407 1286 345 1286 q 492 1272 451 1286 q 558 1225 533 1258 q 584 1138 584 1193 q 564 1061 584 1094 q 515 1005 544 1028 q 455 968 485 982 q 404 947 425 954 z "},"Ữ":{"ha":1065,"x_min":56,"x_max":1066,"o":"m 588 917 l 795 917 l 795 353 q 751 157 795 240 q 624 29 706 74 q 426 -17 541 -17 q 228 29 311 -17 q 100 157 144 74 q 56 353 56 240 l 56 917 l 263 917 l 263 365 q 283 259 263 302 q 340 194 303 216 q 426 172 376 172 q 512 194 476 172 q 568 259 548 216 q 588 365 588 302 l 588 917 m 869 795 q 828 800 846 795 q 795 815 811 806 l 795 917 q 820 902 806 908 q 855 897 834 897 q 908 923 890 897 q 927 983 927 950 q 923 1032 927 1013 q 910 1070 919 1051 l 1044 1070 q 1058 1036 1049 1061 q 1067 969 1067 1011 q 1039 879 1067 918 q 966 817 1011 840 q 869 795 922 795 m 180 1027 q 206 1112 187 1068 q 256 1186 224 1156 q 331 1217 288 1217 q 408 1204 375 1217 q 471 1178 442 1191 q 531 1165 500 1165 q 564 1183 551 1165 q 581 1217 576 1201 l 693 1217 q 668 1132 687 1176 q 617 1058 649 1088 q 542 1027 586 1027 q 465 1040 499 1027 q 402 1065 432 1053 q 342 1078 373 1078 q 310 1060 323 1078 q 292 1027 297 1043 l 180 1027 z "},"Ű":{"ha":884,"x_min":56,"x_max":795,"o":"m 588 917 l 795 917 l 795 353 q 751 157 795 240 q 624 29 706 74 q 426 -17 541 -17 q 228 29 311 -17 q 100 157 144 74 q 56 353 56 240 l 56 917 l 263 917 l 263 365 q 283 259 263 302 q 340 194 303 216 q 426 172 376 172 q 512 194 476 172 q 568 259 548 216 q 588 365 588 302 l 588 917 m 222 961 l 160 1023 l 352 1190 l 443 1106 l 222 961 m 471 961 l 410 1023 l 601 1190 l 692 1106 l 471 961 z "},"Ȗ":{"ha":884,"x_min":56,"x_max":795,"o":"m 588 917 l 795 917 l 795 353 q 751 157 795 240 q 624 29 706 74 q 426 -17 541 -17 q 228 29 311 -17 q 100 157 144 74 q 56 353 56 240 l 56 917 l 263 917 l 263 365 q 283 259 263 302 q 340 194 303 216 q 426 172 376 172 q 512 194 476 172 q 568 259 548 216 q 588 365 588 302 l 588 917 m 322 965 l 201 994 q 235 1085 206 1045 q 313 1148 264 1125 q 426 1172 362 1172 q 538 1149 489 1172 q 616 1087 586 1126 q 651 994 646 1047 l 530 965 q 515 1010 527 986 q 481 1050 503 1033 q 426 1066 459 1066 q 370 1050 392 1066 q 336 1010 348 1033 q 322 965 324 986 z "},"Ū":{"ha":884,"x_min":56,"x_max":795,"o":"m 588 917 l 795 917 l 795 353 q 751 157 795 240 q 624 29 706 74 q 426 -17 541 -17 q 228 29 311 -17 q 100 157 144 74 q 56 353 56 240 l 56 917 l 263 917 l 263 365 q 283 259 263 302 q 340 194 303 216 q 426 172 376 172 q 512 194 476 172 q 568 259 548 216 q 588 365 588 302 l 588 917 m 199 1004 l 199 1136 l 652 1136 l 652 1004 l 199 1004 z "},"Ų":{"ha":876,"x_min":56,"x_max":795,"o":"m 588 917 l 795 917 l 795 353 q 751 157 795 240 q 624 29 706 74 q 426 -17 541 -17 q 228 29 311 -17 q 100 157 144 74 q 56 353 56 240 l 56 917 l 263 917 l 263 365 q 283 259 263 302 q 340 194 303 216 q 426 172 376 172 q 512 194 476 172 q 568 259 548 216 q 588 365 588 302 l 588 917 m 444 -302 q 382 -290 415 -302 q 327 -251 350 -278 q 305 -175 305 -223 q 324 -105 305 -143 q 369 -32 342 -67 q 422 28 397 3 l 483 0 q 453 -42 469 -17 q 427 -97 438 -68 q 416 -153 416 -126 q 430 -189 416 -178 q 462 -199 443 -199 q 495 -188 480 -199 q 517 -167 510 -177 l 596 -226 q 539 -277 580 -251 q 444 -302 497 -302 z "},"Ů":{"ha":884,"x_min":56,"x_max":795,"o":"m 588 917 l 795 917 l 795 353 q 751 157 795 240 q 624 29 706 74 q 426 -17 541 -17 q 228 29 311 -17 q 100 157 144 74 q 56 353 56 240 l 56 917 l 263 917 l 263 365 q 283 259 263 302 q 340 194 303 216 q 426 172 376 172 q 512 194 476 172 q 568 259 548 216 q 588 365 588 302 l 588 917 m 426 944 q 312 983 356 944 q 269 1084 269 1022 q 315 1184 269 1144 q 426 1223 360 1223 q 538 1184 493 1223 q 583 1084 583 1144 q 539 983 583 1022 q 426 944 495 944 m 426 1029 q 463 1044 448 1029 q 477 1084 477 1059 q 462 1122 477 1108 q 426 1136 447 1136 q 390 1122 405 1136 q 374 1084 374 1108 q 389 1044 374 1058 q 426 1029 404 1029 z "},"Ũ":{"ha":884,"x_min":56,"x_max":795,"o":"m 588 917 l 795 917 l 795 353 q 751 157 795 240 q 624 29 706 74 q 426 -17 541 -17 q 228 29 311 -17 q 100 157 144 74 q 56 353 56 240 l 56 917 l 263 917 l 263 365 q 283 259 263 302 q 340 194 303 216 q 426 172 376 172 q 512 194 476 172 q 568 259 548 216 q 588 365 588 302 l 588 917 m 169 978 q 195 1063 176 1019 q 245 1138 214 1107 q 321 1168 276 1168 q 398 1155 365 1168 q 460 1130 431 1142 q 520 1117 489 1117 q 553 1134 540 1117 q 570 1168 566 1152 l 683 1168 q 657 1084 676 1128 q 607 1009 638 1040 q 531 978 576 978 q 454 991 488 978 q 392 1017 421 1004 q 331 1030 363 1030 q 299 1013 312 1030 q 281 978 286 995 l 169 978 z "},"V":{"ha":937,"x_min":5,"x_max":892,"o":"m 566 0 l 331 0 l 5 917 l 239 917 l 449 265 l 658 917 l 892 917 l 566 0 z "},"W":{"ha":1271,"x_min":14,"x_max":1207,"o":"m 997 0 l 747 0 l 592 640 l 629 640 l 474 0 l 223 0 l 14 917 l 252 917 l 363 274 l 360 274 l 532 917 l 688 917 l 861 274 l 858 274 l 969 917 l 1207 917 l 997 0 z "},"Ẃ":{"ha":1271,"x_min":14,"x_max":1207,"o":"m 997 0 l 747 0 l 592 640 l 629 640 l 474 0 l 223 0 l 14 917 l 252 917 l 363 274 l 360 274 l 532 917 l 688 917 l 861 274 l 858 274 l 969 917 l 1207 917 l 997 0 m 560 956 l 497 1040 l 723 1235 l 824 1109 l 560 956 z "},"Ŵ":{"ha":1271,"x_min":14,"x_max":1207,"o":"m 997 0 l 747 0 l 592 640 l 629 640 l 474 0 l 223 0 l 14 917 l 252 917 l 363 274 l 360 274 l 532 917 l 688 917 l 861 274 l 858 274 l 969 917 l 1207 917 l 997 0 m 449 970 l 373 1071 l 618 1250 l 863 1070 l 788 970 l 618 1094 l 449 970 z "},"Ẅ":{"ha":1271,"x_min":14,"x_max":1207,"o":"m 997 0 l 747 0 l 592 640 l 629 640 l 474 0 l 223 0 l 14 917 l 252 917 l 363 274 l 360 274 l 532 917 l 688 917 l 861 274 l 858 274 l 969 917 l 1207 917 l 997 0 m 758 972 q 686 1002 715 972 q 656 1074 656 1033 q 686 1146 656 1116 q 758 1176 715 1176 q 830 1146 800 1176 q 859 1074 859 1116 q 830 1002 859 1032 q 758 972 800 972 m 478 972 q 407 1002 436 972 q 377 1074 377 1033 q 407 1146 377 1116 q 478 1176 436 1176 q 550 1146 520 1176 q 580 1074 580 1116 q 550 1002 580 1032 q 478 972 520 972 z "},"Ẁ":{"ha":1271,"x_min":14,"x_max":1207,"o":"m 997 0 l 747 0 l 592 640 l 629 640 l 474 0 l 223 0 l 14 917 l 252 917 l 363 274 l 360 274 l 532 917 l 688 917 l 861 274 l 858 274 l 969 917 l 1207 917 l 997 0 m 663 956 l 399 1109 l 500 1235 l 726 1040 l 663 956 z "},"X":{"ha":981,"x_min":6,"x_max":944,"o":"m 599 493 l 944 0 l 673 0 l 461 320 l 256 0 l 6 0 l 331 493 l 36 917 l 300 917 l 469 653 l 637 917 l 890 917 l 599 493 z "},"Y":{"ha":834,"x_min":-24,"x_max":814,"o":"m 292 330 l -24 917 l 228 917 l 395 567 l 563 917 l 814 917 l 499 330 l 499 0 l 292 0 l 292 330 z "},"Ý":{"ha":834,"x_min":-24,"x_max":814,"o":"m 292 330 l -24 917 l 228 917 l 395 567 l 563 917 l 814 917 l 499 330 l 499 0 l 292 0 l 292 330 m 337 956 l 274 1040 l 500 1235 l 601 1109 l 337 956 z "},"Ŷ":{"ha":834,"x_min":-24,"x_max":814,"o":"m 292 330 l -24 917 l 228 917 l 395 567 l 563 917 l 814 917 l 499 330 l 499 0 l 292 0 l 292 330 m 226 970 l 150 1071 l 395 1250 l 640 1070 l 565 970 l 395 1094 l 226 970 z "},"Ÿ":{"ha":834,"x_min":-24,"x_max":814,"o":"m 292 330 l -24 917 l 228 917 l 395 567 l 563 917 l 814 917 l 499 330 l 499 0 l 292 0 l 292 330 m 535 972 q 463 1002 492 972 q 433 1074 433 1033 q 463 1146 433 1116 q 535 1176 492 1176 q 607 1146 577 1176 q 636 1074 636 1116 q 607 1002 636 1032 q 535 972 577 972 m 256 972 q 184 1002 213 972 q 154 1074 154 1033 q 184 1146 154 1116 q 256 1176 213 1176 q 327 1146 297 1176 q 357 1074 357 1116 q 327 1002 357 1032 q 256 972 297 972 z "},"Ỵ":{"ha":834,"x_min":-24,"x_max":814,"o":"m 292 330 l -24 917 l 228 917 l 395 567 l 563 917 l 814 917 l 499 330 l 499 0 l 292 0 l 292 330 m 395 -222 q 339 -198 362 -222 q 315 -142 315 -174 q 339 -85 315 -109 q 395 -61 362 -61 q 451 -85 428 -61 q 475 -142 475 -109 q 451 -198 475 -175 q 395 -222 428 -222 z "},"Ỳ":{"ha":834,"x_min":-24,"x_max":814,"o":"m 292 330 l -24 917 l 228 917 l 395 567 l 563 917 l 814 917 l 499 330 l 499 0 l 292 0 l 292 330 m 440 956 l 176 1109 l 277 1235 l 503 1040 l 440 956 z "},"Ỷ":{"ha":834,"x_min":-24,"x_max":814,"o":"m 292 330 l -24 917 l 228 917 l 395 567 l 563 917 l 814 917 l 499 330 l 499 0 l 292 0 l 292 330 m 373 965 l 322 1033 q 362 1047 338 1036 q 406 1075 387 1058 q 426 1113 426 1092 q 415 1146 426 1135 q 388 1160 405 1157 q 349 1163 370 1163 q 288 1153 319 1163 q 237 1134 258 1143 l 237 1226 q 282 1244 249 1233 q 376 1255 314 1255 q 461 1243 420 1255 q 527 1203 501 1231 q 553 1127 553 1175 q 533 1063 553 1090 q 484 1015 513 1035 q 424 984 454 996 q 373 965 394 972 z "},"Ȳ":{"ha":834,"x_min":-24,"x_max":814,"o":"m 292 330 l -24 917 l 228 917 l 395 567 l 563 917 l 814 917 l 499 330 l 499 0 l 292 0 l 292 330 m 169 1004 l 169 1136 l 622 1136 l 622 1004 l 169 1004 z "},"Ỹ":{"ha":834,"x_min":-24,"x_max":814,"o":"m 292 330 l -24 917 l 228 917 l 395 567 l 563 917 l 814 917 l 499 330 l 499 0 l 292 0 l 292 330 m 139 978 q 164 1063 145 1019 q 215 1138 183 1107 q 290 1168 246 1168 q 367 1155 334 1168 q 430 1130 401 1142 q 490 1117 458 1117 q 523 1134 510 1117 q 540 1168 535 1152 l 652 1168 q 626 1084 645 1128 q 576 1009 608 1040 q 501 978 545 978 q 424 991 457 978 q 361 1017 390 1004 q 301 1030 332 1030 q 268 1013 281 1030 q 251 978 256 995 l 139 978 z "},"Z":{"ha":875,"x_min":7,"x_max":824,"o":"m 72 917 l 824 917 l 369 182 l 794 182 l 794 0 l 7 0 l 461 735 l 72 735 l 72 917 z "},"Ź":{"ha":875,"x_min":7,"x_max":824,"o":"m 72 917 l 824 917 l 369 182 l 794 182 l 794 0 l 7 0 l 461 735 l 72 735 l 72 917 m 358 956 l 295 1040 l 521 1235 l 622 1109 l 358 956 z "},"Ž":{"ha":875,"x_min":7,"x_max":824,"o":"m 72 917 l 824 917 l 369 182 l 794 182 l 794 0 l 7 0 l 461 735 l 72 735 l 72 917 m 417 978 l 203 1135 l 269 1223 l 417 1115 l 565 1223 l 630 1135 l 417 978 z "},"Ż":{"ha":875,"x_min":7,"x_max":824,"o":"m 72 917 l 824 917 l 369 182 l 794 182 l 794 0 l 7 0 l 461 735 l 72 735 l 72 917 m 416 991 q 344 1021 374 991 q 315 1093 315 1051 q 344 1165 315 1135 q 416 1195 374 1195 q 488 1165 458 1195 q 517 1093 517 1135 q 488 1021 517 1051 q 416 991 458 991 z "},"a":{"ha":784,"x_min":27,"x_max":708,"o":"m 501 0 l 501 92 q 469 52 494 78 q 402 5 444 26 q 305 -17 360 -17 q 159 24 222 -17 q 62 133 97 65 q 27 285 27 201 q 62 436 27 368 q 159 546 97 505 q 305 587 222 587 q 399 570 358 587 q 464 530 439 553 q 499 487 489 506 l 499 570 l 708 570 l 708 0 l 501 0 m 234 285 q 252 215 234 246 q 300 167 270 184 q 367 149 331 149 q 435 167 406 149 q 481 215 464 184 q 498 285 498 246 q 481 355 498 324 q 435 403 464 385 q 367 421 406 421 q 300 403 331 421 q 252 355 270 385 q 234 285 234 324 z "},"á":{"ha":784,"x_min":27,"x_max":708,"o":"m 501 0 l 501 92 q 469 52 494 78 q 402 5 444 26 q 305 -17 360 -17 q 159 24 222 -17 q 62 133 97 65 q 27 285 27 201 q 62 436 27 368 q 159 546 97 505 q 305 587 222 587 q 399 570 358 587 q 464 530 439 553 q 499 487 489 506 l 499 570 l 708 570 l 708 0 l 501 0 m 234 285 q 252 215 234 246 q 300 167 270 184 q 367 149 331 149 q 435 167 406 149 q 481 215 464 184 q 498 285 498 246 q 481 355 498 324 q 435 403 464 385 q 367 421 406 421 q 300 403 331 421 q 252 355 270 385 q 234 285 234 324 m 288 633 l 226 719 l 451 913 l 551 788 l 288 633 z "},"ă":{"ha":776,"x_min":27,"x_max":708,"o":"m 501 0 l 501 92 q 469 52 494 78 q 402 5 444 26 q 305 -17 360 -17 q 159 24 222 -17 q 62 133 97 65 q 27 285 27 201 q 62 436 27 368 q 159 546 97 505 q 305 587 222 587 q 399 570 358 587 q 464 530 439 553 q 499 487 489 506 l 499 570 l 708 570 l 708 0 l 501 0 m 234 285 q 252 215 234 246 q 300 167 270 184 q 367 149 331 149 q 435 167 406 149 q 481 215 464 184 q 498 285 498 246 q 481 355 498 324 q 435 403 464 385 q 367 421 406 421 q 300 403 331 421 q 252 355 270 385 q 234 285 234 324 m 377 638 q 251 664 306 638 q 161 734 195 689 q 121 839 128 779 l 260 874 q 277 823 264 849 q 315 777 290 796 q 377 759 340 759 q 440 777 415 759 q 478 823 465 796 q 494 874 491 849 l 633 839 q 593 736 626 781 q 505 664 560 690 q 377 638 450 638 z "},"ắ":{"ha":784,"x_min":27,"x_max":708,"o":"m 501 0 l 501 92 q 469 52 494 78 q 402 5 444 26 q 305 -17 360 -17 q 159 24 222 -17 q 62 133 97 65 q 27 285 27 201 q 62 436 27 368 q 159 546 97 505 q 305 587 222 587 q 399 570 358 587 q 464 530 439 553 q 499 487 489 506 l 499 570 l 708 570 l 708 0 l 501 0 m 234 285 q 252 215 234 246 q 300 167 270 184 q 367 149 331 149 q 435 167 406 149 q 481 215 464 184 q 498 285 498 246 q 481 355 498 324 q 435 403 464 385 q 367 421 406 421 q 300 403 331 421 q 252 355 270 385 q 234 285 234 324 m 377 638 q 251 663 306 638 q 162 734 196 688 q 121 838 128 779 l 260 873 q 277 822 264 849 q 315 777 290 795 q 377 758 340 758 q 440 777 415 758 q 478 822 465 795 q 494 873 492 849 l 633 838 q 593 735 626 781 q 506 664 560 690 q 377 638 451 638 m 316 885 l 253 970 l 480 1165 l 580 1039 l 316 885 z "},"ặ":{"ha":784,"x_min":27,"x_max":708,"o":"m 501 0 l 501 92 q 469 52 494 78 q 402 5 444 26 q 305 -17 360 -17 q 159 24 222 -17 q 62 133 97 65 q 27 285 27 201 q 62 436 27 368 q 159 546 97 505 q 305 587 222 587 q 399 570 358 587 q 464 530 439 553 q 499 487 489 506 l 499 570 l 708 570 l 708 0 l 501 0 m 234 285 q 252 215 234 246 q 300 167 270 184 q 367 149 331 149 q 435 167 406 149 q 481 215 464 184 q 498 285 498 246 q 481 355 498 324 q 435 403 464 385 q 367 421 406 421 q 300 403 331 421 q 252 355 270 385 q 234 285 234 324 m 381 -212 q 324 -189 347 -212 q 301 -133 301 -165 q 324 -76 301 -100 q 381 -52 347 -52 q 437 -76 414 -52 q 460 -133 460 -100 q 437 -189 460 -165 q 381 -212 414 -212 m 377 638 q 251 664 306 638 q 161 734 195 689 q 121 839 128 779 l 260 874 q 277 823 264 849 q 315 777 290 796 q 377 759 340 759 q 440 777 415 759 q 478 823 465 796 q 494 874 491 849 l 633 839 q 593 736 626 781 q 505 664 560 690 q 377 638 450 638 z "},"ằ":{"ha":784,"x_min":27,"x_max":708,"o":"m 501 0 l 501 92 q 469 52 494 78 q 402 5 444 26 q 305 -17 360 -17 q 159 24 222 -17 q 62 133 97 65 q 27 285 27 201 q 62 436 27 368 q 159 546 97 505 q 305 587 222 587 q 399 570 358 587 q 464 530 439 553 q 499 487 489 506 l 499 570 l 708 570 l 708 0 l 501 0 m 234 285 q 252 215 234 246 q 300 167 270 184 q 367 149 331 149 q 435 167 406 149 q 481 215 464 184 q 498 285 498 246 q 481 355 498 324 q 435 403 464 385 q 367 421 406 421 q 300 403 331 421 q 252 355 270 385 q 234 285 234 324 m 438 889 l 174 1042 l 274 1169 l 501 974 l 438 889 m 376 638 q 249 664 304 638 q 161 735 194 690 q 121 838 128 781 l 260 873 q 276 822 263 849 q 314 777 290 795 q 376 758 339 758 q 439 777 415 758 q 477 822 464 795 q 493 873 490 849 l 633 838 q 592 734 626 779 q 503 664 558 689 q 376 638 449 638 z "},"ẳ":{"ha":784,"x_min":27,"x_max":708,"o":"m 501 0 l 501 92 q 469 52 494 78 q 402 5 444 26 q 305 -17 360 -17 q 159 24 222 -17 q 62 133 97 65 q 27 285 27 201 q 62 436 27 368 q 159 546 97 505 q 305 587 222 587 q 399 570 358 587 q 464 530 439 553 q 499 487 489 506 l 499 570 l 708 570 l 708 0 l 501 0 m 234 285 q 252 215 234 246 q 300 167 270 184 q 367 149 331 149 q 435 167 406 149 q 481 215 464 184 q 498 285 498 246 q 481 355 498 324 q 435 403 464 385 q 367 421 406 421 q 300 403 331 421 q 252 355 270 385 q 234 285 234 324 m 355 872 l 304 951 q 344 968 319 956 q 388 1001 369 981 q 408 1047 408 1022 q 397 1085 408 1073 q 369 1100 387 1097 q 331 1103 352 1103 q 270 1093 301 1103 q 219 1072 240 1082 l 219 1178 q 264 1199 231 1187 q 358 1212 296 1212 q 443 1198 402 1212 q 509 1151 483 1183 q 535 1064 535 1119 q 515 988 535 1020 q 466 932 495 955 q 406 894 436 908 q 355 872 376 880 m 377 638 q 251 663 306 638 q 162 734 196 688 q 121 838 128 779 l 260 873 q 277 822 264 849 q 315 777 290 795 q 377 758 340 758 q 440 777 415 758 q 478 822 465 795 q 494 873 492 849 l 633 838 q 593 735 626 781 q 506 664 560 690 q 377 638 451 638 z "},"ẵ":{"ha":784,"x_min":27,"x_max":708,"o":"m 501 0 l 501 92 q 469 52 494 78 q 402 5 444 26 q 305 -17 360 -17 q 159 24 222 -17 q 62 133 97 65 q 27 285 27 201 q 62 436 27 368 q 159 546 97 505 q 305 587 222 587 q 399 570 358 587 q 464 530 439 553 q 499 487 489 506 l 499 570 l 708 570 l 708 0 l 501 0 m 234 285 q 252 215 234 246 q 300 167 270 184 q 367 149 331 149 q 435 167 406 149 q 481 215 464 184 q 498 285 498 246 q 481 355 498 324 q 435 403 464 385 q 367 421 406 421 q 300 403 331 421 q 252 355 270 385 q 234 285 234 324 m 131 943 q 157 1028 138 984 q 207 1102 176 1072 q 283 1133 239 1133 q 360 1120 326 1133 q 422 1094 393 1107 q 482 1081 451 1081 q 515 1098 502 1081 q 533 1133 527 1114 l 644 1133 q 620 1051 639 1095 q 569 975 601 1006 q 493 943 538 943 q 417 956 450 943 q 354 982 383 969 q 294 994 324 994 q 261 977 274 994 q 244 943 249 960 l 131 943 m 377 638 q 251 663 306 638 q 162 734 196 688 q 121 838 128 779 l 260 873 q 277 822 264 849 q 315 777 290 795 q 377 758 340 758 q 440 777 415 758 q 478 822 465 795 q 494 873 492 849 l 633 838 q 593 735 626 781 q 506 664 560 690 q 377 638 451 638 z "},"ǎ":{"ha":784,"x_min":27,"x_max":708,"o":"m 501 0 l 501 92 q 469 52 494 78 q 402 5 444 26 q 305 -17 360 -17 q 159 24 222 -17 q 62 133 97 65 q 27 285 27 201 q 62 436 27 368 q 159 546 97 505 q 305 587 222 587 q 399 570 358 587 q 464 530 439 553 q 499 487 489 506 l 499 570 l 708 570 l 708 0 l 501 0 m 234 285 q 252 215 234 246 q 300 167 270 184 q 367 149 331 149 q 435 167 406 149 q 481 215 464 184 q 498 285 498 246 q 481 355 498 324 q 435 403 464 385 q 367 421 406 421 q 300 403 331 421 q 252 355 270 385 q 234 285 234 324 m 389 653 l 144 832 l 219 933 l 389 808 l 558 933 l 634 832 l 389 653 z "},"â":{"ha":784,"x_min":27,"x_max":708,"o":"m 501 0 l 501 92 q 469 52 494 78 q 402 5 444 26 q 305 -17 360 -17 q 159 24 222 -17 q 62 133 97 65 q 27 285 27 201 q 62 436 27 368 q 159 546 97 505 q 305 587 222 587 q 399 570 358 587 q 464 530 439 553 q 499 487 489 506 l 499 570 l 708 570 l 708 0 l 501 0 m 234 285 q 252 215 234 246 q 300 167 270 184 q 367 149 331 149 q 435 167 406 149 q 481 215 464 184 q 498 285 498 246 q 481 355 498 324 q 435 403 464 385 q 367 421 406 421 q 300 403 331 421 q 252 355 270 385 q 234 285 234 324 m 547 617 l 378 742 l 208 618 l 133 718 l 378 897 l 623 718 l 547 617 z "},"ấ":{"ha":784,"x_min":27,"x_max":819,"o":"m 501 0 l 501 92 q 469 52 494 78 q 402 5 444 26 q 305 -17 360 -17 q 159 24 222 -17 q 62 133 97 65 q 27 285 27 201 q 62 436 27 368 q 159 546 97 505 q 305 587 222 587 q 399 570 358 587 q 464 530 439 553 q 499 487 489 506 l 499 570 l 708 570 l 708 0 l 501 0 m 234 285 q 252 215 234 246 q 300 167 270 184 q 367 149 331 149 q 435 167 406 149 q 481 215 464 184 q 498 285 498 246 q 481 355 498 324 q 435 403 464 385 q 367 421 406 421 q 300 403 331 421 q 252 355 270 385 q 234 285 234 324 m 548 616 l 378 740 l 209 616 l 133 716 l 378 895 l 624 716 l 548 616 m 555 820 l 493 905 l 719 1100 l 819 974 l 555 820 z "},"ậ":{"ha":784,"x_min":27,"x_max":708,"o":"m 501 0 l 501 92 q 469 52 494 78 q 402 5 444 26 q 305 -17 360 -17 q 159 24 222 -17 q 62 133 97 65 q 27 285 27 201 q 62 436 27 368 q 159 546 97 505 q 305 587 222 587 q 399 570 358 587 q 464 530 439 553 q 499 487 489 506 l 499 570 l 708 570 l 708 0 l 501 0 m 234 285 q 252 215 234 246 q 300 167 270 184 q 367 149 331 149 q 435 167 406 149 q 481 215 464 184 q 498 285 498 246 q 481 355 498 324 q 435 403 464 385 q 367 421 406 421 q 300 403 331 421 q 252 355 270 385 q 234 285 234 324 m 381 -212 q 324 -189 347 -212 q 301 -133 301 -165 q 324 -76 301 -100 q 381 -52 347 -52 q 437 -76 414 -52 q 460 -133 460 -100 q 437 -189 460 -165 q 381 -212 414 -212 m 547 617 l 378 742 l 208 618 l 133 718 l 378 897 l 623 718 l 547 617 z "},"ầ":{"ha":784,"x_min":27,"x_max":726,"o":"m 501 0 l 501 92 q 469 52 494 78 q 402 5 444 26 q 305 -17 360 -17 q 159 24 222 -17 q 62 133 97 65 q 27 285 27 201 q 62 436 27 368 q 159 546 97 505 q 305 587 222 587 q 399 570 358 587 q 464 530 439 553 q 499 487 489 506 l 499 570 l 708 570 l 708 0 l 501 0 m 234 285 q 252 215 234 246 q 300 167 270 184 q 367 149 331 149 q 435 167 406 149 q 481 215 464 184 q 498 285 498 246 q 481 355 498 324 q 435 403 464 385 q 367 421 406 421 q 300 403 331 421 q 252 355 270 385 q 234 285 234 324 m 549 618 l 379 742 l 210 619 l 134 719 l 379 898 l 624 719 l 549 618 m 664 808 l 400 962 l 500 1088 l 726 894 l 664 808 z "},"ẩ":{"ha":784,"x_min":27,"x_max":708,"o":"m 501 0 l 501 92 q 469 52 494 78 q 402 5 444 26 q 305 -17 360 -17 q 159 24 222 -17 q 62 133 97 65 q 27 285 27 201 q 62 436 27 368 q 159 546 97 505 q 305 587 222 587 q 399 570 358 587 q 464 530 439 553 q 499 487 489 506 l 499 570 l 708 570 l 708 0 l 501 0 m 234 285 q 252 215 234 246 q 300 167 270 184 q 367 149 331 149 q 435 167 406 149 q 481 215 464 184 q 498 285 498 246 q 481 355 498 324 q 435 403 464 385 q 367 421 406 421 q 300 403 331 421 q 252 355 270 385 q 234 285 234 324 m 517 836 l 466 915 q 506 932 481 919 q 550 965 531 945 q 569 1011 569 985 q 559 1049 569 1037 q 531 1064 549 1060 q 492 1067 514 1067 q 432 1057 463 1067 q 381 1035 401 1046 l 381 1142 q 425 1163 393 1151 q 519 1176 458 1176 q 605 1161 564 1176 q 671 1115 645 1147 q 697 1028 697 1083 q 677 951 697 984 q 627 895 657 919 q 568 858 598 872 q 517 836 538 844 m 549 616 l 379 740 l 210 616 l 134 716 l 379 895 l 624 716 l 549 616 z "},"ẫ":{"ha":784,"x_min":27,"x_max":708,"o":"m 501 0 l 501 92 q 469 52 494 78 q 402 5 444 26 q 305 -17 360 -17 q 159 24 222 -17 q 62 133 97 65 q 27 285 27 201 q 62 436 27 368 q 159 546 97 505 q 305 587 222 587 q 399 570 358 587 q 464 530 439 553 q 499 487 489 506 l 499 570 l 708 570 l 708 0 l 501 0 m 234 285 q 252 215 234 246 q 300 167 270 184 q 367 149 331 149 q 435 167 406 149 q 481 215 464 184 q 498 285 498 246 q 481 355 498 324 q 435 403 464 385 q 367 421 406 421 q 300 403 331 421 q 252 355 270 385 q 234 285 234 324 m 128 916 q 154 1000 135 956 q 204 1075 173 1044 q 280 1106 235 1106 q 357 1093 324 1106 q 419 1067 390 1080 q 479 1054 448 1054 q 512 1072 499 1054 q 529 1106 525 1090 l 642 1106 q 616 1021 635 1065 q 566 947 597 977 q 490 916 535 916 q 413 929 447 916 q 351 954 380 942 q 290 967 322 967 q 258 949 271 967 q 240 916 245 932 l 128 916 m 546 616 l 376 740 l 207 616 l 131 716 l 376 895 l 622 716 l 546 616 z "},"ȁ":{"ha":784,"x_min":27,"x_max":708,"o":"m 501 0 l 501 92 q 469 52 494 78 q 402 5 444 26 q 305 -17 360 -17 q 159 24 222 -17 q 62 133 97 65 q 27 285 27 201 q 62 436 27 368 q 159 546 97 505 q 305 587 222 587 q 399 570 358 587 q 464 530 439 553 q 499 487 489 506 l 499 570 l 708 570 l 708 0 l 501 0 m 234 285 q 252 215 234 246 q 300 167 270 184 q 367 149 331 149 q 435 167 406 149 q 481 215 464 184 q 498 285 498 246 q 481 355 498 324 q 435 403 464 385 q 367 421 406 421 q 300 403 331 421 q 252 355 270 385 q 234 285 234 324 m 603 653 l 339 806 l 439 933 l 665 738 l 603 653 m 309 653 l 45 806 l 145 933 l 372 738 l 309 653 z "},"ä":{"ha":784,"x_min":27,"x_max":708,"o":"m 501 0 l 501 92 q 469 52 494 78 q 402 5 444 26 q 305 -17 360 -17 q 159 24 222 -17 q 62 133 97 65 q 27 285 27 201 q 62 436 27 368 q 159 546 97 505 q 305 587 222 587 q 399 570 358 587 q 464 530 439 553 q 499 487 489 506 l 499 570 l 708 570 l 708 0 l 501 0 m 234 285 q 252 215 234 246 q 300 167 270 184 q 367 149 331 149 q 435 167 406 149 q 481 215 464 184 q 498 285 498 246 q 481 355 498 324 q 435 403 464 385 q 367 421 406 421 q 300 403 331 421 q 252 355 270 385 q 234 285 234 324 m 527 669 q 455 699 485 669 q 425 771 425 729 q 455 843 425 813 q 527 873 485 873 q 599 843 569 873 q 628 771 628 813 q 599 699 628 728 q 527 669 569 669 m 248 669 q 175 699 205 669 q 146 771 146 729 q 175 843 146 813 q 248 873 205 873 q 319 843 290 873 q 349 771 349 813 q 319 699 349 728 q 248 669 290 669 z "},"ạ":{"ha":784,"x_min":27,"x_max":708,"o":"m 501 0 l 501 92 q 469 52 494 78 q 402 5 444 26 q 305 -17 360 -17 q 159 24 222 -17 q 62 133 97 65 q 27 285 27 201 q 62 436 27 368 q 159 546 97 505 q 305 587 222 587 q 399 570 358 587 q 464 530 439 553 q 499 487 489 506 l 499 570 l 708 570 l 708 0 l 501 0 m 234 285 q 252 215 234 246 q 300 167 270 184 q 367 149 331 149 q 435 167 406 149 q 481 215 464 184 q 498 285 498 246 q 481 355 498 324 q 435 403 464 385 q 367 421 406 421 q 300 403 331 421 q 252 355 270 385 q 234 285 234 324 m 381 -212 q 324 -189 347 -212 q 301 -133 301 -165 q 324 -76 301 -100 q 381 -52 347 -52 q 437 -76 414 -52 q 460 -133 460 -100 q 437 -189 460 -165 q 381 -212 414 -212 z "},"à":{"ha":784,"x_min":27,"x_max":708,"o":"m 501 0 l 501 92 q 469 52 494 78 q 402 5 444 26 q 305 -17 360 -17 q 159 24 222 -17 q 62 133 97 65 q 27 285 27 201 q 62 436 27 368 q 159 546 97 505 q 305 587 222 587 q 399 570 358 587 q 464 530 439 553 q 499 487 489 506 l 499 570 l 708 570 l 708 0 l 501 0 m 234 285 q 252 215 234 246 q 300 167 270 184 q 367 149 331 149 q 435 167 406 149 q 481 215 464 184 q 498 285 498 246 q 481 355 498 324 q 435 403 464 385 q 367 421 406 421 q 300 403 331 421 q 252 355 270 385 q 234 285 234 324 m 490 653 l 226 806 l 326 933 l 552 738 l 490 653 z "},"ả":{"ha":784,"x_min":27,"x_max":708,"o":"m 501 0 l 501 92 q 469 52 494 78 q 402 5 444 26 q 305 -17 360 -17 q 159 24 222 -17 q 62 133 97 65 q 27 285 27 201 q 62 436 27 368 q 159 546 97 505 q 305 587 222 587 q 399 570 358 587 q 464 530 439 553 q 499 487 489 506 l 499 570 l 708 570 l 708 0 l 501 0 m 234 285 q 252 215 234 246 q 300 167 270 184 q 367 149 331 149 q 435 167 406 149 q 481 215 464 184 q 498 285 498 246 q 481 355 498 324 q 435 403 464 385 q 367 421 406 421 q 300 403 331 421 q 252 355 270 385 q 234 285 234 324 m 355 600 l 304 678 q 344 696 319 683 q 388 729 369 709 q 408 775 408 749 q 397 812 408 801 q 369 827 387 824 q 331 831 352 831 q 270 820 301 831 q 219 799 240 810 l 219 906 q 264 927 231 915 q 358 940 296 940 q 443 925 402 940 q 509 879 483 911 q 535 792 535 847 q 515 715 535 748 q 466 659 495 682 q 406 622 436 635 q 355 600 376 608 z "},"ȃ":{"ha":784,"x_min":27,"x_max":708,"o":"m 501 0 l 501 92 q 469 52 494 78 q 402 5 444 26 q 305 -17 360 -17 q 159 24 222 -17 q 62 133 97 65 q 27 285 27 201 q 62 436 27 368 q 159 546 97 505 q 305 587 222 587 q 399 570 358 587 q 464 530 439 553 q 499 487 489 506 l 499 570 l 708 570 l 708 0 l 501 0 m 234 285 q 252 215 234 246 q 300 167 270 184 q 367 149 331 149 q 435 167 406 149 q 481 215 464 184 q 498 285 498 246 q 481 355 498 324 q 435 403 464 385 q 367 421 406 421 q 300 403 331 421 q 252 355 270 385 q 234 285 234 324 m 260 629 l 121 664 q 160 767 128 722 q 248 839 193 813 q 376 865 303 865 q 503 839 448 865 q 592 769 558 814 q 633 664 626 724 l 493 629 q 477 681 490 654 q 439 726 464 708 q 376 744 415 744 q 314 726 339 744 q 276 681 289 708 q 260 629 263 654 z "},"ā":{"ha":776,"x_min":27,"x_max":708,"o":"m 501 0 l 501 92 q 469 52 494 78 q 402 5 444 26 q 305 -17 360 -17 q 159 24 222 -17 q 62 133 97 65 q 27 285 27 201 q 62 436 27 368 q 159 546 97 505 q 305 587 222 587 q 399 570 358 587 q 464 530 439 553 q 499 487 489 506 l 499 570 l 708 570 l 708 0 l 501 0 m 234 285 q 252 215 234 246 q 300 167 270 184 q 367 149 331 149 q 435 167 406 149 q 481 215 464 184 q 498 285 498 246 q 481 355 498 324 q 435 403 464 385 q 367 421 406 421 q 300 403 331 421 q 252 355 270 385 q 234 285 234 324 m 148 705 l 148 837 l 600 837 l 600 705 l 148 705 z "},"ą":{"ha":776,"x_min":27,"x_max":753,"o":"m 501 0 l 501 92 q 469 52 494 78 q 402 5 444 26 q 305 -17 360 -17 q 159 24 222 -17 q 62 133 97 65 q 27 285 27 201 q 62 436 27 368 q 159 546 97 505 q 305 587 222 587 q 399 570 358 587 q 464 530 439 553 q 499 487 489 506 l 499 570 l 708 570 l 708 0 l 501 0 m 234 285 q 252 215 234 246 q 300 167 270 184 q 367 149 331 149 q 435 167 406 149 q 481 215 464 184 q 498 285 498 246 q 481 355 498 324 q 435 403 464 385 q 367 421 406 421 q 300 403 331 421 q 252 355 270 385 q 234 285 234 324 m 601 -302 q 540 -290 572 -302 q 485 -251 508 -278 q 463 -175 463 -223 q 481 -105 463 -143 q 527 -32 500 -67 q 579 28 554 3 l 641 0 q 611 -42 626 -17 q 585 -97 596 -68 q 574 -153 574 -126 q 587 -189 574 -178 q 619 -199 601 -199 q 653 -188 638 -199 q 675 -167 668 -177 l 753 -226 q 696 -277 738 -251 q 601 -302 655 -302 z "},"å":{"ha":784,"x_min":27,"x_max":708,"o":"m 501 0 l 501 92 q 469 52 494 78 q 402 5 444 26 q 305 -17 360 -17 q 159 24 222 -17 q 62 133 97 65 q 27 285 27 201 q 62 436 27 368 q 159 546 97 505 q 305 587 222 587 q 399 570 358 587 q 464 530 439 553 q 499 487 489 506 l 499 570 l 708 570 l 708 0 l 501 0 m 234 285 q 252 215 234 246 q 300 167 270 184 q 367 149 331 149 q 435 167 406 149 q 481 215 464 184 q 498 285 498 246 q 481 355 498 324 q 435 403 464 385 q 367 421 406 421 q 300 403 331 421 q 252 355 270 385 q 234 285 234 324 m 377 638 q 248 682 297 638 q 199 796 199 726 q 223 877 199 842 q 287 933 247 913 q 377 953 327 953 q 467 933 427 953 q 531 877 508 913 q 555 796 555 842 q 505 682 555 726 q 377 638 455 638 m 377 736 q 417 752 401 736 q 433 796 433 769 q 417 839 433 823 q 377 854 400 854 q 336 839 353 854 q 319 796 319 823 q 336 752 319 768 q 377 736 353 736 z "},"ǻ":{"ha":784,"x_min":27,"x_max":708,"o":"m 501 0 l 501 92 q 469 52 494 78 q 402 5 444 26 q 305 -17 360 -17 q 159 24 222 -17 q 62 133 97 65 q 27 285 27 201 q 62 436 27 368 q 159 546 97 505 q 305 587 222 587 q 399 570 358 587 q 464 530 439 553 q 499 487 489 506 l 499 570 l 708 570 l 708 0 l 501 0 m 234 285 q 252 215 234 246 q 300 167 270 184 q 367 149 331 149 q 435 167 406 149 q 481 215 464 184 q 498 285 498 246 q 481 355 498 324 q 435 403 464 385 q 367 421 406 421 q 300 403 331 421 q 252 355 270 385 q 234 285 234 324 m 377 638 q 248 682 297 638 q 199 796 199 726 q 223 877 199 842 q 287 933 247 913 q 377 953 327 953 q 467 933 427 953 q 531 877 508 913 q 555 796 555 842 q 505 682 555 726 q 377 638 455 638 m 377 736 q 417 752 401 736 q 433 796 433 769 q 417 839 433 823 q 377 854 400 854 q 336 839 353 854 q 319 796 319 823 q 336 752 319 768 q 377 736 353 736 m 288 955 l 226 1040 l 451 1235 l 551 1109 l 288 955 z "},"ã":{"ha":784,"x_min":27,"x_max":708,"o":"m 501 0 l 501 92 q 469 52 494 78 q 402 5 444 26 q 305 -17 360 -17 q 159 24 222 -17 q 62 133 97 65 q 27 285 27 201 q 62 436 27 368 q 159 546 97 505 q 305 587 222 587 q 399 570 358 587 q 464 530 439 553 q 499 487 489 506 l 499 570 l 708 570 l 708 0 l 501 0 m 234 285 q 252 215 234 246 q 300 167 270 184 q 367 149 331 149 q 435 167 406 149 q 481 215 464 184 q 498 285 498 246 q 481 355 498 324 q 435 403 464 385 q 367 421 406 421 q 300 403 331 421 q 252 355 270 385 q 234 285 234 324 m 131 681 q 157 765 138 722 q 207 840 176 809 q 283 870 239 870 q 360 857 326 870 q 422 832 393 844 q 482 819 451 819 q 515 836 502 819 q 533 870 528 854 l 644 870 q 619 785 638 829 q 569 711 600 742 q 493 681 538 681 q 417 693 450 681 q 354 719 383 706 q 294 731 324 731 q 261 714 274 731 q 244 681 249 697 l 131 681 z "},"æ":{"ha":1094,"x_min":35,"x_max":1043,"o":"m 263 -17 q 152 6 201 -17 q 75 73 103 29 q 47 178 47 116 q 77 268 47 228 q 160 333 108 309 q 281 358 213 358 q 357 350 326 358 q 406 332 388 342 q 431 316 424 322 l 431 332 q 421 376 431 356 q 393 410 412 396 q 348 432 375 424 q 284 440 320 440 q 185 426 228 440 q 122 397 141 411 l 35 531 q 133 568 63 549 q 300 587 203 587 q 401 572 356 587 q 479 534 447 558 q 525 483 511 511 q 578 532 545 508 q 653 571 610 556 q 746 587 697 587 q 900 555 833 587 q 1005 456 967 522 q 1043 285 1043 389 q 1042 271 1043 278 q 1042 258 1042 263 l 628 258 q 650 187 628 214 q 703 149 673 160 q 758 137 734 137 q 819 147 789 137 q 873 172 849 157 q 913 203 897 187 l 1026 84 q 956 34 997 57 q 863 -3 915 11 q 746 -17 811 -17 q 652 -2 697 -17 q 571 38 607 13 q 511 94 535 63 q 466 46 499 72 q 382 2 433 20 q 263 -17 331 -17 m 303 103 q 347 115 327 103 q 378 143 367 126 q 390 181 390 161 q 366 233 390 213 q 308 253 342 253 q 267 244 287 253 q 235 218 247 235 q 223 178 223 201 q 246 126 223 147 q 303 103 269 104 m 633 364 l 857 364 q 849 392 855 375 q 832 425 844 408 q 801 452 821 441 q 752 463 782 463 q 671 434 704 463 q 633 364 638 406 z "},"ǽ":{"ha":1094,"x_min":35,"x_max":1043,"o":"m 263 -17 q 152 6 201 -17 q 75 73 103 29 q 47 178 47 116 q 77 268 47 228 q 160 333 108 309 q 281 358 213 358 q 357 350 326 358 q 406 332 388 342 q 431 316 424 322 l 431 332 q 421 376 431 356 q 393 410 412 396 q 348 432 375 424 q 284 440 320 440 q 185 426 228 440 q 122 397 141 411 l 35 531 q 133 568 63 549 q 300 587 203 587 q 401 572 356 587 q 479 534 447 558 q 525 483 511 511 q 578 532 545 508 q 653 571 610 556 q 746 587 697 587 q 900 555 833 587 q 1005 456 967 522 q 1043 285 1043 389 q 1042 271 1043 278 q 1042 258 1042 263 l 628 258 q 650 187 628 214 q 703 149 673 160 q 758 137 734 137 q 819 147 789 137 q 873 172 849 157 q 913 203 897 187 l 1026 84 q 956 34 997 57 q 863 -3 915 11 q 746 -17 811 -17 q 652 -2 697 -17 q 571 38 607 13 q 511 94 535 63 q 466 46 499 72 q 382 2 433 20 q 263 -17 331 -17 m 303 103 q 347 115 327 103 q 378 143 367 126 q 390 181 390 161 q 366 233 390 213 q 308 253 342 253 q 267 244 287 253 q 235 218 247 235 q 223 178 223 201 q 246 126 223 147 q 303 103 269 104 m 633 364 l 857 364 q 849 392 855 375 q 832 425 844 408 q 801 452 821 441 q 752 463 782 463 q 671 434 704 463 q 633 364 638 406 m 463 633 l 401 719 l 627 913 l 727 788 l 463 633 z "},"b":{"ha":776,"x_min":55,"x_max":736,"o":"m 55 0 l 55 956 l 266 956 l 266 487 q 298 530 272 506 q 367 570 324 553 q 464 587 410 587 q 608 546 547 587 q 703 436 669 505 q 736 285 736 368 q 703 133 736 201 q 608 24 669 65 q 464 -17 547 -17 q 377 0 418 -17 q 307 41 337 16 q 264 92 278 67 l 264 0 l 55 0 m 529 285 q 512 355 529 324 q 466 403 495 385 q 399 421 436 421 q 331 403 361 421 q 283 355 301 385 q 266 285 266 324 q 283 215 266 246 q 331 167 301 184 q 399 149 361 149 q 466 167 436 149 q 512 215 495 184 q 529 285 529 246 z "},"c":{"ha":592,"x_min":36,"x_max":565,"o":"m 367 149 q 433 163 407 149 q 467 185 458 176 l 564 42 q 526 18 553 33 q 458 -6 499 4 q 365 -17 417 -17 q 193 20 267 -17 q 77 126 119 58 q 36 285 36 194 q 77 445 36 378 q 193 550 119 513 q 365 587 267 587 q 457 576 417 587 q 526 552 498 565 q 565 528 553 538 l 466 384 q 448 398 461 389 q 415 414 435 407 q 367 421 395 421 q 304 403 333 421 q 256 356 274 386 q 238 285 238 325 q 256 215 238 246 q 304 167 274 184 q 367 149 333 149 z "},"ć":{"ha":567,"x_min":36,"x_max":565,"o":"m 367 149 q 433 163 407 149 q 467 185 458 176 l 564 42 q 526 18 553 33 q 458 -6 499 4 q 365 -17 417 -17 q 193 20 267 -17 q 77 126 119 58 q 36 285 36 194 q 77 445 36 378 q 193 550 119 513 q 365 587 267 587 q 457 576 417 587 q 526 552 498 565 q 565 528 553 538 l 466 384 q 448 398 461 389 q 415 414 435 407 q 367 421 395 421 q 304 403 333 421 q 256 356 274 386 q 238 285 238 325 q 256 215 238 246 q 304 167 274 184 q 367 149 333 149 m 272 653 l 210 738 l 436 933 l 536 806 l 272 653 z "},"č":{"ha":567,"x_min":36,"x_max":607,"o":"m 367 149 q 433 163 407 149 q 467 185 458 176 l 564 42 q 526 18 553 33 q 458 -6 499 4 q 365 -17 417 -17 q 193 20 267 -17 q 77 126 119 58 q 36 285 36 194 q 77 445 36 378 q 193 550 119 513 q 365 587 267 587 q 457 576 417 587 q 526 552 498 565 q 565 528 553 538 l 466 384 q 448 398 461 389 q 415 414 435 407 q 367 421 395 421 q 304 403 333 421 q 256 356 274 386 q 238 285 238 325 q 256 215 238 246 q 304 167 274 184 q 367 149 333 149 m 363 653 l 117 832 l 193 933 l 363 808 l 532 933 l 608 832 l 363 653 z "},"ç":{"ha":567,"x_min":36,"x_max":565,"o":"m 367 149 q 433 163 407 149 q 467 185 458 176 l 564 42 q 526 18 553 33 q 458 -6 499 4 q 365 -17 417 -17 q 193 20 267 -17 q 77 126 119 58 q 36 285 36 194 q 77 445 36 378 q 193 550 119 513 q 365 587 267 587 q 457 576 417 587 q 526 552 498 565 q 565 528 553 538 l 466 384 q 448 398 461 389 q 415 414 435 407 q 367 421 395 421 q 304 403 333 421 q 256 356 274 386 q 238 285 238 325 q 256 215 238 246 q 304 167 274 184 q 367 149 333 149 m 290 -301 q 178 -281 224 -301 q 115 -242 133 -260 l 185 -163 q 221 -192 197 -177 q 272 -206 245 -206 q 312 -194 297 -206 q 327 -163 327 -183 q 308 -128 327 -140 q 264 -117 290 -117 q 227 -120 242 -117 q 208 -127 213 -124 l 197 -119 l 251 29 l 324 4 l 299 -58 q 373 -67 338 -56 q 430 -103 408 -79 q 451 -164 451 -128 q 429 -237 451 -207 q 370 -284 407 -268 q 290 -301 333 -301 z "},"ĉ":{"ha":592,"x_min":36,"x_max":596,"o":"m 367 149 q 433 163 407 149 q 467 185 458 176 l 564 42 q 526 18 553 33 q 458 -6 499 4 q 365 -17 417 -17 q 193 20 267 -17 q 77 126 119 58 q 36 285 36 194 q 77 445 36 378 q 193 550 119 513 q 365 587 267 587 q 457 576 417 587 q 526 552 498 565 q 565 528 553 538 l 466 384 q 448 398 461 389 q 415 414 435 407 q 367 421 395 421 q 304 403 333 421 q 256 356 274 386 q 238 285 238 325 q 256 215 238 246 q 304 167 274 184 q 367 149 333 149 m 521 617 l 351 742 l 182 618 l 106 718 l 351 897 l 597 718 l 521 617 z "},"ċ":{"ha":567,"x_min":36,"x_max":565,"o":"m 367 149 q 433 163 407 149 q 467 185 458 176 l 564 42 q 526 18 553 33 q 458 -6 499 4 q 365 -17 417 -17 q 193 20 267 -17 q 77 126 119 58 q 36 285 36 194 q 77 445 36 378 q 193 550 119 513 q 365 587 267 587 q 457 576 417 587 q 526 552 498 565 q 565 528 553 538 l 466 384 q 448 398 461 389 q 415 414 435 407 q 367 421 395 421 q 304 403 333 421 q 256 356 274 386 q 238 285 238 325 q 256 215 238 246 q 304 167 274 184 q 367 149 333 149 m 362 675 q 290 705 319 675 q 260 776 260 735 q 290 848 260 818 q 362 878 319 878 q 433 849 403 878 q 463 776 463 819 q 433 705 463 734 q 362 675 403 675 z "},"d":{"ha":776,"x_min":31,"x_max":712,"o":"m 303 -17 q 159 24 220 -17 q 64 133 98 65 q 31 285 31 201 q 64 436 31 368 q 159 546 98 505 q 303 587 220 587 q 400 570 358 587 q 469 530 442 553 q 501 487 495 506 l 501 956 l 712 956 l 712 0 l 503 0 l 503 92 q 460 41 490 67 q 390 0 430 16 q 303 -17 349 -17 m 367 149 q 436 167 406 149 q 483 215 466 184 q 501 285 501 246 q 483 355 501 324 q 436 403 466 385 q 367 421 406 421 q 301 403 331 421 q 255 355 272 385 q 238 285 238 324 q 255 215 238 246 q 301 167 272 184 q 367 149 331 149 z "},"ð":{"ha":776,"x_min":44,"x_max":726,"o":"m 44 285 q 73 418 44 361 q 146 512 101 474 q 245 568 192 549 q 351 587 299 587 q 425 579 397 587 q 468 561 453 572 q 492 542 484 551 q 463 600 485 567 q 414 663 442 633 q 358 710 386 692 l 253 606 l 167 692 l 238 761 q 190 781 215 772 q 145 796 165 790 q 113 806 124 803 l 159 970 q 213 956 180 966 q 287 929 247 945 q 369 893 328 913 l 449 972 l 533 885 l 475 828 q 602 709 545 781 q 693 539 659 637 q 726 315 726 440 q 683 139 726 214 q 563 24 639 65 q 388 -17 486 -17 q 208 22 285 -17 q 88 129 131 61 q 44 285 44 197 m 252 285 q 268 217 252 247 q 315 168 285 186 q 385 150 344 150 q 459 168 429 150 q 504 217 488 186 q 519 285 519 247 q 484 384 519 349 q 385 420 449 420 q 289 382 325 420 q 252 285 252 344 z "},"ď":{"ha":858,"x_min":31,"x_max":958,"o":"m 831 675 l 793 718 q 846 757 817 731 q 885 815 875 783 q 858 809 875 809 q 807 831 830 809 q 785 892 785 853 q 810 952 785 928 q 871 977 835 977 q 932 952 907 977 q 958 880 958 928 q 940 799 958 839 q 893 726 922 758 q 831 675 865 693 m 303 -17 q 159 24 220 -17 q 64 133 98 65 q 31 285 31 201 q 64 436 31 368 q 159 546 98 505 q 303 587 220 587 q 400 570 358 587 q 469 530 442 553 q 501 487 495 506 l 501 956 l 712 956 l 712 0 l 503 0 l 503 92 q 460 41 490 67 q 390 0 430 16 q 303 -17 349 -17 m 367 149 q 436 167 406 149 q 483 215 466 184 q 501 285 501 246 q 483 355 501 324 q 436 403 466 385 q 367 421 406 421 q 301 403 331 421 q 255 355 272 385 q 238 285 238 324 q 255 215 238 246 q 301 167 272 184 q 367 149 331 149 z "},"đ":{"ha":776,"x_min":31,"x_max":778,"o":"m 378 698 l 378 824 l 778 824 l 778 698 l 378 698 m 303 -17 q 159 24 220 -17 q 64 133 98 65 q 31 285 31 201 q 64 436 31 368 q 159 546 98 505 q 303 587 220 587 q 400 570 358 587 q 469 530 442 553 q 501 487 495 506 l 501 956 l 712 956 l 712 0 l 503 0 l 503 92 q 460 41 490 67 q 390 0 430 16 q 303 -17 349 -17 m 367 149 q 436 167 406 149 q 483 215 466 184 q 501 285 501 246 q 483 355 501 324 q 436 403 466 385 q 367 421 406 421 q 301 403 331 421 q 255 355 272 385 q 238 285 238 324 q 255 215 238 246 q 301 167 272 184 q 367 149 331 149 z "},"ǆ":{"ha":1400,"x_min":31,"x_max":1383,"o":"m 303 -17 q 159 24 220 -17 q 64 133 98 65 q 31 285 31 201 q 64 436 31 368 q 159 546 98 505 q 303 587 220 587 q 400 570 358 587 q 469 530 442 553 q 501 487 495 506 l 501 956 l 712 956 l 712 0 l 503 0 l 503 92 q 460 41 490 67 q 390 0 430 16 q 303 -17 349 -17 m 367 149 q 436 167 406 149 q 483 215 466 184 q 501 285 501 246 q 483 355 501 324 q 436 403 466 385 q 367 421 406 421 q 301 403 331 421 q 255 355 272 385 q 238 285 238 324 q 255 215 238 246 q 301 167 272 184 q 367 149 331 149 m 819 570 l 1383 570 l 1099 147 l 1361 147 l 1361 0 l 773 0 l 1057 424 l 819 424 l 819 570 m 1090 653 l 845 832 l 921 933 l 1090 808 l 1260 933 l 1335 832 l 1090 653 z "},"e":{"ha":692,"x_min":27,"x_max":641,"o":"m 226 240 q 246 186 228 210 q 294 149 263 163 q 367 135 325 135 q 440 144 408 135 q 496 165 472 152 q 533 190 520 177 l 615 60 q 566 23 598 41 q 483 -6 535 6 q 353 -17 432 -17 q 185 19 259 -17 q 69 123 112 54 q 27 291 27 192 q 64 441 27 374 q 169 548 100 508 q 337 587 239 587 q 498 553 430 587 q 604 452 567 519 q 641 285 641 385 q 641 263 641 279 q 639 240 640 246 l 226 240 m 442 351 q 431 395 442 373 q 397 431 419 417 q 340 445 375 445 q 282 432 306 445 q 245 397 258 418 q 231 351 233 375 l 442 351 z "},"é":{"ha":693,"x_min":27,"x_max":641,"o":"m 226 240 q 246 186 228 210 q 294 149 263 163 q 367 135 325 135 q 440 144 408 135 q 496 165 472 152 q 533 190 520 177 l 615 60 q 566 23 598 41 q 483 -6 535 6 q 353 -17 432 -17 q 185 19 259 -17 q 69 123 112 54 q 27 291 27 192 q 64 441 27 374 q 169 548 100 508 q 337 587 239 587 q 498 553 430 587 q 604 452 567 519 q 641 285 641 385 q 641 263 641 279 q 639 240 640 246 l 226 240 m 442 351 q 431 395 442 373 q 397 431 419 417 q 340 445 375 445 q 282 432 306 445 q 245 397 258 418 q 231 351 233 375 l 442 351 m 253 633 l 192 719 l 417 913 l 517 788 l 253 633 z "},"ĕ":{"ha":693,"x_min":27,"x_max":641,"o":"m 226 240 q 246 186 228 210 q 294 149 263 163 q 367 135 325 135 q 440 144 408 135 q 496 165 472 152 q 533 190 520 177 l 615 60 q 566 23 598 41 q 483 -6 535 6 q 353 -17 432 -17 q 185 19 259 -17 q 69 123 112 54 q 27 291 27 192 q 64 441 27 374 q 169 548 100 508 q 337 587 239 587 q 498 553 430 587 q 604 452 567 519 q 641 285 641 385 q 641 263 641 279 q 639 240 640 246 l 226 240 m 442 351 q 431 395 442 373 q 397 431 419 417 q 340 445 375 445 q 282 432 306 445 q 245 397 258 418 q 231 351 233 375 l 442 351 m 343 638 q 217 664 272 638 q 127 734 161 689 q 87 839 94 779 l 226 874 q 243 823 230 849 q 281 777 256 796 q 343 759 306 759 q 406 777 381 759 q 444 823 431 796 q 460 874 457 849 l 599 839 q 559 736 592 781 q 471 664 526 690 q 343 638 416 638 z "},"ě":{"ha":697,"x_min":27,"x_max":641,"o":"m 226 240 q 246 186 228 210 q 294 149 263 163 q 367 135 325 135 q 440 144 408 135 q 496 165 472 152 q 533 190 520 177 l 615 60 q 566 23 598 41 q 483 -6 535 6 q 353 -17 432 -17 q 185 19 259 -17 q 69 123 112 54 q 27 291 27 192 q 64 441 27 374 q 169 548 100 508 q 337 587 239 587 q 498 553 430 587 q 604 452 567 519 q 641 285 641 385 q 641 263 641 279 q 639 240 640 246 l 226 240 m 442 351 q 431 395 442 373 q 397 431 419 417 q 340 445 375 445 q 282 432 306 445 q 245 397 258 418 q 231 351 233 375 l 442 351 m 325 653 l 80 832 l 156 933 l 325 808 l 494 933 l 570 832 l 325 653 z "},"ê":{"ha":693,"x_min":27,"x_max":641,"o":"m 226 240 q 246 186 228 210 q 294 149 263 163 q 367 135 325 135 q 440 144 408 135 q 496 165 472 152 q 533 190 520 177 l 615 60 q 566 23 598 41 q 483 -6 535 6 q 353 -17 432 -17 q 185 19 259 -17 q 69 123 112 54 q 27 291 27 192 q 64 441 27 374 q 169 548 100 508 q 337 587 239 587 q 498 553 430 587 q 604 452 567 519 q 641 285 641 385 q 641 263 641 279 q 639 240 640 246 l 226 240 m 442 351 q 431 395 442 373 q 397 431 419 417 q 340 445 375 445 q 282 432 306 445 q 245 397 258 418 q 231 351 233 375 l 442 351 m 513 617 l 344 742 l 174 618 l 99 718 l 344 897 l 589 718 l 513 617 z "},"ế":{"ha":693,"x_min":27,"x_max":785,"o":"m 226 240 q 246 186 228 210 q 294 149 263 163 q 367 135 325 135 q 440 144 408 135 q 496 165 472 152 q 533 190 520 177 l 615 60 q 566 23 598 41 q 483 -6 535 6 q 353 -17 432 -17 q 185 19 259 -17 q 69 123 112 54 q 27 291 27 192 q 64 441 27 374 q 169 548 100 508 q 337 587 239 587 q 498 553 430 587 q 604 452 567 519 q 641 285 641 385 q 641 263 641 279 q 639 240 640 246 l 226 240 m 442 351 q 431 395 442 373 q 397 431 419 417 q 340 445 375 445 q 282 432 306 445 q 245 397 258 418 q 231 351 233 375 l 442 351 m 513 616 l 344 740 l 174 616 l 99 716 l 344 895 l 589 716 l 513 616 m 520 820 l 458 905 l 684 1100 l 784 974 l 520 820 z "},"ệ":{"ha":693,"x_min":27,"x_max":641,"o":"m 226 240 q 246 186 228 210 q 294 149 263 163 q 367 135 325 135 q 440 144 408 135 q 496 165 472 152 q 533 190 520 177 l 615 60 q 566 23 598 41 q 483 -6 535 6 q 353 -17 432 -17 q 185 19 259 -17 q 69 123 112 54 q 27 291 27 192 q 64 441 27 374 q 169 548 100 508 q 337 587 239 587 q 498 553 430 587 q 604 452 567 519 q 641 285 641 385 q 641 263 641 279 q 639 240 640 246 l 226 240 m 442 351 q 431 395 442 373 q 397 431 419 417 q 340 445 375 445 q 282 432 306 445 q 245 397 258 418 q 231 351 233 375 l 442 351 m 340 -212 q 282 -189 306 -212 q 259 -133 259 -165 q 282 -76 259 -100 q 340 -52 306 -52 q 395 -76 372 -52 q 419 -133 419 -100 q 395 -189 419 -165 q 340 -212 372 -212 m 513 617 l 344 742 l 174 618 l 99 718 l 344 897 l 589 718 l 513 617 z "},"ề":{"ha":693,"x_min":27,"x_max":692,"o":"m 226 240 q 246 186 228 210 q 294 149 263 163 q 367 135 325 135 q 440 144 408 135 q 496 165 472 152 q 533 190 520 177 l 615 60 q 566 23 598 41 q 483 -6 535 6 q 353 -17 432 -17 q 185 19 259 -17 q 69 123 112 54 q 27 291 27 192 q 64 441 27 374 q 169 548 100 508 q 337 587 239 587 q 498 553 430 587 q 604 452 567 519 q 641 285 641 385 q 641 263 641 279 q 639 240 640 246 l 226 240 m 442 351 q 431 395 442 373 q 397 431 419 417 q 340 445 375 445 q 282 432 306 445 q 245 397 258 418 q 231 351 233 375 l 442 351 m 515 618 l 345 742 l 176 619 l 100 719 l 345 898 l 590 719 l 515 618 m 630 808 l 366 962 l 466 1088 l 692 894 l 630 808 z "},"ể":{"ha":693,"x_min":27,"x_max":663,"o":"m 226 240 q 246 186 228 210 q 294 149 263 163 q 367 135 325 135 q 440 144 408 135 q 496 165 472 152 q 533 190 520 177 l 615 60 q 566 23 598 41 q 483 -6 535 6 q 353 -17 432 -17 q 185 19 259 -17 q 69 123 112 54 q 27 291 27 192 q 64 441 27 374 q 169 548 100 508 q 337 587 239 587 q 498 553 430 587 q 604 452 567 519 q 641 285 641 385 q 641 263 641 279 q 639 240 640 246 l 226 240 m 442 351 q 431 395 442 373 q 397 431 419 417 q 340 445 375 445 q 282 432 306 445 q 245 397 258 418 q 231 351 233 375 l 442 351 m 483 836 l 432 915 q 472 932 447 919 q 516 965 497 945 q 535 1011 535 985 q 525 1049 535 1037 q 497 1064 515 1060 q 458 1067 480 1067 q 398 1057 428 1067 q 347 1035 367 1046 l 347 1142 q 391 1163 359 1151 q 485 1176 424 1176 q 570 1161 530 1176 q 637 1115 611 1147 q 663 1028 663 1083 q 643 951 663 984 q 593 895 623 919 q 534 858 564 872 q 483 836 503 844 m 515 616 l 345 740 l 176 616 l 100 716 l 345 895 l 590 716 l 515 616 z "},"ễ":{"ha":693,"x_min":27,"x_max":641,"o":"m 226 240 q 246 186 228 210 q 294 149 263 163 q 367 135 325 135 q 440 144 408 135 q 496 165 472 152 q 533 190 520 177 l 615 60 q 566 23 598 41 q 483 -6 535 6 q 353 -17 432 -17 q 185 19 259 -17 q 69 123 112 54 q 27 291 27 192 q 64 441 27 374 q 169 548 100 508 q 337 587 239 587 q 498 553 430 587 q 604 452 567 519 q 641 285 641 385 q 641 263 641 279 q 639 240 640 246 l 226 240 m 442 351 q 431 395 442 373 q 397 431 419 417 q 340 445 375 445 q 282 432 306 445 q 245 397 258 418 q 231 351 233 375 l 442 351 m 94 916 q 120 1000 101 956 q 170 1075 139 1044 q 246 1106 201 1106 q 323 1093 290 1106 q 385 1067 356 1080 q 445 1054 414 1054 q 478 1072 465 1054 q 495 1106 491 1090 l 608 1106 q 582 1021 601 1065 q 532 947 563 977 q 456 916 501 916 q 379 929 413 916 q 317 954 346 942 q 256 967 288 967 q 224 949 237 967 q 206 916 211 932 l 94 916 m 512 616 l 342 740 l 173 616 l 97 716 l 342 895 l 588 716 l 512 616 z "},"ȅ":{"ha":693,"x_min":10,"x_max":641,"o":"m 226 240 q 246 186 228 210 q 294 149 263 163 q 367 135 325 135 q 440 144 408 135 q 496 165 472 152 q 533 190 520 177 l 615 60 q 566 23 598 41 q 483 -6 535 6 q 353 -17 432 -17 q 185 19 259 -17 q 69 123 112 54 q 27 291 27 192 q 64 441 27 374 q 169 548 100 508 q 337 587 239 587 q 498 553 430 587 q 604 452 567 519 q 641 285 641 385 q 641 263 641 279 q 639 240 640 246 l 226 240 m 442 351 q 431 395 442 373 q 397 431 419 417 q 340 445 375 445 q 282 432 306 445 q 245 397 258 418 q 231 351 233 375 l 442 351 m 568 653 l 304 806 l 404 933 l 631 738 l 568 653 m 274 653 l 10 806 l 110 933 l 337 738 l 274 653 z "},"ë":{"ha":693,"x_min":27,"x_max":641,"o":"m 226 240 q 246 186 228 210 q 294 149 263 163 q 367 135 325 135 q 440 144 408 135 q 496 165 472 152 q 533 190 520 177 l 615 60 q 566 23 598 41 q 483 -6 535 6 q 353 -17 432 -17 q 185 19 259 -17 q 69 123 112 54 q 27 291 27 192 q 64 441 27 374 q 169 548 100 508 q 337 587 239 587 q 498 553 430 587 q 604 452 567 519 q 641 285 641 385 q 641 263 641 279 q 639 240 640 246 l 226 240 m 442 351 q 431 395 442 373 q 397 431 419 417 q 340 445 375 445 q 282 432 306 445 q 245 397 258 418 q 231 351 233 375 l 442 351 m 493 669 q 421 699 451 669 q 391 771 391 729 q 421 843 391 813 q 493 873 451 873 q 565 843 535 873 q 594 771 594 813 q 565 699 594 728 q 493 669 535 669 m 214 669 q 141 699 171 669 q 112 771 112 729 q 141 843 112 813 q 214 873 171 873 q 285 843 256 873 q 315 771 315 813 q 285 699 315 728 q 214 669 256 669 z "},"ė":{"ha":692,"x_min":27,"x_max":641,"o":"m 226 240 q 246 186 228 210 q 294 149 263 163 q 367 135 325 135 q 440 144 408 135 q 496 165 472 152 q 533 190 520 177 l 615 60 q 566 23 598 41 q 483 -6 535 6 q 353 -17 432 -17 q 185 19 259 -17 q 69 123 112 54 q 27 291 27 192 q 64 441 27 374 q 169 548 100 508 q 337 587 239 587 q 498 553 430 587 q 604 452 567 519 q 641 285 641 385 q 641 263 641 279 q 639 240 640 246 l 226 240 m 442 351 q 431 395 442 373 q 397 431 419 417 q 340 445 375 445 q 282 432 306 445 q 245 397 258 418 q 231 351 233 375 l 442 351 m 325 675 q 253 705 283 675 q 224 776 224 735 q 253 848 224 818 q 325 878 283 878 q 397 849 367 878 q 426 776 426 819 q 397 705 426 734 q 325 675 367 675 z "},"ẹ":{"ha":693,"x_min":27,"x_max":641,"o":"m 226 240 q 246 186 228 210 q 294 149 263 163 q 367 135 325 135 q 440 144 408 135 q 496 165 472 152 q 533 190 520 177 l 615 60 q 566 23 598 41 q 483 -6 535 6 q 353 -17 432 -17 q 185 19 259 -17 q 69 123 112 54 q 27 291 27 192 q 64 441 27 374 q 169 548 100 508 q 337 587 239 587 q 498 553 430 587 q 604 452 567 519 q 641 285 641 385 q 641 263 641 279 q 639 240 640 246 l 226 240 m 442 351 q 431 395 442 373 q 397 431 419 417 q 340 445 375 445 q 282 432 306 445 q 245 397 258 418 q 231 351 233 375 l 442 351 m 340 -212 q 282 -189 306 -212 q 259 -133 259 -165 q 282 -76 259 -100 q 340 -52 306 -52 q 395 -76 372 -52 q 419 -133 419 -100 q 395 -189 419 -165 q 340 -212 372 -212 z "},"è":{"ha":693,"x_min":27,"x_max":641,"o":"m 226 240 q 246 186 228 210 q 294 149 263 163 q 367 135 325 135 q 440 144 408 135 q 496 165 472 152 q 533 190 520 177 l 615 60 q 566 23 598 41 q 483 -6 535 6 q 353 -17 432 -17 q 185 19 259 -17 q 69 123 112 54 q 27 291 27 192 q 64 441 27 374 q 169 548 100 508 q 337 587 239 587 q 498 553 430 587 q 604 452 567 519 q 641 285 641 385 q 641 263 641 279 q 639 240 640 246 l 226 240 m 442 351 q 431 395 442 373 q 397 431 419 417 q 340 445 375 445 q 282 432 306 445 q 245 397 258 418 q 231 351 233 375 l 442 351 m 456 653 l 192 806 l 292 933 l 518 738 l 456 653 z "},"ẻ":{"ha":693,"x_min":27,"x_max":641,"o":"m 226 240 q 246 186 228 210 q 294 149 263 163 q 367 135 325 135 q 440 144 408 135 q 496 165 472 152 q 533 190 520 177 l 615 60 q 566 23 598 41 q 483 -6 535 6 q 353 -17 432 -17 q 185 19 259 -17 q 69 123 112 54 q 27 291 27 192 q 64 441 27 374 q 169 548 100 508 q 337 587 239 587 q 498 553 430 587 q 604 452 567 519 q 641 285 641 385 q 641 263 641 279 q 639 240 640 246 l 226 240 m 442 351 q 431 395 442 373 q 397 431 419 417 q 340 445 375 445 q 282 432 306 445 q 245 397 258 418 q 231 351 233 375 l 442 351 m 321 600 l 270 678 q 310 696 285 683 q 354 729 335 709 q 374 775 374 749 q 363 812 374 801 q 335 827 353 824 q 297 831 318 831 q 236 820 267 831 q 185 799 206 810 l 185 906 q 230 927 197 915 q 324 940 262 940 q 409 925 368 940 q 475 879 449 911 q 501 792 501 847 q 481 715 501 748 q 432 659 461 682 q 372 622 402 635 q 321 600 342 608 z "},"ȇ":{"ha":693,"x_min":27,"x_max":641,"o":"m 226 240 q 246 186 228 210 q 294 149 263 163 q 367 135 325 135 q 440 144 408 135 q 496 165 472 152 q 533 190 520 177 l 615 60 q 566 23 598 41 q 483 -6 535 6 q 353 -17 432 -17 q 185 19 259 -17 q 69 123 112 54 q 27 291 27 192 q 64 441 27 374 q 169 548 100 508 q 337 587 239 587 q 498 553 430 587 q 604 452 567 519 q 641 285 641 385 q 641 263 641 279 q 639 240 640 246 l 226 240 m 442 351 q 431 395 442 373 q 397 431 419 417 q 340 445 375 445 q 282 432 306 445 q 245 397 258 418 q 231 351 233 375 l 442 351 m 226 629 l 87 664 q 126 767 94 722 q 214 839 159 813 q 342 865 269 865 q 469 839 414 865 q 558 769 524 814 q 599 664 592 724 l 459 629 q 443 681 456 654 q 405 726 430 708 q 342 744 381 744 q 280 726 305 744 q 242 681 255 708 q 226 629 228 654 z "},"ē":{"ha":697,"x_min":27,"x_max":641,"o":"m 226 240 q 246 186 228 210 q 294 149 263 163 q 367 135 325 135 q 440 144 408 135 q 496 165 472 152 q 533 190 520 177 l 615 60 q 566 23 598 41 q 483 -6 535 6 q 353 -17 432 -17 q 185 19 259 -17 q 69 123 112 54 q 27 291 27 192 q 64 441 27 374 q 169 548 100 508 q 337 587 239 587 q 498 553 430 587 q 604 452 567 519 q 641 285 641 385 q 641 263 641 279 q 639 240 640 246 l 226 240 m 442 351 q 431 395 442 373 q 397 431 419 417 q 340 445 375 445 q 282 432 306 445 q 245 397 258 418 q 231 351 233 375 l 442 351 m 102 705 l 102 837 l 554 837 l 554 705 l 102 705 z "},"ę":{"ha":697,"x_min":27,"x_max":641,"o":"m 226 240 q 246 186 228 210 q 294 149 263 163 q 367 135 325 135 q 440 144 408 135 q 496 165 472 152 q 533 190 520 177 l 615 60 q 566 23 598 41 q 483 -6 535 6 q 353 -17 432 -17 q 185 19 259 -17 q 69 123 112 54 q 27 291 27 192 q 64 441 27 374 q 169 548 100 508 q 337 587 239 587 q 498 553 430 587 q 604 452 567 519 q 641 285 641 385 q 641 263 641 279 q 639 240 640 246 l 226 240 m 442 351 q 431 395 442 373 q 397 431 419 417 q 340 445 375 445 q 282 432 306 445 q 245 397 258 418 q 231 351 233 375 l 442 351 m 405 -302 q 343 -290 376 -302 q 289 -251 311 -278 q 266 -175 266 -223 q 285 -105 266 -143 q 331 -32 303 -67 q 383 28 358 3 l 444 0 q 415 -42 430 -17 q 388 -97 399 -68 q 377 -153 377 -126 q 391 -189 377 -178 q 423 -199 404 -199 q 456 -188 441 -199 q 478 -167 472 -177 l 557 -226 q 500 -277 541 -251 q 405 -302 458 -302 z "},"ẽ":{"ha":693,"x_min":27,"x_max":641,"o":"m 226 240 q 246 186 228 210 q 294 149 263 163 q 367 135 325 135 q 440 144 408 135 q 496 165 472 152 q 533 190 520 177 l 615 60 q 566 23 598 41 q 483 -6 535 6 q 353 -17 432 -17 q 185 19 259 -17 q 69 123 112 54 q 27 291 27 192 q 64 441 27 374 q 169 548 100 508 q 337 587 239 587 q 498 553 430 587 q 604 452 567 519 q 641 285 641 385 q 641 263 641 279 q 639 240 640 246 l 226 240 m 442 351 q 431 395 442 373 q 397 431 419 417 q 340 445 375 445 q 282 432 306 445 q 245 397 258 418 q 231 351 233 375 l 442 351 m 97 681 q 123 765 104 722 q 173 840 142 809 q 249 870 205 870 q 326 857 292 870 q 388 832 359 844 q 448 819 417 819 q 481 836 468 819 q 499 870 494 854 l 610 870 q 585 785 604 829 q 535 711 566 742 q 459 681 503 681 q 383 693 416 681 q 320 719 349 706 q 260 731 290 731 q 227 714 240 731 q 210 681 215 697 l 97 681 z "},"ə":{"ha":693,"x_min":51,"x_max":665,"o":"m 356 -17 q 194 17 263 -17 q 88 119 126 51 q 51 285 51 186 q 51 305 51 291 q 53 323 52 318 l 465 323 q 445 378 463 353 q 397 418 428 403 q 324 433 367 433 q 253 425 285 433 q 197 405 220 417 q 159 379 173 392 l 77 511 q 126 547 95 530 q 208 576 157 565 q 339 587 260 587 q 508 552 434 587 q 623 448 581 517 q 665 278 665 379 q 629 129 665 196 q 523 23 592 62 q 356 -17 454 -17 m 352 123 q 410 137 387 123 q 446 175 433 151 q 459 230 458 199 l 251 230 q 264 177 253 201 q 297 138 274 153 q 352 123 319 123 z "},"f":{"ha":490,"x_min":15,"x_max":517,"o":"m 15 570 l 109 570 l 109 721 q 144 860 109 804 q 236 944 180 915 q 353 972 292 972 q 467 952 428 972 q 517 922 506 932 l 436 767 q 419 783 433 773 q 382 794 405 794 q 353 786 367 794 q 329 759 338 778 q 319 702 319 740 l 319 570 l 460 570 l 460 397 l 319 397 l 319 0 l 109 0 l 109 397 l 15 397 l 15 570 z "},"g":{"ha":785,"x_min":27,"x_max":708,"o":"m 358 -305 q 239 -294 298 -305 q 130 -259 181 -284 q 44 -190 79 -234 l 168 -62 q 207 -99 184 -81 q 265 -128 231 -117 q 349 -140 299 -140 q 428 -124 394 -140 q 482 -78 463 -108 q 501 -3 501 -47 l 501 10 l 708 10 l 708 -16 q 661 -175 708 -110 q 535 -272 615 -240 q 358 -305 456 -305 m 501 0 l 501 92 q 469 52 494 78 q 402 5 444 26 q 305 -17 360 -17 q 159 24 222 -17 q 62 133 97 65 q 27 285 27 201 q 62 436 27 368 q 159 546 97 505 q 305 587 222 587 q 399 570 358 587 q 464 530 439 553 q 499 487 489 506 l 499 570 l 708 570 l 708 0 l 501 0 m 234 285 q 252 215 234 246 q 300 167 270 184 q 367 149 331 149 q 435 167 406 149 q 481 215 464 184 q 498 285 498 246 q 481 355 498 324 q 435 403 464 385 q 367 421 406 421 q 300 403 331 421 q 252 355 270 385 q 234 285 234 324 z "},"ğ":{"ha":776,"x_min":27,"x_max":708,"o":"m 358 -305 q 239 -294 298 -305 q 130 -259 181 -284 q 44 -190 79 -234 l 168 -62 q 207 -99 184 -81 q 265 -128 231 -117 q 349 -140 299 -140 q 428 -124 394 -140 q 482 -78 463 -108 q 501 -3 501 -47 l 501 10 l 708 10 l 708 -16 q 661 -175 708 -110 q 535 -272 615 -240 q 358 -305 456 -305 m 501 0 l 501 92 q 469 52 494 78 q 402 5 444 26 q 305 -17 360 -17 q 159 24 222 -17 q 62 133 97 65 q 27 285 27 201 q 62 436 27 368 q 159 546 97 505 q 305 587 222 587 q 399 570 358 587 q 464 530 439 553 q 499 487 489 506 l 499 570 l 708 570 l 708 0 l 501 0 m 234 285 q 252 215 234 246 q 300 167 270 184 q 367 149 331 149 q 435 167 406 149 q 481 215 464 184 q 498 285 498 246 q 481 355 498 324 q 435 403 464 385 q 367 421 406 421 q 300 403 331 421 q 252 355 270 385 q 234 285 234 324 m 375 638 q 249 664 304 638 q 159 734 193 689 q 119 839 126 779 l 258 874 q 275 823 262 849 q 313 777 288 796 q 375 759 338 759 q 438 777 413 759 q 476 823 463 796 q 492 874 489 849 l 631 839 q 591 736 624 781 q 503 664 558 690 q 375 638 448 638 z "},"ǧ":{"ha":785,"x_min":27,"x_max":708,"o":"m 358 -305 q 239 -294 298 -305 q 130 -259 181 -284 q 44 -190 79 -234 l 168 -62 q 207 -99 184 -81 q 265 -128 231 -117 q 349 -140 299 -140 q 428 -124 394 -140 q 482 -78 463 -108 q 501 -3 501 -47 l 501 10 l 708 10 l 708 -16 q 661 -175 708 -110 q 535 -272 615 -240 q 358 -305 456 -305 m 501 0 l 501 92 q 469 52 494 78 q 402 5 444 26 q 305 -17 360 -17 q 159 24 222 -17 q 62 133 97 65 q 27 285 27 201 q 62 436 27 368 q 159 546 97 505 q 305 587 222 587 q 399 570 358 587 q 464 530 439 553 q 499 487 489 506 l 499 570 l 708 570 l 708 0 l 501 0 m 234 285 q 252 215 234 246 q 300 167 270 184 q 367 149 331 149 q 435 167 406 149 q 481 215 464 184 q 498 285 498 246 q 481 355 498 324 q 435 403 464 385 q 367 421 406 421 q 300 403 331 421 q 252 355 270 385 q 234 285 234 324 m 386 653 l 141 832 l 217 933 l 386 808 l 556 933 l 631 832 l 386 653 z "},"ĝ":{"ha":785,"x_min":27,"x_max":708,"o":"m 358 -305 q 239 -294 298 -305 q 130 -259 181 -284 q 44 -190 79 -234 l 168 -62 q 207 -99 184 -81 q 265 -128 231 -117 q 349 -140 299 -140 q 428 -124 394 -140 q 482 -78 463 -108 q 501 -3 501 -47 l 501 10 l 708 10 l 708 -16 q 661 -175 708 -110 q 535 -272 615 -240 q 358 -305 456 -305 m 501 0 l 501 92 q 469 52 494 78 q 402 5 444 26 q 305 -17 360 -17 q 159 24 222 -17 q 62 133 97 65 q 27 285 27 201 q 62 436 27 368 q 159 546 97 505 q 305 587 222 587 q 399 570 358 587 q 464 530 439 553 q 499 487 489 506 l 499 570 l 708 570 l 708 0 l 501 0 m 234 285 q 252 215 234 246 q 300 167 270 184 q 367 149 331 149 q 435 167 406 149 q 481 215 464 184 q 498 285 498 246 q 481 355 498 324 q 435 403 464 385 q 367 421 406 421 q 300 403 331 421 q 252 355 270 385 q 234 285 234 324 m 544 617 l 375 742 l 206 618 l 130 718 l 375 897 l 620 718 l 544 617 z "},"ģ":{"ha":785,"x_min":27,"x_max":708,"o":"m 358 -305 q 239 -294 298 -305 q 130 -259 181 -284 q 44 -190 79 -234 l 168 -62 q 207 -99 184 -81 q 265 -128 231 -117 q 349 -140 299 -140 q 428 -124 394 -140 q 482 -78 463 -108 q 501 -3 501 -47 l 501 10 l 708 10 l 708 -16 q 661 -175 708 -110 q 535 -272 615 -240 q 358 -305 456 -305 m 501 0 l 501 92 q 469 52 494 78 q 402 5 444 26 q 305 -17 360 -17 q 159 24 222 -17 q 62 133 97 65 q 27 285 27 201 q 62 436 27 368 q 159 546 97 505 q 305 587 222 587 q 399 570 358 587 q 464 530 439 553 q 499 487 489 506 l 499 570 l 708 570 l 708 0 l 501 0 m 234 285 q 252 215 234 246 q 300 167 270 184 q 367 149 331 149 q 435 167 406 149 q 481 215 464 184 q 498 285 498 246 q 481 355 498 324 q 435 403 464 385 q 367 421 406 421 q 300 403 331 421 q 252 355 270 385 q 234 285 234 324 m 356 666 q 298 690 322 666 q 274 758 274 713 q 291 835 274 798 q 335 903 308 873 q 393 951 362 934 l 429 911 q 379 874 406 899 q 342 819 351 850 q 367 824 351 824 q 415 803 394 824 q 437 747 437 783 q 413 690 437 713 q 356 666 389 666 z "},"ġ":{"ha":771,"x_min":27,"x_max":708,"o":"m 358 -305 q 239 -294 298 -305 q 130 -259 181 -284 q 44 -190 79 -234 l 168 -62 q 207 -99 184 -81 q 265 -128 231 -117 q 349 -140 299 -140 q 428 -124 394 -140 q 482 -78 463 -108 q 501 -3 501 -47 l 501 10 l 708 10 l 708 -16 q 661 -175 708 -110 q 535 -272 615 -240 q 358 -305 456 -305 m 501 0 l 501 92 q 469 52 494 78 q 402 5 444 26 q 305 -17 360 -17 q 159 24 222 -17 q 62 133 97 65 q 27 285 27 201 q 62 436 27 368 q 159 546 97 505 q 305 587 222 587 q 399 570 358 587 q 464 530 439 553 q 499 487 489 506 l 499 570 l 708 570 l 708 0 l 501 0 m 234 285 q 252 215 234 246 q 300 167 270 184 q 367 149 331 149 q 435 167 406 149 q 481 215 464 184 q 498 285 498 246 q 481 355 498 324 q 435 403 464 385 q 367 421 406 421 q 300 403 331 421 q 252 355 270 385 q 234 285 234 324 m 349 675 q 277 705 306 675 q 247 776 247 735 q 277 848 247 818 q 349 878 306 878 q 420 849 390 878 q 450 776 450 819 q 420 705 450 734 q 349 675 390 675 z "},"h":{"ha":769,"x_min":54,"x_max":703,"o":"m 456 587 q 572 563 515 587 q 666 486 629 538 q 703 348 703 433 l 703 0 l 492 0 l 492 313 q 464 405 492 374 q 390 436 437 436 q 330 420 358 436 q 284 374 301 403 q 266 306 266 344 l 266 0 l 54 0 l 54 956 l 266 956 l 266 486 q 300 532 274 509 q 368 571 327 556 q 456 587 408 587 z "},"ħ":{"ha":769,"x_min":-16,"x_max":703,"o":"m -16 698 l -16 824 l 385 824 l 385 698 l -16 698 m 456 587 q 572 563 515 587 q 666 486 629 538 q 703 348 703 433 l 703 0 l 492 0 l 492 313 q 464 405 492 374 q 390 436 437 436 q 330 420 358 436 q 284 374 301 403 q 266 306 266 344 l 266 0 l 54 0 l 54 956 l 266 956 l 266 486 q 300 532 274 509 q 368 571 327 556 q 456 587 408 587 z "},"ĥ":{"ha":769,"x_min":54,"x_max":703,"o":"m 456 587 q 572 563 515 587 q 666 486 629 538 q 703 348 703 433 l 703 0 l 492 0 l 492 313 q 464 405 492 374 q 390 436 437 436 q 330 420 358 436 q 284 374 301 403 q 266 306 266 344 l 266 0 l 54 0 l 54 956 l 266 956 l 266 486 q 300 532 274 509 q 368 571 327 556 q 456 587 408 587 m 548 1023 l 378 1147 l 209 1024 l 133 1124 l 378 1303 l 624 1124 l 548 1023 z "},"i":{"ha":364,"x_min":54,"x_max":294,"o":"m 65 0 l 65 570 l 276 570 l 276 0 l 65 0 m 174 688 q 89 723 124 688 q 54 806 54 758 q 89 891 54 855 q 174 926 124 926 q 233 910 206 926 q 277 867 260 894 q 294 806 294 840 q 258 723 294 758 q 174 688 223 688 z "},"ı":{"ha":301,"x_min":44,"x_max":239,"o":"m 44 0 l 44 570 l 239 570 l 239 0 l 44 0 z "},"í":{"ha":301,"x_min":-10,"x_max":316,"o":"m 44 0 l 44 570 l 239 570 l 239 0 l 44 0 m 52 633 l -10 719 l 216 913 l 316 788 l 52 633 z "},"ĭ":{"ha":301,"x_min":-115,"x_max":397,"o":"m 44 0 l 44 570 l 239 570 l 239 0 l 44 0 m 142 638 q 15 664 71 638 q -74 734 -40 689 q -115 839 -108 779 l 25 874 q 41 823 28 849 q 79 777 54 796 q 142 759 104 759 q 204 777 179 759 q 242 823 229 796 q 258 874 256 849 l 397 839 q 358 736 391 781 q 270 664 325 690 q 142 638 215 638 z "},"ǐ":{"ha":301,"x_min":-92,"x_max":398,"o":"m 44 0 l 44 570 l 239 570 l 239 0 l 44 0 m 153 653 l -92 832 l -17 933 l 153 808 l 322 933 l 398 832 l 153 653 z "},"î":{"ha":301,"x_min":-103,"x_max":387,"o":"m 44 0 l 44 570 l 239 570 l 239 0 l 44 0 m 311 617 l 142 742 l -28 618 l -103 718 l 142 897 l 387 718 l 311 617 z "},"ȉ":{"ha":301,"x_min":-191,"x_max":429,"o":"m 44 0 l 44 570 l 239 570 l 239 0 l 44 0 m 367 653 l 103 806 l 203 933 l 429 738 l 367 653 m 73 653 l -191 806 l -91 933 l 135 738 l 73 653 z "},"ï":{"ha":301,"x_min":-90,"x_max":392,"o":"m 44 0 l 44 570 l 239 570 l 239 0 l 44 0 m 292 669 q 219 699 249 669 q 190 771 190 729 q 219 843 190 813 q 292 873 249 873 q 363 843 333 873 q 393 771 393 813 q 363 699 393 728 q 292 669 333 669 m 13 669 q -60 699 -31 669 q -90 771 -90 729 q -60 843 -90 813 q 13 873 -31 873 q 84 843 54 873 q 114 771 114 813 q 84 699 114 728 q 13 669 54 669 z "},"ị":{"ha":364,"x_min":54,"x_max":294,"o":"m 65 0 l 65 570 l 276 570 l 276 0 l 65 0 m 174 688 q 89 723 124 688 q 54 806 54 758 q 89 891 54 855 q 174 926 124 926 q 233 910 206 926 q 277 867 260 894 q 294 806 294 840 q 258 723 294 758 q 174 688 223 688 m 174 -212 q 116 -189 140 -212 q 93 -133 93 -165 q 116 -76 93 -100 q 174 -52 140 -52 q 230 -76 206 -52 q 253 -133 253 -100 q 230 -189 253 -165 q 174 -212 206 -212 z "},"ì":{"ha":301,"x_min":-10,"x_max":316,"o":"m 44 0 l 44 570 l 239 570 l 239 0 l 44 0 m 254 653 l -10 806 l 90 933 l 317 738 l 254 653 z "},"ỉ":{"ha":301,"x_min":-17,"x_max":299,"o":"m 44 0 l 44 570 l 239 570 l 239 0 l 44 0 m 119 600 l 69 678 q 109 696 84 683 q 153 729 133 709 q 172 775 172 749 q 162 812 172 801 q 134 827 151 824 q 95 831 117 831 q 35 820 65 831 q -17 799 4 810 l -17 906 q 28 927 -4 915 q 122 940 60 940 q 207 925 167 940 q 274 879 248 911 q 299 792 299 847 q 280 715 299 748 q 230 659 260 682 q 170 622 201 635 q 119 600 140 608 z "},"ȋ":{"ha":301,"x_min":-115,"x_max":397,"o":"m 44 0 l 44 570 l 239 570 l 239 0 l 44 0 m 24 629 l -115 664 q -75 767 -108 722 q 13 839 -42 813 q 141 865 68 865 q 267 839 213 865 q 356 769 322 814 q 397 664 390 724 l 258 629 q 242 681 255 654 q 204 726 228 708 q 141 744 179 744 q 78 726 103 744 q 40 681 53 708 q 24 629 27 654 z "},"ī":{"ha":301,"x_min":-85,"x_max":367,"o":"m 44 0 l 44 570 l 239 570 l 239 0 l 44 0 m -85 705 l -85 837 l 367 837 l 367 705 l -85 705 z "},"į":{"ha":364,"x_min":24,"x_max":315,"o":"m 65 0 l 65 570 l 276 570 l 276 0 l 65 0 m 174 688 q 89 723 124 688 q 54 806 54 758 q 89 891 54 855 q 174 926 124 926 q 233 910 206 926 q 277 867 260 894 q 294 806 294 840 q 258 723 294 758 q 174 688 223 688 m 163 -302 q 101 -290 133 -302 q 46 -251 69 -278 q 24 -175 24 -223 q 42 -105 24 -143 q 88 -32 61 -67 q 140 28 115 3 l 202 0 q 172 -42 188 -17 q 146 -97 157 -68 q 135 -153 135 -126 q 148 -189 135 -178 q 181 -199 162 -199 q 214 -188 199 -199 q 236 -167 229 -177 l 315 -226 q 257 -277 299 -251 q 163 -302 216 -302 z "},"ĩ":{"ha":301,"x_min":-104,"x_max":409,"o":"m 44 0 l 44 570 l 239 570 l 239 0 l 44 0 m -104 681 q -78 765 -97 722 q -28 840 -60 809 q 47 870 3 870 q 124 857 91 870 q 187 832 158 844 q 247 819 216 819 q 280 836 267 819 q 297 870 292 854 l 409 870 q 384 785 403 829 q 333 711 365 742 q 258 681 302 681 q 181 693 215 681 q 118 719 148 706 q 58 731 89 731 q 26 714 39 731 q 8 681 13 697 l -104 681 z "},"j":{"ha":374,"x_min":-99,"x_max":302,"o":"m 65 -306 q -39 -293 2 -306 q -99 -269 -79 -281 l -35 -112 q -11 -125 -24 -121 q 17 -128 1 -128 q 49 -118 36 -128 q 68 -87 62 -108 q 75 -37 75 -67 l 75 570 l 286 570 l 286 -70 q 263 -190 286 -136 q 192 -274 240 -243 q 65 -306 143 -306 m 182 688 q 98 723 133 688 q 63 806 63 758 q 79 866 63 839 q 122 910 95 893 q 182 926 149 926 q 242 910 215 926 q 286 867 269 894 q 302 806 302 840 q 267 723 302 758 q 182 688 232 688 z "},"ȷ":{"ha":374,"x_min":-99,"x_max":286,"o":"m 65 -306 q -39 -293 2 -306 q -99 -269 -79 -281 l -35 -112 q -11 -125 -24 -121 q 17 -128 1 -128 q 49 -118 36 -128 q 68 -87 62 -108 q 75 -37 75 -67 l 75 570 l 286 570 l 286 -70 q 263 -190 286 -136 q 192 -274 240 -243 q 65 -306 143 -306 z "},"ĵ":{"ha":374,"x_min":-99,"x_max":432,"o":"m 65 -306 q -39 -293 2 -306 q -99 -269 -79 -281 l -35 -112 q -11 -125 -24 -121 q 17 -128 1 -128 q 49 -118 36 -128 q 68 -87 62 -108 q 75 -37 75 -67 l 75 570 l 286 570 l 286 -70 q 263 -190 286 -136 q 192 -274 240 -243 q 65 -306 143 -306 m 357 617 l 188 742 l 18 618 l -58 718 l 188 897 l 433 718 l 357 617 z "},"k":{"ha":712,"x_min":38,"x_max":714,"o":"m 447 570 l 686 570 l 417 298 l 714 0 l 469 0 l 249 229 l 249 0 l 38 0 l 38 956 l 249 956 l 249 372 l 447 570 z "},"ķ":{"ha":712,"x_min":38,"x_max":714,"o":"m 447 570 l 686 570 l 417 298 l 714 0 l 469 0 l 249 229 l 249 0 l 38 0 l 38 956 l 249 956 l 249 372 l 447 570 m 299 -401 l 253 -350 q 316 -305 281 -335 q 361 -237 351 -274 q 331 -242 350 -242 q 270 -216 297 -242 q 244 -146 244 -190 q 274 -73 244 -103 q 345 -44 304 -44 q 418 -73 388 -44 q 448 -158 448 -102 q 427 -256 448 -208 q 372 -341 406 -303 q 299 -401 338 -379 z "},"ĸ":{"ha":724,"x_min":43,"x_max":701,"o":"m 415 288 l 701 0 l 452 0 l 251 215 l 251 0 l 43 0 l 43 570 l 251 570 l 251 355 l 429 570 l 665 570 l 415 288 z "},"l":{"ha":347,"x_min":58,"x_max":269,"o":"m 269 0 l 58 0 l 58 956 l 269 956 l 269 0 z "},"ĺ":{"ha":347,"x_min":57,"x_max":383,"o":"m 269 0 l 58 0 l 58 956 l 269 956 l 269 0 m 119 1038 l 57 1124 l 283 1318 l 383 1192 l 119 1038 z "},"ľ":{"ha":347,"x_min":58,"x_max":510,"o":"m 388 652 l 351 693 q 402 730 374 705 q 440 785 430 755 q 415 781 430 781 q 366 802 388 781 q 344 859 344 823 q 368 918 344 894 q 426 942 392 942 q 485 918 460 942 q 510 849 510 894 q 493 770 510 809 q 448 700 476 731 q 388 652 420 669 m 269 0 l 58 0 l 58 956 l 269 956 l 269 0 z "},"ļ":{"ha":347,"x_min":58,"x_max":269,"o":"m 269 0 l 58 0 l 58 956 l 269 956 l 269 0 m 117 -401 l 72 -350 q 135 -305 100 -335 q 180 -237 169 -274 q 149 -242 169 -242 q 89 -216 116 -242 q 63 -146 63 -190 q 93 -73 63 -103 q 164 -44 123 -44 q 236 -73 206 -44 q 267 -158 267 -102 q 245 -256 267 -208 q 190 -341 224 -303 q 117 -401 156 -379 z "},"ŀ":{"ha":557,"x_min":58,"x_max":558,"o":"m 269 0 l 58 0 l 58 956 l 269 956 l 269 0 m 431 356 q 343 393 380 356 q 306 481 306 430 q 343 571 306 534 q 431 608 380 608 q 521 571 484 608 q 558 481 558 534 q 521 393 558 430 q 431 356 484 356 z "},"ǉ":{"ha":720,"x_min":58,"x_max":649,"o":"m 269 0 l 58 0 l 58 956 l 269 956 l 269 0 m 412 -306 q 309 -293 349 -306 q 248 -269 268 -281 l 313 -112 q 336 -125 324 -121 q 365 -128 349 -128 q 396 -118 383 -128 q 416 -87 409 -108 q 422 -37 422 -67 l 422 570 l 633 570 l 633 -70 q 610 -190 633 -136 q 539 -274 588 -243 q 412 -306 490 -306 m 529 688 q 445 723 481 688 q 410 806 410 758 q 426 866 410 839 q 469 910 442 893 q 529 926 497 926 q 590 910 563 926 q 633 867 617 894 q 649 806 649 840 q 614 723 649 758 q 529 688 579 688 z "},"ł":{"ha":405,"x_min":11,"x_max":375,"o":"m 94 0 l 94 345 l 11 278 l 11 448 l 94 514 l 94 956 l 290 956 l 290 667 l 375 734 l 375 565 l 290 499 l 290 0 l 94 0 z "},"m":{"ha":1126,"x_min":58,"x_max":1062,"o":"m 842 587 q 956 560 907 587 q 1034 478 1006 533 q 1062 335 1062 422 l 1062 0 l 854 0 l 854 303 q 836 399 854 363 q 765 436 818 436 q 708 419 733 436 q 671 373 684 403 q 658 303 658 344 l 658 0 l 464 0 l 464 303 q 444 399 464 363 q 374 436 424 436 q 318 420 342 436 q 281 374 294 403 q 268 303 268 344 l 268 0 l 58 0 l 58 570 l 268 570 l 268 489 q 305 533 276 510 q 374 571 333 556 q 463 587 416 587 q 547 572 513 587 q 603 532 581 557 q 638 478 625 507 q 677 528 648 503 q 749 570 706 553 q 842 587 792 587 z "},"n":{"ha":763,"x_min":49,"x_max":698,"o":"m 451 587 q 567 563 510 587 q 661 486 624 538 q 698 348 698 433 l 698 0 l 486 0 l 486 313 q 457 405 486 374 q 381 436 428 436 q 322 420 349 436 q 277 374 294 403 q 260 306 260 344 l 260 0 l 49 0 l 49 570 l 260 570 l 260 486 q 295 532 269 509 q 363 571 322 556 q 451 587 403 587 z "},"ń":{"ha":763,"x_min":49,"x_max":698,"o":"m 451 587 q 567 563 510 587 q 661 486 624 538 q 698 348 698 433 l 698 0 l 486 0 l 486 313 q 457 405 486 374 q 381 436 428 436 q 322 420 349 436 q 277 374 294 403 q 260 306 260 344 l 260 0 l 49 0 l 49 570 l 260 570 l 260 486 q 295 532 269 509 q 363 571 322 556 q 451 587 403 587 m 274 633 l 213 719 l 438 913 l 538 788 l 274 633 z "},"ň":{"ha":763,"x_min":49,"x_max":698,"o":"m 451 587 q 567 563 510 587 q 661 486 624 538 q 698 348 698 433 l 698 0 l 486 0 l 486 313 q 457 405 486 374 q 381 436 428 436 q 322 420 349 436 q 277 374 294 403 q 260 306 260 344 l 260 0 l 49 0 l 49 570 l 260 570 l 260 486 q 295 532 269 509 q 363 571 322 556 q 451 587 403 587 m 356 653 l 111 832 l 187 933 l 356 808 l 526 933 l 601 832 l 356 653 z "},"ņ":{"ha":763,"x_min":49,"x_max":698,"o":"m 451 587 q 567 563 510 587 q 661 486 624 538 q 698 348 698 433 l 698 0 l 486 0 l 486 313 q 457 405 486 374 q 381 436 428 436 q 322 420 349 436 q 277 374 294 403 q 260 306 260 344 l 260 0 l 49 0 l 49 570 l 260 570 l 260 486 q 295 532 269 509 q 363 571 322 556 q 451 587 403 587 m 317 -401 l 272 -350 q 335 -305 300 -335 q 380 -237 369 -274 q 349 -242 369 -242 q 289 -216 316 -242 q 263 -146 263 -190 q 293 -73 263 -103 q 364 -44 323 -44 q 436 -73 406 -44 q 467 -158 467 -102 q 445 -256 467 -208 q 390 -341 424 -303 q 317 -401 356 -379 z "},"ǌ":{"ha":1136,"x_min":49,"x_max":1065,"o":"m 451 587 q 567 563 510 587 q 661 486 624 538 q 698 348 698 433 l 698 0 l 486 0 l 486 313 q 457 405 486 374 q 381 436 428 436 q 322 420 349 436 q 277 374 294 403 q 260 306 260 344 l 260 0 l 49 0 l 49 570 l 260 570 l 260 486 q 295 532 269 509 q 363 571 322 556 q 451 587 403 587 m 827 -306 q 724 -293 765 -306 q 663 -269 683 -281 l 728 -112 q 751 -125 739 -121 q 780 -128 764 -128 q 811 -118 799 -128 q 831 -87 824 -108 q 838 -37 838 -67 l 838 570 l 1049 570 l 1049 -70 q 1026 -190 1049 -136 q 954 -274 1003 -243 q 827 -306 906 -306 m 944 688 q 861 723 896 688 q 826 806 826 758 q 842 866 826 839 q 885 910 858 893 q 944 926 912 926 q 1005 910 978 926 q 1048 867 1032 894 q 1065 806 1065 840 q 1030 723 1065 758 q 944 688 994 688 z "},"ñ":{"ha":763,"x_min":49,"x_max":698,"o":"m 451 587 q 567 563 510 587 q 661 486 624 538 q 698 348 698 433 l 698 0 l 486 0 l 486 313 q 457 405 486 374 q 381 436 428 436 q 322 420 349 436 q 277 374 294 403 q 260 306 260 344 l 260 0 l 49 0 l 49 570 l 260 570 l 260 486 q 295 532 269 509 q 363 571 322 556 q 451 587 403 587 m 118 681 q 144 765 125 722 q 194 840 163 809 q 269 870 226 870 q 347 857 313 870 q 409 832 380 844 q 469 819 438 819 q 502 836 489 819 q 519 870 515 854 l 631 870 q 606 785 625 829 q 556 711 587 742 q 480 681 524 681 q 403 693 437 681 q 341 719 370 706 q 281 731 311 731 q 248 714 261 731 q 231 681 235 697 l 118 681 z "},"ŋ":{"ha":763,"x_min":49,"x_max":698,"o":"m 698 0 l 486 0 l 486 -26 q 481 -79 486 -56 q 464 -114 476 -101 q 434 -126 453 -126 q 403 -120 417 -126 q 381 -110 388 -115 l 313 -267 q 363 -290 328 -276 q 469 -303 398 -303 q 570 -278 527 -303 q 642 -215 614 -254 q 684 -129 670 -175 q 698 -39 698 -83 l 698 0 m 451 587 q 567 563 510 587 q 661 486 624 538 q 698 348 698 433 l 698 0 l 486 0 l 486 313 q 457 405 486 374 q 381 436 428 436 q 322 420 349 436 q 277 374 294 403 q 260 306 260 344 l 260 0 l 49 0 l 49 570 l 260 570 l 260 486 q 295 532 269 509 q 363 571 322 556 q 451 587 403 587 z "},"o":{"ha":717,"x_min":27,"x_max":666,"o":"m 349 -17 q 182 22 255 -17 q 68 128 110 60 q 27 283 27 196 q 68 439 27 371 q 182 547 110 508 q 349 587 255 587 q 514 547 442 587 q 626 439 585 508 q 666 283 666 371 q 626 128 666 196 q 514 22 585 60 q 349 -17 442 -17 m 349 157 q 411 173 385 157 q 452 218 438 189 q 467 284 467 247 q 452 351 467 322 q 411 397 438 380 q 349 413 385 413 q 286 397 313 413 q 244 351 259 380 q 229 284 229 322 q 244 218 229 247 q 286 173 259 189 q 349 157 313 157 z "},"ó":{"ha":717,"x_min":27,"x_max":666,"o":"m 349 -17 q 182 22 255 -17 q 68 128 110 60 q 27 283 27 196 q 68 439 27 371 q 182 547 110 508 q 349 587 255 587 q 514 547 442 587 q 626 439 585 508 q 666 283 666 371 q 626 128 666 196 q 514 22 585 60 q 349 -17 442 -17 m 349 157 q 411 173 385 157 q 452 218 438 189 q 467 284 467 247 q 452 351 467 322 q 411 397 438 380 q 349 413 385 413 q 286 397 313 413 q 244 351 259 380 q 229 284 229 322 q 244 218 229 247 q 286 173 259 189 q 349 157 313 157 m 257 633 l 195 719 l 421 913 l 521 788 l 257 633 z "},"ŏ":{"ha":717,"x_min":27,"x_max":666,"o":"m 349 -17 q 182 22 255 -17 q 68 128 110 60 q 27 283 27 196 q 68 439 27 371 q 182 547 110 508 q 349 587 255 587 q 514 547 442 587 q 626 439 585 508 q 666 283 666 371 q 626 128 666 196 q 514 22 585 60 q 349 -17 442 -17 m 349 157 q 411 173 385 157 q 452 218 438 189 q 467 284 467 247 q 452 351 467 322 q 411 397 438 380 q 349 413 385 413 q 286 397 313 413 q 244 351 259 380 q 229 284 229 322 q 244 218 229 247 q 286 173 259 189 q 349 157 313 157 m 347 638 q 220 664 276 638 q 131 734 165 689 q 90 839 97 779 l 230 874 q 246 823 233 849 q 284 777 259 796 q 347 759 309 759 q 409 777 384 759 q 447 823 434 796 q 463 874 460 849 l 602 839 q 563 736 596 781 q 475 664 530 690 q 347 638 419 638 z "},"ǒ":{"ha":717,"x_min":27,"x_max":666,"o":"m 349 -17 q 182 22 255 -17 q 68 128 110 60 q 27 283 27 196 q 68 439 27 371 q 182 547 110 508 q 349 587 255 587 q 514 547 442 587 q 626 439 585 508 q 666 283 666 371 q 626 128 666 196 q 514 22 585 60 q 349 -17 442 -17 m 349 157 q 411 173 385 157 q 452 218 438 189 q 467 284 467 247 q 452 351 467 322 q 411 397 438 380 q 349 413 385 413 q 286 397 313 413 q 244 351 259 380 q 229 284 229 322 q 244 218 229 247 q 286 173 259 189 q 349 157 313 157 m 358 653 l 113 832 l 188 933 l 358 808 l 527 933 l 603 832 l 358 653 z "},"ô":{"ha":717,"x_min":27,"x_max":666,"o":"m 349 -17 q 182 22 255 -17 q 68 128 110 60 q 27 283 27 196 q 68 439 27 371 q 182 547 110 508 q 349 587 255 587 q 514 547 442 587 q 626 439 585 508 q 666 283 666 371 q 626 128 666 196 q 514 22 585 60 q 349 -17 442 -17 m 349 157 q 411 173 385 157 q 452 218 438 189 q 467 284 467 247 q 452 351 467 322 q 411 397 438 380 q 349 413 385 413 q 286 397 313 413 q 244 351 259 380 q 229 284 229 322 q 244 218 229 247 q 286 173 259 189 q 349 157 313 157 m 516 617 l 347 742 l 177 618 l 101 718 l 347 897 l 592 718 l 516 617 z "},"ố":{"ha":717,"x_min":27,"x_max":788,"o":"m 349 -17 q 182 22 255 -17 q 68 128 110 60 q 27 283 27 196 q 68 439 27 371 q 182 547 110 508 q 349 587 255 587 q 514 547 442 587 q 626 439 585 508 q 666 283 666 371 q 626 128 666 196 q 514 22 585 60 q 349 -17 442 -17 m 349 157 q 411 173 385 157 q 452 218 438 189 q 467 284 467 247 q 452 351 467 322 q 411 397 438 380 q 349 413 385 413 q 286 397 313 413 q 244 351 259 380 q 229 284 229 322 q 244 218 229 247 q 286 173 259 189 q 349 157 313 157 m 517 616 l 347 740 l 178 616 l 102 716 l 347 895 l 592 716 l 517 616 m 524 820 l 462 905 l 688 1100 l 788 974 l 524 820 z "},"ộ":{"ha":717,"x_min":27,"x_max":666,"o":"m 349 -17 q 182 22 255 -17 q 68 128 110 60 q 27 283 27 196 q 68 439 27 371 q 182 547 110 508 q 349 587 255 587 q 514 547 442 587 q 626 439 585 508 q 666 283 666 371 q 626 128 666 196 q 514 22 585 60 q 349 -17 442 -17 m 349 157 q 411 173 385 157 q 452 218 438 189 q 467 284 467 247 q 452 351 467 322 q 411 397 438 380 q 349 413 385 413 q 286 397 313 413 q 244 351 259 380 q 229 284 229 322 q 244 218 229 247 q 286 173 259 189 q 349 157 313 157 m 347 -326 q 289 -302 313 -326 q 266 -246 266 -278 q 289 -189 266 -213 q 347 -165 313 -165 q 402 -189 379 -165 q 426 -246 426 -213 q 402 -302 426 -278 q 347 -326 379 -326 m 516 617 l 347 742 l 177 618 l 101 718 l 347 897 l 592 718 l 516 617 z "},"ồ":{"ha":717,"x_min":27,"x_max":695,"o":"m 349 -17 q 182 22 255 -17 q 68 128 110 60 q 27 283 27 196 q 68 439 27 371 q 182 547 110 508 q 349 587 255 587 q 514 547 442 587 q 626 439 585 508 q 666 283 666 371 q 626 128 666 196 q 514 22 585 60 q 349 -17 442 -17 m 349 157 q 411 173 385 157 q 452 218 438 189 q 467 284 467 247 q 452 351 467 322 q 411 397 438 380 q 349 413 385 413 q 286 397 313 413 q 244 351 259 380 q 229 284 229 322 q 244 218 229 247 q 286 173 259 189 q 349 157 313 157 m 517 618 l 348 742 l 178 619 l 103 719 l 348 898 l 593 719 l 517 618 m 633 808 l 369 962 l 469 1088 l 694 894 l 633 808 z "},"ổ":{"ha":717,"x_min":27,"x_max":666,"o":"m 349 -17 q 182 22 255 -17 q 68 128 110 60 q 27 283 27 196 q 68 439 27 371 q 182 547 110 508 q 349 587 255 587 q 514 547 442 587 q 626 439 585 508 q 666 283 666 371 q 626 128 666 196 q 514 22 585 60 q 349 -17 442 -17 m 349 157 q 411 173 385 157 q 452 218 438 189 q 467 284 467 247 q 452 351 467 322 q 411 397 438 380 q 349 413 385 413 q 286 397 313 413 q 244 351 259 380 q 229 284 229 322 q 244 218 229 247 q 286 173 259 189 q 349 157 313 157 m 486 836 l 435 915 q 475 932 451 919 q 519 965 500 945 q 539 1011 539 985 q 528 1049 539 1037 q 501 1064 518 1060 q 462 1067 483 1067 q 401 1057 432 1067 q 350 1035 371 1046 l 350 1142 q 395 1163 363 1151 q 489 1176 427 1176 q 574 1161 533 1176 q 640 1115 615 1147 q 666 1028 666 1083 q 646 951 666 984 q 597 895 626 919 q 537 858 567 872 q 486 836 507 844 m 518 616 l 349 740 l 179 616 l 103 716 l 349 895 l 594 716 l 518 616 z "},"ỗ":{"ha":717,"x_min":27,"x_max":666,"o":"m 349 -17 q 182 22 255 -17 q 68 128 110 60 q 27 283 27 196 q 68 439 27 371 q 182 547 110 508 q 349 587 255 587 q 514 547 442 587 q 626 439 585 508 q 666 283 666 371 q 626 128 666 196 q 514 22 585 60 q 349 -17 442 -17 m 349 157 q 411 173 385 157 q 452 218 438 189 q 467 284 467 247 q 452 351 467 322 q 411 397 438 380 q 349 413 385 413 q 286 397 313 413 q 244 351 259 380 q 229 284 229 322 q 244 218 229 247 q 286 173 259 189 q 349 157 313 157 m 98 916 q 123 1000 104 956 q 174 1075 142 1044 q 249 1106 205 1106 q 326 1093 293 1106 q 389 1067 360 1080 q 449 1054 417 1054 q 482 1072 469 1054 q 499 1106 494 1090 l 611 1106 q 585 1021 604 1065 q 535 947 567 977 q 460 916 504 916 q 383 929 416 916 q 320 954 349 942 q 260 967 291 967 q 227 949 240 967 q 210 916 215 932 l 98 916 m 515 616 l 346 740 l 176 616 l 101 716 l 346 895 l 591 716 l 515 616 z "},"ȍ":{"ha":717,"x_min":14,"x_max":666,"o":"m 349 -17 q 182 22 255 -17 q 68 128 110 60 q 27 283 27 196 q 68 439 27 371 q 182 547 110 508 q 349 587 255 587 q 514 547 442 587 q 626 439 585 508 q 666 283 666 371 q 626 128 666 196 q 514 22 585 60 q 349 -17 442 -17 m 349 157 q 411 173 385 157 q 452 218 438 189 q 467 284 467 247 q 452 351 467 322 q 411 397 438 380 q 349 413 385 413 q 286 397 313 413 q 244 351 259 380 q 229 284 229 322 q 244 218 229 247 q 286 173 259 189 q 349 157 313 157 m 572 653 l 308 806 l 408 933 l 634 738 l 572 653 m 278 653 l 14 806 l 114 933 l 340 738 l 278 653 z "},"ö":{"ha":717,"x_min":27,"x_max":666,"o":"m 349 -17 q 182 22 255 -17 q 68 128 110 60 q 27 283 27 196 q 68 439 27 371 q 182 547 110 508 q 349 587 255 587 q 514 547 442 587 q 626 439 585 508 q 666 283 666 371 q 626 128 666 196 q 514 22 585 60 q 349 -17 442 -17 m 349 157 q 411 173 385 157 q 452 218 438 189 q 467 284 467 247 q 452 351 467 322 q 411 397 438 380 q 349 413 385 413 q 286 397 313 413 q 244 351 259 380 q 229 284 229 322 q 244 218 229 247 q 286 173 259 189 q 349 157 313 157 m 497 669 q 424 699 454 669 q 394 771 394 729 q 424 843 394 813 q 497 873 454 873 q 568 843 538 873 q 598 771 598 813 q 568 699 598 728 q 497 669 538 669 m 217 669 q 145 699 174 669 q 115 771 115 729 q 145 843 115 813 q 217 873 174 873 q 289 843 259 873 q 319 771 319 813 q 289 699 319 728 q 217 669 259 669 z "},"ȫ":{"ha":717,"x_min":27,"x_max":666,"o":"m 349 -17 q 182 22 255 -17 q 68 128 110 60 q 27 283 27 196 q 68 439 27 371 q 182 547 110 508 q 349 587 255 587 q 514 547 442 587 q 626 439 585 508 q 666 283 666 371 q 626 128 666 196 q 514 22 585 60 q 349 -17 442 -17 m 349 157 q 411 173 385 157 q 452 218 438 189 q 467 284 467 247 q 452 351 467 322 q 411 397 438 380 q 349 413 385 413 q 286 397 313 413 q 244 351 259 380 q 229 284 229 322 q 244 218 229 247 q 286 173 259 189 q 349 157 313 157 m 497 669 q 424 699 454 669 q 394 771 394 729 q 424 843 394 813 q 497 873 454 873 q 568 843 538 873 q 598 771 598 813 q 568 699 598 728 q 497 669 538 669 m 217 669 q 145 699 174 669 q 115 771 115 729 q 145 843 115 813 q 217 873 174 873 q 289 843 259 873 q 319 771 319 813 q 289 699 319 728 q 217 669 259 669 m 133 947 l 133 1079 l 585 1079 l 585 947 l 133 947 z "},"ȱ":{"ha":717,"x_min":27,"x_max":666,"o":"m 349 -17 q 182 22 255 -17 q 68 128 110 60 q 27 283 27 196 q 68 439 27 371 q 182 547 110 508 q 349 587 255 587 q 514 547 442 587 q 626 439 585 508 q 666 283 666 371 q 626 128 666 196 q 514 22 585 60 q 349 -17 442 -17 m 349 157 q 411 173 385 157 q 452 218 438 189 q 467 284 467 247 q 452 351 467 322 q 411 397 438 380 q 349 413 385 413 q 286 397 313 413 q 244 351 259 380 q 229 284 229 322 q 244 218 229 247 q 286 173 259 189 q 349 157 313 157 m 358 675 q 286 705 315 675 q 256 776 256 735 q 286 848 256 818 q 358 878 315 878 q 429 849 399 878 q 459 776 459 819 q 429 705 459 734 q 358 675 399 675 m 144 942 l 144 1074 l 596 1074 l 596 942 l 144 942 z "},"ọ":{"ha":717,"x_min":27,"x_max":666,"o":"m 349 -17 q 182 22 255 -17 q 68 128 110 60 q 27 283 27 196 q 68 439 27 371 q 182 547 110 508 q 349 587 255 587 q 514 547 442 587 q 626 439 585 508 q 666 283 666 371 q 626 128 666 196 q 514 22 585 60 q 349 -17 442 -17 m 349 157 q 411 173 385 157 q 452 218 438 189 q 467 284 467 247 q 452 351 467 322 q 411 397 438 380 q 349 413 385 413 q 286 397 313 413 q 244 351 259 380 q 229 284 229 322 q 244 218 229 247 q 286 173 259 189 q 349 157 313 157 m 347 -326 q 289 -302 313 -326 q 266 -246 266 -278 q 289 -189 266 -213 q 347 -165 313 -165 q 402 -189 379 -165 q 426 -246 426 -213 q 402 -302 426 -278 q 347 -326 379 -326 z "},"ò":{"ha":717,"x_min":27,"x_max":666,"o":"m 349 -17 q 182 22 255 -17 q 68 128 110 60 q 27 283 27 196 q 68 439 27 371 q 182 547 110 508 q 349 587 255 587 q 514 547 442 587 q 626 439 585 508 q 666 283 666 371 q 626 128 666 196 q 514 22 585 60 q 349 -17 442 -17 m 349 157 q 411 173 385 157 q 452 218 438 189 q 467 284 467 247 q 452 351 467 322 q 411 397 438 380 q 349 413 385 413 q 286 397 313 413 q 244 351 259 380 q 229 284 229 322 q 244 218 229 247 q 286 173 259 189 q 349 157 313 157 m 459 653 l 195 806 l 295 933 l 522 738 l 459 653 z "},"ỏ":{"ha":717,"x_min":27,"x_max":666,"o":"m 349 -17 q 182 22 255 -17 q 68 128 110 60 q 27 283 27 196 q 68 439 27 371 q 182 547 110 508 q 349 587 255 587 q 514 547 442 587 q 626 439 585 508 q 666 283 666 371 q 626 128 666 196 q 514 22 585 60 q 349 -17 442 -17 m 349 157 q 411 173 385 157 q 452 218 438 189 q 467 284 467 247 q 452 351 467 322 q 411 397 438 380 q 349 413 385 413 q 286 397 313 413 q 244 351 259 380 q 229 284 229 322 q 244 218 229 247 q 286 173 259 189 q 349 157 313 157 m 324 600 l 274 678 q 314 696 289 683 q 358 729 338 709 q 377 775 377 749 q 367 812 377 801 q 339 827 356 824 q 300 831 322 831 q 240 820 270 831 q 188 799 209 810 l 188 906 q 233 927 201 915 q 327 940 265 940 q 412 925 372 940 q 478 879 453 911 q 504 792 504 847 q 484 715 504 748 q 435 659 465 682 q 375 622 406 635 q 324 600 345 608 z "},"ơ":{"ha":717,"x_min":27,"x_max":777,"o":"m 349 -17 q 182 22 255 -17 q 68 128 110 60 q 27 283 27 196 q 68 439 27 371 q 182 547 110 508 q 349 587 255 587 q 514 547 442 587 q 626 439 585 508 q 666 283 666 371 q 626 128 666 196 q 514 22 585 60 q 349 -17 442 -17 m 349 157 q 411 173 385 157 q 452 218 438 189 q 467 284 467 247 q 452 351 467 322 q 411 397 438 380 q 349 413 385 413 q 286 397 313 413 q 244 351 259 380 q 229 284 229 322 q 244 218 229 247 q 286 173 259 189 q 349 157 313 157 m 580 425 q 539 430 556 425 q 506 444 522 435 l 506 547 q 530 532 516 538 q 565 526 544 526 q 619 553 600 526 q 638 613 638 580 q 633 662 638 643 q 621 700 629 681 l 754 700 q 768 666 760 691 q 777 599 777 641 q 749 509 777 548 q 677 447 722 469 q 580 425 632 425 z "},"ớ":{"ha":717,"x_min":27,"x_max":777,"o":"m 349 -17 q 182 22 255 -17 q 68 128 110 60 q 27 283 27 196 q 68 439 27 371 q 182 547 110 508 q 349 587 255 587 q 514 547 442 587 q 626 439 585 508 q 666 283 666 371 q 626 128 666 196 q 514 22 585 60 q 349 -17 442 -17 m 349 157 q 411 173 385 157 q 452 218 438 189 q 467 284 467 247 q 452 351 467 322 q 411 397 438 380 q 349 413 385 413 q 286 397 313 413 q 244 351 259 380 q 229 284 229 322 q 244 218 229 247 q 286 173 259 189 q 349 157 313 157 m 580 425 q 539 430 556 425 q 506 444 522 435 l 506 547 q 530 532 516 538 q 565 526 544 526 q 619 553 600 526 q 638 613 638 580 q 633 662 638 643 q 621 700 629 681 l 754 700 q 768 666 760 691 q 777 599 777 641 q 749 509 777 548 q 677 447 722 469 q 580 425 632 425 m 257 633 l 195 719 l 421 913 l 521 788 l 257 633 z "},"ợ":{"ha":717,"x_min":27,"x_max":777,"o":"m 349 -17 q 182 22 255 -17 q 68 128 110 60 q 27 283 27 196 q 68 439 27 371 q 182 547 110 508 q 349 587 255 587 q 514 547 442 587 q 626 439 585 508 q 666 283 666 371 q 626 128 666 196 q 514 22 585 60 q 349 -17 442 -17 m 349 157 q 411 173 385 157 q 452 218 438 189 q 467 284 467 247 q 452 351 467 322 q 411 397 438 380 q 349 413 385 413 q 286 397 313 413 q 244 351 259 380 q 229 284 229 322 q 244 218 229 247 q 286 173 259 189 q 349 157 313 157 m 580 425 q 539 430 556 425 q 506 444 522 435 l 506 547 q 530 532 516 538 q 565 526 544 526 q 619 553 600 526 q 638 613 638 580 q 633 662 638 643 q 621 700 629 681 l 754 700 q 768 666 760 691 q 777 599 777 641 q 749 509 777 548 q 677 447 722 469 q 580 425 632 425 m 347 -326 q 289 -302 313 -326 q 266 -246 266 -278 q 289 -189 266 -213 q 347 -165 313 -165 q 402 -189 379 -165 q 426 -246 426 -213 q 402 -302 426 -278 q 347 -326 379 -326 z "},"ờ":{"ha":717,"x_min":27,"x_max":777,"o":"m 349 -17 q 182 22 255 -17 q 68 128 110 60 q 27 283 27 196 q 68 439 27 371 q 182 547 110 508 q 349 587 255 587 q 514 547 442 587 q 626 439 585 508 q 666 283 666 371 q 626 128 666 196 q 514 22 585 60 q 349 -17 442 -17 m 349 157 q 411 173 385 157 q 452 218 438 189 q 467 284 467 247 q 452 351 467 322 q 411 397 438 380 q 349 413 385 413 q 286 397 313 413 q 244 351 259 380 q 229 284 229 322 q 244 218 229 247 q 286 173 259 189 q 349 157 313 157 m 580 425 q 539 430 556 425 q 506 444 522 435 l 506 547 q 530 532 516 538 q 565 526 544 526 q 619 553 600 526 q 638 613 638 580 q 633 662 638 643 q 621 700 629 681 l 754 700 q 768 666 760 691 q 777 599 777 641 q 749 509 777 548 q 677 447 722 469 q 580 425 632 425 m 459 653 l 195 806 l 295 933 l 522 738 l 459 653 z "},"ở":{"ha":717,"x_min":27,"x_max":777,"o":"m 349 -17 q 182 22 255 -17 q 68 128 110 60 q 27 283 27 196 q 68 439 27 371 q 182 547 110 508 q 349 587 255 587 q 514 547 442 587 q 626 439 585 508 q 666 283 666 371 q 626 128 666 196 q 514 22 585 60 q 349 -17 442 -17 m 349 157 q 411 173 385 157 q 452 218 438 189 q 467 284 467 247 q 452 351 467 322 q 411 397 438 380 q 349 413 385 413 q 286 397 313 413 q 244 351 259 380 q 229 284 229 322 q 244 218 229 247 q 286 173 259 189 q 349 157 313 157 m 580 425 q 539 430 556 425 q 506 444 522 435 l 506 547 q 530 532 516 538 q 565 526 544 526 q 619 553 600 526 q 638 613 638 580 q 633 662 638 643 q 621 700 629 681 l 754 700 q 768 666 760 691 q 777 599 777 641 q 749 509 777 548 q 677 447 722 469 q 580 425 632 425 m 324 600 l 274 678 q 314 696 289 683 q 358 729 338 709 q 377 775 377 749 q 367 812 377 801 q 339 827 356 824 q 300 831 322 831 q 240 820 270 831 q 188 799 209 810 l 188 906 q 233 927 201 915 q 327 940 265 940 q 412 925 372 940 q 478 879 453 911 q 504 792 504 847 q 484 715 504 748 q 435 659 465 682 q 375 622 406 635 q 324 600 345 608 z "},"ỡ":{"ha":717,"x_min":27,"x_max":777,"o":"m 349 -17 q 182 22 255 -17 q 68 128 110 60 q 27 283 27 196 q 68 439 27 371 q 182 547 110 508 q 349 587 255 587 q 514 547 442 587 q 626 439 585 508 q 666 283 666 371 q 626 128 666 196 q 514 22 585 60 q 349 -17 442 -17 m 349 157 q 411 173 385 157 q 452 218 438 189 q 467 284 467 247 q 452 351 467 322 q 411 397 438 380 q 349 413 385 413 q 286 397 313 413 q 244 351 259 380 q 229 284 229 322 q 244 218 229 247 q 286 173 259 189 q 349 157 313 157 m 580 425 q 539 430 556 425 q 506 444 522 435 l 506 547 q 530 532 516 538 q 565 526 544 526 q 619 553 600 526 q 638 613 638 580 q 633 662 638 643 q 621 700 629 681 l 754 700 q 768 666 760 691 q 777 599 777 641 q 749 509 777 548 q 677 447 722 469 q 580 425 632 425 m 101 681 q 126 765 108 722 q 177 840 145 809 q 252 870 208 870 q 329 857 296 870 q 392 832 363 844 q 451 819 421 819 q 484 836 472 819 q 502 870 497 854 l 614 870 q 589 785 608 829 q 538 711 569 742 q 463 681 507 681 q 386 693 419 681 q 323 719 353 706 q 263 731 294 731 q 231 714 244 731 q 213 681 218 697 l 101 681 z "},"ő":{"ha":703,"x_min":27,"x_max":666,"o":"m 349 -17 q 182 22 255 -17 q 68 128 110 60 q 27 283 27 196 q 68 439 27 371 q 182 547 110 508 q 349 587 255 587 q 514 547 442 587 q 626 439 585 508 q 666 283 666 371 q 626 128 666 196 q 514 22 585 60 q 349 -17 442 -17 m 349 157 q 411 173 385 157 q 452 218 438 189 q 467 284 467 247 q 452 351 467 322 q 411 397 438 380 q 349 413 385 413 q 286 397 313 413 q 244 351 259 380 q 229 284 229 322 q 244 218 229 247 q 286 173 259 189 q 349 157 313 157 m 441 653 l 379 738 l 571 955 l 662 840 l 441 653 m 207 653 l 144 738 l 337 955 l 428 840 l 207 653 z "},"ȏ":{"ha":717,"x_min":27,"x_max":666,"o":"m 349 -17 q 182 22 255 -17 q 68 128 110 60 q 27 283 27 196 q 68 439 27 371 q 182 547 110 508 q 349 587 255 587 q 514 547 442 587 q 626 439 585 508 q 666 283 666 371 q 626 128 666 196 q 514 22 585 60 q 349 -17 442 -17 m 349 157 q 411 173 385 157 q 452 218 438 189 q 467 284 467 247 q 452 351 467 322 q 411 397 438 380 q 349 413 385 413 q 286 397 313 413 q 244 351 259 380 q 229 284 229 322 q 244 218 229 247 q 286 173 259 189 q 349 157 313 157 m 229 629 l 90 664 q 130 767 97 722 q 218 839 163 813 q 346 865 273 865 q 472 839 417 865 q 561 769 527 814 q 602 664 595 724 l 463 629 q 447 681 460 654 q 409 726 433 708 q 346 744 384 744 q 283 726 308 744 q 245 681 258 708 q 229 629 232 654 z "},"ō":{"ha":703,"x_min":27,"x_max":666,"o":"m 349 -17 q 182 22 255 -17 q 68 128 110 60 q 27 283 27 196 q 68 439 27 371 q 182 547 110 508 q 349 587 255 587 q 514 547 442 587 q 626 439 585 508 q 666 283 666 371 q 626 128 666 196 q 514 22 585 60 q 349 -17 442 -17 m 349 157 q 411 173 385 157 q 452 218 438 189 q 467 284 467 247 q 452 351 467 322 q 411 397 438 380 q 349 413 385 413 q 286 397 313 413 q 244 351 259 380 q 229 284 229 322 q 244 218 229 247 q 286 173 259 189 q 349 157 313 157 m 117 705 l 117 837 l 569 837 l 569 705 l 117 705 z "},"ǫ":{"ha":717,"x_min":27,"x_max":666,"o":"m 349 -17 q 182 22 255 -17 q 68 128 110 60 q 27 283 27 196 q 68 439 27 371 q 182 547 110 508 q 349 587 255 587 q 514 547 442 587 q 626 439 585 508 q 666 283 666 371 q 626 128 666 196 q 514 22 585 60 q 349 -17 442 -17 m 349 157 q 411 173 385 157 q 452 218 438 189 q 467 284 467 247 q 452 351 467 322 q 411 397 438 380 q 349 413 385 413 q 286 397 313 413 q 244 351 259 380 q 229 284 229 322 q 244 218 229 247 q 286 173 259 189 q 349 157 313 157 m 421 -302 q 359 -290 392 -302 q 305 -251 327 -278 q 282 -175 282 -223 q 301 -105 282 -143 q 347 -32 319 -67 q 399 28 374 3 l 460 0 q 431 -43 446 -17 q 404 -98 415 -69 q 393 -156 393 -128 q 408 -188 393 -177 q 437 -199 422 -199 q 472 -188 456 -199 q 494 -167 488 -177 l 573 -226 q 516 -277 557 -251 q 421 -302 474 -302 z "},"ø":{"ha":703,"x_min":27,"x_max":666,"o":"m 604 605 l 660 556 l 84 -31 l 27 19 l 604 605 m 349 -17 q 182 22 255 -17 q 68 128 110 60 q 27 283 27 196 q 68 439 27 371 q 182 547 110 508 q 349 587 255 587 q 514 547 442 587 q 626 439 585 508 q 666 283 666 371 q 626 128 666 196 q 514 22 585 60 q 349 -17 442 -17 m 349 157 q 411 173 385 157 q 452 218 438 189 q 467 284 467 247 q 452 351 467 322 q 411 397 438 380 q 349 413 385 413 q 286 397 313 413 q 244 351 259 380 q 229 284 229 322 q 244 218 229 247 q 286 173 259 189 q 349 157 313 157 z "},"ǿ":{"ha":703,"x_min":27,"x_max":666,"o":"m 604 605 l 660 556 l 84 -31 l 27 19 l 604 605 m 349 -17 q 182 22 255 -17 q 68 128 110 60 q 27 283 27 196 q 68 439 27 371 q 182 547 110 508 q 349 587 255 587 q 514 547 442 587 q 626 439 585 508 q 666 283 666 371 q 626 128 666 196 q 514 22 585 60 q 349 -17 442 -17 m 349 157 q 411 173 385 157 q 452 218 438 189 q 467 284 467 247 q 452 351 467 322 q 411 397 438 380 q 349 413 385 413 q 286 397 313 413 q 244 351 259 380 q 229 284 229 322 q 244 218 229 247 q 286 173 259 189 q 349 157 313 157 m 257 633 l 195 719 l 421 913 l 521 788 l 257 633 z "},"õ":{"ha":703,"x_min":27,"x_max":666,"o":"m 349 -17 q 182 22 255 -17 q 68 128 110 60 q 27 283 27 196 q 68 439 27 371 q 182 547 110 508 q 349 587 255 587 q 514 547 442 587 q 626 439 585 508 q 666 283 666 371 q 626 128 666 196 q 514 22 585 60 q 349 -17 442 -17 m 349 157 q 411 173 385 157 q 452 218 438 189 q 467 284 467 247 q 452 351 467 322 q 411 397 438 380 q 349 413 385 413 q 286 397 313 413 q 244 351 259 380 q 229 284 229 322 q 244 218 229 247 q 286 173 259 189 q 349 157 313 157 m 84 684 q 110 769 91 725 q 160 843 128 813 q 235 874 192 874 q 313 861 279 874 q 375 835 346 848 q 435 823 404 823 q 468 840 455 823 q 485 874 481 858 l 597 874 q 572 789 591 833 q 522 715 553 745 q 446 684 490 684 q 369 697 403 684 q 307 723 336 710 q 247 735 277 735 q 214 718 227 735 q 197 684 201 701 l 84 684 z "},"ȭ":{"ha":717,"x_min":27,"x_max":666,"o":"m 349 -17 q 182 22 255 -17 q 68 128 110 60 q 27 283 27 196 q 68 439 27 371 q 182 547 110 508 q 349 587 255 587 q 514 547 442 587 q 626 439 585 508 q 666 283 666 371 q 626 128 666 196 q 514 22 585 60 q 349 -17 442 -17 m 349 157 q 411 173 385 157 q 452 218 438 189 q 467 284 467 247 q 452 351 467 322 q 411 397 438 380 q 349 413 385 413 q 286 397 313 413 q 244 351 259 380 q 229 284 229 322 q 244 218 229 247 q 286 173 259 189 q 349 157 313 157 m 101 681 q 126 765 108 722 q 177 840 145 809 q 252 870 208 870 q 329 857 296 870 q 392 832 363 844 q 451 819 421 819 q 484 836 472 819 q 502 870 497 854 l 614 870 q 589 785 608 829 q 538 711 569 742 q 463 681 507 681 q 386 693 419 681 q 323 719 353 706 q 263 731 294 731 q 231 714 244 731 q 213 681 218 697 l 101 681 m 133 940 l 133 1072 l 585 1072 l 585 940 l 133 940 z "},"œ":{"ha":1149,"x_min":27,"x_max":1097,"o":"m 349 -17 q 182 22 255 -17 q 68 128 110 60 q 27 283 27 196 q 68 439 27 371 q 182 547 110 508 q 349 587 255 587 q 514 547 442 587 q 626 439 585 508 q 666 283 666 371 q 626 128 666 196 q 514 22 585 60 q 349 -17 442 -17 m 349 157 q 411 173 385 157 q 452 218 438 189 q 467 284 467 247 q 452 351 467 322 q 411 397 438 380 q 349 413 385 413 q 286 397 313 413 q 244 351 259 380 q 229 284 229 322 q 244 218 229 247 q 286 173 259 189 q 349 157 313 157 m 682 240 q 701 186 684 210 q 750 149 719 163 q 823 135 781 135 q 895 144 863 135 q 952 165 928 152 q 989 190 976 177 l 1071 60 q 1022 23 1053 41 q 939 -6 990 6 q 809 -17 888 -17 q 641 19 715 -17 q 525 123 567 54 q 483 291 483 192 q 519 441 483 374 q 625 548 556 508 q 792 587 694 587 q 954 553 885 587 q 1059 452 1022 519 q 1097 285 1097 385 q 1096 263 1097 279 q 1094 240 1096 246 l 682 240 m 898 351 q 886 395 897 373 q 853 431 875 417 q 796 445 831 445 q 737 432 761 445 q 701 397 713 418 q 687 351 688 375 l 898 351 z "},"p":{"ha":786,"x_min":57,"x_max":738,"o":"m 266 -289 l 57 -289 l 57 570 l 268 570 l 268 487 q 305 530 278 506 q 375 570 333 553 q 472 587 418 587 q 615 546 556 587 q 706 436 674 505 q 738 285 738 368 q 704 133 738 201 q 609 24 670 65 q 464 -17 547 -17 q 362 5 404 -17 q 296 52 320 26 q 266 92 272 78 l 266 -289 m 532 285 q 515 355 532 324 q 468 403 497 385 q 401 421 438 421 q 333 403 363 421 q 285 355 303 385 q 268 285 268 324 q 285 215 268 246 q 333 167 303 184 q 401 149 363 149 q 468 167 438 149 q 515 215 497 184 q 532 285 532 246 z "},"þ":{"ha":776,"x_min":55,"x_max":736,"o":"m 55 0 l 264 0 l 264 -289 l 55 -289 l 55 0 m 55 0 l 55 956 l 266 956 l 266 487 q 298 530 272 506 q 367 570 324 553 q 464 587 410 587 q 608 546 547 587 q 703 436 669 505 q 736 285 736 368 q 703 133 736 201 q 608 24 669 65 q 464 -17 547 -17 q 377 0 418 -17 q 307 41 337 16 q 264 92 278 67 l 264 0 l 55 0 m 529 285 q 512 355 529 324 q 466 403 495 385 q 399 421 436 421 q 331 403 361 421 q 283 355 301 385 q 266 285 266 324 q 283 215 266 246 q 331 167 301 184 q 399 149 361 149 q 466 167 436 149 q 512 215 495 184 q 529 285 529 246 z "},"q":{"ha":786,"x_min":48,"x_max":729,"o":"m 521 -289 l 521 92 q 491 52 515 78 q 425 5 467 26 q 322 -17 383 -17 q 178 24 240 -17 q 82 133 116 65 q 48 285 48 201 q 80 436 48 368 q 172 546 112 505 q 314 587 231 587 q 411 570 369 587 q 482 530 454 553 q 519 487 509 506 l 519 570 l 729 570 l 729 -289 l 521 -289 m 385 149 q 453 167 424 149 q 501 215 483 184 q 519 285 519 246 q 501 355 519 324 q 453 403 483 385 q 385 421 424 421 q 319 403 349 421 q 272 355 290 385 q 255 285 255 324 q 272 215 255 246 q 319 167 290 184 q 385 149 349 149 z "},"r":{"ha":551,"x_min":40,"x_max":552,"o":"m 251 0 l 40 0 l 40 570 l 251 570 l 251 482 l 248 482 q 275 523 253 498 q 335 567 297 547 q 431 587 374 587 q 503 575 470 587 q 552 551 537 563 l 470 380 q 436 405 460 392 q 374 417 411 417 q 305 396 332 417 q 264 344 277 374 q 251 286 251 313 l 251 0 z "},"ŕ":{"ha":564,"x_min":40,"x_max":552,"o":"m 251 0 l 40 0 l 40 570 l 251 570 l 251 482 l 248 482 q 275 523 253 498 q 335 567 297 547 q 431 587 374 587 q 503 575 470 587 q 552 551 537 563 l 470 380 q 436 405 460 392 q 374 417 411 417 q 305 396 332 417 q 264 344 277 374 q 251 286 251 313 l 251 0 m 222 653 l 160 738 l 385 933 l 485 806 l 222 653 z "},"ř":{"ha":564,"x_min":22,"x_max":552,"o":"m 251 0 l 40 0 l 40 570 l 251 570 l 251 482 l 248 482 q 275 523 253 498 q 335 567 297 547 q 431 587 374 587 q 503 575 470 587 q 552 551 537 563 l 470 380 q 436 405 460 392 q 374 417 411 417 q 305 396 332 417 q 264 344 277 374 q 251 286 251 313 l 251 0 m 267 653 l 22 832 l 98 933 l 267 808 l 437 933 l 513 832 l 267 653 z "},"ŗ":{"ha":551,"x_min":40,"x_max":552,"o":"m 251 0 l 40 0 l 40 570 l 251 570 l 251 482 l 248 482 q 275 523 253 498 q 335 567 297 547 q 431 587 374 587 q 503 575 470 587 q 552 551 537 563 l 470 380 q 436 405 460 392 q 374 417 411 417 q 305 396 332 417 q 264 344 277 374 q 251 286 251 313 l 251 0 m 219 -401 l 174 -350 q 236 -305 201 -335 q 281 -237 271 -274 q 251 -242 270 -242 q 191 -216 217 -242 q 164 -146 164 -190 q 194 -73 164 -103 q 265 -44 224 -44 q 338 -73 308 -44 q 368 -158 368 -102 q 347 -256 368 -208 q 292 -341 326 -303 q 219 -401 258 -379 z "},"ȑ":{"ha":551,"x_min":-67,"x_max":553,"o":"m 251 0 l 40 0 l 40 570 l 251 570 l 251 482 l 248 482 q 275 523 253 498 q 335 567 297 547 q 431 587 374 587 q 503 575 470 587 q 552 551 537 563 l 470 380 q 436 405 460 392 q 374 417 411 417 q 305 396 332 417 q 264 344 277 374 q 251 286 251 313 l 251 0 m 490 653 l 226 806 l 326 933 l 553 738 l 490 653 m 197 653 l -67 806 l 33 933 l 259 738 l 197 653 z "},"ȓ":{"ha":551,"x_min":9,"x_max":552,"o":"m 251 0 l 40 0 l 40 570 l 251 570 l 251 482 l 248 482 q 275 523 253 498 q 335 567 297 547 q 431 587 374 587 q 503 575 470 587 q 552 551 537 563 l 470 380 q 436 405 460 392 q 374 417 411 417 q 305 396 332 417 q 264 344 277 374 q 251 286 251 313 l 251 0 m 148 629 l 9 664 q 49 767 16 722 q 136 839 81 813 q 265 865 192 865 q 391 839 336 865 q 480 769 446 814 q 521 664 514 724 l 381 629 q 365 681 378 654 q 327 726 352 708 q 265 744 303 744 q 202 726 227 744 q 164 681 177 708 q 148 629 151 654 z "},"s":{"ha":597,"x_min":28,"x_max":543,"o":"m 314 587 q 417 577 370 587 q 495 556 463 568 q 535 537 526 544 l 467 413 q 418 438 453 422 q 338 453 382 453 q 282 443 305 453 q 259 411 259 433 q 284 377 259 390 q 358 354 310 364 q 442 328 399 346 q 514 275 485 310 q 543 181 543 240 q 517 83 543 122 q 449 22 492 44 q 358 -8 407 1 q 262 -17 308 -17 q 148 -5 197 -17 q 70 22 100 7 q 28 47 40 38 l 97 185 q 156 151 115 170 q 242 132 197 132 q 311 145 287 132 q 335 180 335 158 q 324 208 335 197 q 290 226 312 218 q 238 240 269 233 q 179 257 210 245 q 120 289 148 269 q 75 341 92 310 q 58 417 58 372 q 94 511 58 474 q 190 568 131 549 q 314 587 248 587 z "},"ś":{"ha":597,"x_min":28,"x_max":543,"o":"m 314 587 q 417 577 370 587 q 495 556 463 568 q 535 537 526 544 l 467 413 q 418 438 453 422 q 338 453 382 453 q 282 443 305 453 q 259 411 259 433 q 284 377 259 390 q 358 354 310 364 q 442 328 399 346 q 514 275 485 310 q 543 181 543 240 q 517 83 543 122 q 449 22 492 44 q 358 -8 407 1 q 262 -17 308 -17 q 148 -5 197 -17 q 70 22 100 7 q 28 47 40 38 l 97 185 q 156 151 115 170 q 242 132 197 132 q 311 145 287 132 q 335 180 335 158 q 324 208 335 197 q 290 226 312 218 q 238 240 269 233 q 179 257 210 245 q 120 289 148 269 q 75 341 92 310 q 58 417 58 372 q 94 511 58 474 q 190 568 131 549 q 314 587 248 587 m 212 653 l 150 738 l 376 933 l 476 806 l 212 653 z "},"š":{"ha":597,"x_min":28,"x_max":561,"o":"m 314 587 q 417 577 370 587 q 495 556 463 568 q 535 537 526 544 l 467 413 q 418 438 453 422 q 338 453 382 453 q 282 443 305 453 q 259 411 259 433 q 284 377 259 390 q 358 354 310 364 q 442 328 399 346 q 514 275 485 310 q 543 181 543 240 q 517 83 543 122 q 449 22 492 44 q 358 -8 407 1 q 262 -17 308 -17 q 148 -5 197 -17 q 70 22 100 7 q 28 47 40 38 l 97 185 q 156 151 115 170 q 242 132 197 132 q 311 145 287 132 q 335 180 335 158 q 324 208 335 197 q 290 226 312 218 q 238 240 269 233 q 179 257 210 245 q 120 289 148 269 q 75 341 92 310 q 58 417 58 372 q 94 511 58 474 q 190 568 131 549 q 314 587 248 587 m 316 653 l 71 832 l 147 933 l 316 808 l 485 933 l 561 832 l 316 653 z "},"ş":{"ha":597,"x_min":28,"x_max":543,"o":"m 314 587 q 417 577 370 587 q 495 556 463 568 q 535 537 526 544 l 467 413 q 418 438 453 422 q 338 453 382 453 q 282 443 305 453 q 259 411 259 433 q 284 377 259 390 q 358 354 310 364 q 442 328 399 346 q 514 275 485 310 q 543 181 543 240 q 517 83 543 122 q 449 22 492 44 q 358 -8 407 1 q 262 -17 308 -17 q 148 -5 197 -17 q 70 22 100 7 q 28 47 40 38 l 97 185 q 156 151 115 170 q 242 132 197 132 q 311 145 287 132 q 335 180 335 158 q 324 208 335 197 q 290 226 312 218 q 238 240 269 233 q 179 257 210 245 q 120 289 148 269 q 75 341 92 310 q 58 417 58 372 q 94 511 58 474 q 190 568 131 549 q 314 587 248 587 m 285 -301 q 174 -281 219 -301 q 111 -242 128 -260 l 181 -163 q 217 -192 193 -177 q 268 -206 241 -206 q 308 -194 293 -206 q 323 -163 323 -183 q 304 -128 323 -140 q 260 -117 285 -117 q 223 -120 238 -117 q 203 -127 208 -124 l 193 -119 l 247 29 l 320 4 l 295 -58 q 369 -67 334 -56 q 425 -103 403 -79 q 447 -164 447 -128 q 425 -237 447 -207 q 366 -284 403 -268 q 285 -301 328 -301 z "},"ŝ":{"ha":597,"x_min":28,"x_max":550,"o":"m 314 587 q 417 577 370 587 q 495 556 463 568 q 535 537 526 544 l 467 413 q 418 438 453 422 q 338 453 382 453 q 282 443 305 453 q 259 411 259 433 q 284 377 259 390 q 358 354 310 364 q 442 328 399 346 q 514 275 485 310 q 543 181 543 240 q 517 83 543 122 q 449 22 492 44 q 358 -8 407 1 q 262 -17 308 -17 q 148 -5 197 -17 q 70 22 100 7 q 28 47 40 38 l 97 185 q 156 151 115 170 q 242 132 197 132 q 311 145 287 132 q 335 180 335 158 q 324 208 335 197 q 290 226 312 218 q 238 240 269 233 q 179 257 210 245 q 120 289 148 269 q 75 341 92 310 q 58 417 58 372 q 94 511 58 474 q 190 568 131 549 q 314 587 248 587 m 474 617 l 305 742 l 135 618 l 60 718 l 305 897 l 550 718 l 474 617 z "},"ș":{"ha":597,"x_min":28,"x_max":543,"o":"m 314 587 q 417 577 370 587 q 495 556 463 568 q 535 537 526 544 l 467 413 q 418 438 453 422 q 338 453 382 453 q 282 443 305 453 q 259 411 259 433 q 284 377 259 390 q 358 354 310 364 q 442 328 399 346 q 514 275 485 310 q 543 181 543 240 q 517 83 543 122 q 449 22 492 44 q 358 -8 407 1 q 262 -17 308 -17 q 148 -5 197 -17 q 70 22 100 7 q 28 47 40 38 l 97 185 q 156 151 115 170 q 242 132 197 132 q 311 145 287 132 q 335 180 335 158 q 324 208 335 197 q 290 226 312 218 q 238 240 269 233 q 179 257 210 245 q 120 289 148 269 q 75 341 92 310 q 58 417 58 372 q 94 511 58 474 q 190 568 131 549 q 314 587 248 587 m 243 -401 l 198 -350 q 260 -305 226 -335 q 306 -237 295 -274 q 275 -242 294 -242 q 215 -216 242 -242 q 188 -146 188 -190 q 218 -73 188 -103 q 290 -44 249 -44 q 362 -73 332 -44 q 392 -158 392 -102 q 371 -256 392 -208 q 316 -341 350 -303 q 243 -401 282 -379 z "},"ß":{"ha":783,"x_min":77,"x_max":721,"o":"m 372 160 q 447 177 415 160 q 496 225 478 194 q 514 298 514 256 q 475 400 514 366 q 372 433 435 433 l 372 581 q 459 613 421 581 q 497 701 497 644 q 484 761 497 738 q 448 796 471 785 q 391 808 424 808 q 326 788 353 808 q 285 734 299 768 q 272 658 272 701 l 272 0 l 77 0 l 77 641 q 117 821 77 747 q 227 934 157 895 q 388 972 297 972 q 601 905 522 972 q 680 710 680 837 q 662 623 680 663 q 615 555 644 583 q 552 512 586 526 q 635 470 597 500 q 697 394 674 441 q 721 283 721 347 q 675 128 721 195 q 550 22 628 60 q 372 -17 471 -17 l 372 160 z "}}}
